<svg xmlns="http://www.w3.org/2000/svg" xmlns:xlink="http://www.w3.org/1999/xlink" viewBox="0 0 1440 305.36"><defs><linearGradient id="linear-gradient" x1="-2702.3" x2="-2672.61" y1="207.38" y2="207.38" gradientTransform="translate(3413.5)" gradientUnits="userSpaceOnUse"><stop offset=".01" stop-color="#ef811f"/><stop offset=".11" stop-color="#ef801f" stop-opacity=".98"/><stop offset=".24" stop-color="#ef7f20" stop-opacity=".91"/><stop offset=".38" stop-color="#ee7c20" stop-opacity=".8"/><stop offset=".53" stop-color="#ee7821" stop-opacity=".65"/><stop offset=".69" stop-color="#ed7323" stop-opacity=".46"/><stop offset=".86" stop-color="#ed6d24" stop-opacity=".22"/><stop offset="1" stop-color="#ec6726" stop-opacity="0"/></linearGradient><linearGradient id="linear-gradient-2" x1="-2667.34" x2="-2692.8" y1="167.78" y2="175.72" gradientTransform="translate(3413.5)" gradientUnits="userSpaceOnUse"><stop offset="0" stop-color="#ef811f"/><stop offset=".11" stop-color="#ef801f" stop-opacity=".98"/><stop offset=".23" stop-color="#ef7f20" stop-opacity=".91"/><stop offset=".38" stop-color="#ee7c20" stop-opacity=".8"/><stop offset=".53" stop-color="#ee7821" stop-opacity=".65"/><stop offset=".69" stop-color="#ed7323" stop-opacity=".46"/><stop offset=".86" stop-color="#ed6d24" stop-opacity=".22"/><stop offset="1" stop-color="#ec6726" stop-opacity="0"/></linearGradient><linearGradient id="linear-gradient-3" x1="-2690.05" x2="-2684.86" y1="168.83" y2="168.83" xlink:href="#linear-gradient-2"/><linearGradient id="linear-gradient-4" x1="-2699.72" x2="-2693.35" y1="172.08" y2="172.08" xlink:href="#linear-gradient-2"/><linearGradient id="linear-gradient-5" x1="-2702.83" x2="-2672.47" y1="206.85" y2="206.85" xlink:href="#linear-gradient"/><clipPath id="clip-path"><path fill="none" d="M651.14,254.66c0,2.24-12.64,4.06-28.22,4.06s-28.22-1.82-28.22-4.06,4.41-29.56,28.22-29.54C659.2,224.31,656.61,251.32,651.14,254.66Z"/></clipPath><style>.cls-81,.cls-82,.cls-84,.cls-85,.cls-94{fill:none}.cls-2,.cls-76,.cls-77,.cls-99{fill:#fff}.cls-3,.cls-35{fill:#cddbfb}.cls-3,.cls-34{opacity:.25}.cls-4{opacity:.35}.cls-10{fill:#5793f1}.cls-11{fill:#8cb0f5}.cls-12{fill:#dde5fd}.cls-13,.cls-18{fill:#3258cc}.cls-13,.cls-14,.cls-15{fill-rule:evenodd}.cls-14{fill:#406ade}.cls-15{fill:#294dba}.cls-22{fill:#96b5e0}.cls-23{fill:#e18a18}.cls-26{fill:#ed9926}.cls-27{fill:#f9b760}.cls-28{fill:#fbc882}.cls-29{fill:#fbd9aa}.cls-30{fill:#fde9d2}.cls-31{fill:#ecf1fa}.cls-52{opacity:.4}.cls-37{fill:#2d345a}.cls-39{fill:#575f80}.cls-40{fill:#494f76}.cls-41{fill:#696d80}.cls-42{fill:#ea6423}.cls-43{fill:#e6590e}.cls-44{fill:#d44317}.cls-47{fill:#805651}.cls-77,.cls-90,.cls-91{opacity:.5}.cls-51{fill:#896339}.cls-52{fill:#d9a556}.cls-53{fill:#221e20}.cls-60{fill:#d15425}.cls-62{fill:#3354d0}.cls-63{fill:#2845b4}.cls-64{fill:#647eb6}.cls-65{fill:#4165e2}.cls-68{fill:#243fa2}.cls-69{opacity:.64}.cls-70{fill:#9edeff}.cls-72{fill:#5074ef}.cls-73{fill:#85a1ff}.cls-75{fill:#fce8d1}.cls-76{opacity:.3}.cls-78{fill:#fac782}.cls-79{fill:#2749b0}.cls-81{stroke:#ef746c}.cls-81,.cls-82,.cls-84,.cls-85,.cls-94{stroke-linecap:round;stroke-miterlimit:10}.cls-81,.cls-82,.cls-84,.cls-94{stroke-width:.5px}.cls-82{stroke:#07dbd9}.cls-84{stroke:#ee6e62}.cls-85{stroke:#45ffda;stroke-width:.75px}.cls-88{opacity:.6}.cls-89,.cls-90{fill:#b6cdf7}.cls-89{opacity:.24}.cls-91{fill:#8eb6f1}.cls-92{opacity:.65}.cls-94{stroke:#45ffe6}.cls-95{fill:#ee6e65}.cls-96{fill:#213893}.cls-97{fill:#e3564a}.cls-99{opacity:.32}</style></defs><g id="Layer_2" data-name="Layer 2"><g id="Isolation_Mode" data-name="Isolation Mode"><rect width="1440" height="290" class="cls-2"/><rect width="1440" height="290" class="cls-3"/><path d="M1440,231.73c-54.69-31.1-147.54-8.29-167.64-4-111.48,23.71-161.84-98.58-157.68-59.13C1123.17,249,952.85,32.35,718,37.73c-135.43,3.11-273.09,94.35-234.77,53.38,49.18-52.56-161.75,37.34-228,83.87-57.56,40.43-192.9,52.73-152.35,7.68C132.06,150.27,5.9,233.41,0,243.18V270.8H1440Z" class="cls-3"/><g class="cls-4"><path fill="#a8c5f8" d="M165.81,235.85c-4.49-2.27-8.14-6.59-8.34-11.63a12,12,0,0,1,7.92-11.63,18,18,0,0,1,6.67-.56c16.23,1.05,24.82,20.84,25.87,20.83s-7.85-16.93.61-18.54c6.69-1.27,14.94,14.68,13.81,12.68-2.17-3.79-5.08-12.47,1.93-17,9-5.81,31.05,8.86,35.7,13.55,0,0-10.9-7.37-3.34-15.58S277.8,227.8,274,245.21C274,245.21,253.33,280.12,165.81,235.85Z"/></g><path fill="#bed1f9" d="M1068,255.42c-5.37-17.57-4.11-36.61,0-54.35-53.74-35.16-121.24-77.69-194.87-103.77-50.51-17.89-105.41-30.25-166-30.25-205.24,0-445.06,173.27-445.06,191.28s813.2,13.25,813.2,13.25A67.74,67.74,0,0,1,1068,255.42Z" opacity=".35"/><g class="cls-4"><path fill="#bed1f9" d="M1193.88,238.22c4.81-17.24-29.28-9.28-43-1.21,4.53-2.42,3.27-10-1.11-12.65s-10-1.79-14.94-.39a83.76,83.76,0,0,0-15.93,6.39c1.77-3.58,8.6-8.48,2.5-15.28-1.65-1.83-4.68-1.78-8.19-.53-.18-3.9-1.38-7.55-4.56-9.59a11.58,11.58,0,0,0-7.34-1.45c-5.51.52-11.08,4.2-12.12,9.64a24.46,24.46,0,0,0-1-8.31c-1-2.63-3.09-5-5.85-5.51-3.61-.65-7.12,2.19-8.5,5.59s-1.14,7.21-.86,10.87l-1.72-2.28c-4,2.71-6.25,7.5-6.86,12.3s.22,9.67,1.27,14.4c1,4.41,2.34,9.1,5.89,11.9,3.83,3,9.21,3.06,14,2.35s9.55-.56,13.46-3.23c24,17,65.14,19.12,65.14,19.12C1168.56,266.61,1188.85,256.23,1193.88,238.22Z"/></g><path fill="#a8c5f8" d="M1039.8,263.16c-2.92-71.36-121.27-137.79-106.11-114.41,16.15,24.9-65-54.42-207.78-52.27-184.15-4.82-228.1,94.5-218,65.79,10.78-30.7-72.78,37.11-78.9,100.89Z" opacity=".35"/><polygon points="1087.62 104.44 1051.07 87.67 996.47 109.98 1001.02 214.79 981.02 196.17 970.18 119.53 940.46 104.92 891.73 126.69 891.16 191.09 883.11 192.57 881.72 113.4 861.59 107.08 795.14 117.41 795.14 155.07 776.84 156.97 776.84 183.75 767.71 188.17 760.73 109.42 688.17 106.8 689.07 223.59 681.25 225.01 677.88 146.73 602.29 149.7 604.16 224.65 595.32 224.65 595.32 190.74 571.25 188.97 566.71 85.25 510.06 83.29 508.99 106.8 441.27 106.8 426.37 116.5 425.32 205.92 417.23 209.37 416.99 173.12 417.9 131.16 374.9 116.26 348.68 126.27 331.43 267.63 362.09 267.63 362.1 267.58 953.38 267.58 988.13 267.58 1068.22 267.58 1108.57 267.58 1087.62 104.44" class="cls-2"/><g opacity=".83"><polygon points="441.27 106.8 426.37 116.5 425.06 228.42 441.08 199.2 441.27 106.8" class="cls-10"/><polygon points="1087.62 104.44 1051.07 87.67 996.47 109.98 1001.02 207.48 981.02 196.17 970.18 119.53 940.46 104.92 891.73 126.69 891.16 190.25 883.11 191.73 881.72 113.4 861.59 107.08 795.14 117.41 795.14 155.07 776.84 156.97 776.84 183.75 767.71 188.17 760.73 109.42 688.17 106.8 689.07 223.59 681.25 225.01 677.88 146.73 602.29 149.7 604.16 224.65 595.32 224.65 595.32 190.74 571.25 188.97 566.71 85.25 510.06 83.29 508.99 106.8 441.27 106.8 441.08 199.2 417.23 209.37 341.02 267.58 1108.57 267.58 1087.62 104.44" class="cls-11"/><path d="M1007,112.43l-5.84,2.5c.3,7,.45,10.44.75,17.43l5.8-2.09C1007.4,123.12,1007.26,119.55,1007,112.43Zm9.69-4.14-5.84,2.5c.28,7.22.42,10.85.69,18.12l5.81-2.08C1017.05,119.39,1016.92,115.69,1016.66,108.29Zm9.68-4.15-5.83,2.5c.25,7.51.38,11.27.64,18.81l5.8-2.08C1026.71,115.66,1026.59,111.81,1026.34,104.14ZM1036,100l-5.84,2.49c.24,7.79.36,11.7.59,19.51l5.8-2.07C1036.37,111.93,1036.26,108,1036,100Zm10-4.3-5.84,2.5c.22,8.08.32,12.12.53,20.23l5.8-2.07C1046.37,108.07,1046.27,103.94,1046.07,95.69Zm-38.18,39.73c-2.32.79-3.48,1.19-5.79,2,.3,7,.45,10.5.74,17.52l5.76-1.54C1008.31,146.17,1008.17,142.58,1007.89,135.42Zm9.62-3.24c-2.32.77-3.48,1.17-5.79,2,.27,7.26.41,10.9.68,18.21l5.76-1.55C1017.9,143.33,1017.77,139.61,1017.51,132.18Zm9.62-3.26-5.8,2c.26,7.55.38,11.32.64,18.9l5.75-1.53C1027.49,140.49,1027.36,136.63,1027.13,128.92Zm9.61-3.26-5.79,2c.23,7.83.34,11.76.57,19.6l5.76-1.54C1037.07,137.67,1037,133.66,1036.74,125.66Zm10-3.36c-2.31.77-3.47,1.17-5.79,2,.21,8.11.32,12.17.52,20.32l5.76-1.55C1047,134.73,1046.9,130.57,1046.7,122.3Zm-37.89,36.24-5.75,1.41c.29,7,.44,10.55.74,17.61,2.28-.41,3.42-.6,5.71-1C1009.23,169.34,1009.09,165.72,1008.81,158.54Zm9.54-2.37c-2.3.58-3.45.85-5.75,1.42.28,7.3.41,11,.68,18.3,2.29-.39,3.43-.6,5.71-1C1018.74,167.39,1018.61,163.65,1018.35,156.17Zm9.54-2.35-5.75,1.42c.26,7.58.38,11.38.63,19l5.72-1C1028.25,165.45,1028.13,161.57,1027.89,153.82Zm9.55-2.37-5.75,1.42c.23,7.87.34,11.8.57,19.7l5.71-1C1037.76,163.5,1037.66,159.48,1037.44,151.45Zm9.89-2.44-5.75,1.42c.2,8.16.31,12.23.51,20.42l5.71-1C1047.62,161.49,1047.52,157.33,1047.33,149Z" class="cls-10"/><path d="M1013.79,247.58c-.07-2.14-.46-10.25-1-20.8l-5.67.84c.51,10.39.9,18.36,1,20.43C1010.39,247.85,1011.53,247.76,1013.79,247.58Z" class="cls-10"/><path d="M1023.22,246.82l-5.68.46c-.08-2.19-.47-10.4-1-21.05l5.66-.86C1022.74,236.19,1023.14,244.56,1023.22,246.82Z" class="cls-10"/><path d="M1032.63,246l-5.68.46c-.07-2.3-.46-10.76-1-21.68l5.68-.85C1032.17,235,1032.56,243.68,1032.63,246Z" class="cls-10"/><path d="M1042.05,245.28l-5.67.46c-.07-2.42-.47-11.14-1-22.32l5.68-.86C1041.58,233.91,1042,242.8,1042.05,245.28Z" class="cls-10"/><path d="M1051.81,244.48l-5.68.46c-.07-2.54-.46-11.53-1-23l5.68-.86C1051.35,232.72,1051.74,241.88,1051.81,244.48Z" class="cls-10"/><path d="M1050.58,216.11l-5.67.85c-.28-6.17-.36,3.93-.67-2.7l5.68-.86C1050.23,220,1050.3,209.92,1050.58,216.11Z" class="cls-10"/><path d="M1022,220.38l-5.67.84c-.31-6.12-.4,4-.72-2.69l5.68-.85C1021.61,224.34,1021.7,214.24,1022,220.38Z" class="cls-10"/><path d="M1006.9,222.63l5.68-.84c-.31-6.13-.4,4-.72-2.7l-5.69.84C1006.5,226.62,1006.6,216.52,1006.9,222.63Z" class="cls-10"/><path d="M1011.62,214.1c-.3-6.06-.59-4.69-.85-10l-5.69.85c.26,5.36.55,4,.84,10Z" class="cls-10"/><path d="M1049.69,208.42l-5.68.85c-.29-6.07-.56-4.7-.81-10.06l5.69-.84C1049.14,203.73,1049.41,202.35,1049.69,208.42Z" class="cls-10"/><path d="M1048.66,193.38l-5.68.84c-.4-8.79-.69-15.4-.74-17.5,2.27-.34,3.42-.53,5.7-.88C1048,178,1048.27,184.59,1048.66,193.38Z" class="cls-10"/><path d="M1038.87,194.84l-5.69.85c-.41-8.8-.7-15.4-.76-17.45l5.7-.88C1038.18,179.45,1038.47,186.05,1038.87,194.84Z" class="cls-10"/><path d="M1029.42,196.24l-5.69.86c-.41-8.82-.72-15.41-.78-17.4,2.28-.34,3.42-.52,5.71-.88C1028.72,180.85,1029,187.44,1029.42,196.24Z" class="cls-10"/><path d="M1020,197.66l-5.69.84c-.42-8.81-.74-15.39-.81-17.33l5.71-.88C1019.25,182.25,1019.56,188.85,1020,197.66Z" class="cls-10"/><path d="M1010.52,199.07l-5.69.85c-.43-8.84-.74-15.42-.82-17.29l5.7-.88C1009.78,183.64,1010.1,190.24,1010.52,199.07Z" class="cls-10"/><path d="M1039.92,209.88l-5.69.84c-.28-6.07-.56-4.69-.82-10.05l5.7-.84C1039.35,205.19,1039.64,203.81,1039.92,209.88Z" class="cls-10"/><path d="M1030.48,211.29l-5.68.84c-.29-6.07-.57-4.69-.83-10l5.69-.84C1029.91,206.6,1030.19,205.22,1030.48,211.29Z" class="cls-10"/><path d="M1021,212.7l-5.68.84c-.29-6.06-.58-4.68-.84-10l5.7-.86C1020.47,208,1020.75,206.64,1021,212.7Z" class="cls-10"/><path d="M1031.41,219l-5.68.86c-.29-6.15-.38,3.95-.7-2.71l5.68-.85C1031,222.93,1031.12,212.82,1031.41,219Z" class="cls-10"/><path d="M1040.83,217.57l-5.67.84c-.29-6.15-.38,4-.69-2.69l5.68-.86C1040.46,221.51,1040.54,211.41,1040.83,217.57Z" class="cls-10"/><polygon points="1051.07 87.67 1068.22 267.58 1108.57 267.58 1087.62 104.44 1051.07 87.67" class="cls-10"/><path d="M457.44,129.71H450l0-13.2h7.47Zm12.38-13.2h-7.47l0,13.2h7.47Zm12.39,0h-7.46v13.2h7.47Zm12.4,0h-7.47l0,13.2h7.46Zm12.84,0H500l0,13.2h7.46Zm-50,17H450l0,13.21h7.46Zm12.39,0h-7.47l0,13.21h7.47Zm12.39,0h-7.46v13.21h7.47Zm12.4,0h-7.47l0,13.21h7.46Zm12.84,0H500l0,13.21h7.46Zm-50,17H450l0,13.21h7.46Zm12.39,0H462.4v13.21h7.47Zm12.39,0h-7.46l0,13.21h7.46Zm12.4,0h-7.47l0,13.21h7.46Zm12.84,0H500l0,13.21h7.47Zm-50,17H450l0,13.2h7.47Zm12.39,0h-7.46v13.2h7.47Zm12.4,0h-7.47l0,13.2h7.46Zm12.39,0H487.2l0,13.2h7.47Zm12.84,0H500l0,13.2h7.47ZM457.57,184.9H450.1l0,13.21h7.46Zm12.39,0H462.5v13.21H470Zm12.39,0h-7.46v13.21h7.47Zm12.4,0h-7.47l0,13.21h7.46Zm12.84,0h-7.47l0,13.21h7.46Zm-50,17h-7.47l0,13.21h7.47Zm12.39,0h-7.46v13.21H470Zm12.4,0h-7.47l0,13.21h7.46Zm12.39,0H487.3l0,13.21h7.46Zm12.84,0h-7.47l0,13.21h7.47Zm-50,17h-7.47l0,13.2h7.47Zm12.39,0h-7.46v13.2H470Zm12.4,0h-7.47l0,13.2h7.46Zm12.39,0h-7.47l0,13.2h7.47Zm12.84,0h-7.47l0,13.2h7.47Z" class="cls-10"/><polygon points="799.96 123.2 858.33 112.53 858.33 121.27 799.96 128.13 799.96 123.2" class="cls-10"/><polygon points="799.96 134.31 858.33 124.49 858.33 133.23 799.96 139.25 799.96 134.31" class="cls-10"/><polygon points="799.96 145.51 858.33 136.53 858.33 145.27 799.96 150.44 799.96 145.51" class="cls-10"/><polygon points="799.96 156.67 858.33 148.53 858.33 157.27 799.96 161.6 799.96 156.67" class="cls-10"/><polygon points="799.96 167.82 858.33 160.52 858.33 169.26 799.96 172.76 799.96 167.82" class="cls-10"/><polygon points="799.96 178.98 858.33 172.52 858.33 181.26 799.96 183.91 799.96 178.98" class="cls-10"/><polygon points="799.96 190.14 858.33 184.52 858.33 193.26 799.96 195.07 799.96 190.14" class="cls-10"/><polygon points="799.96 201.3 858.33 196.52 858.33 205.26 799.96 206.23 799.96 201.3" class="cls-10"/><polygon points="799.96 212.45 858.33 208.51 858.33 217.25 799.96 217.38 799.96 212.45" class="cls-10"/><polygon points="799.96 223.26 858.33 220.16 858.33 228.9 799.96 228.19 799.96 223.26" class="cls-10"/><path d="M560.82,91l.82,157.09h-4.21L553.86,91Zm-19.39,0L545,248.12h4.22L548.39,91ZM529,91l3.57,157.09h4.22L536,91Zm-12.43,0,3.57,157.09h4.22L523.54,91Z" class="cls-10"/><path d="M620.77,177.26h-6.91L613,160.33h6.91Zm10.56-16.93h-6.91l.91,16.93h6.91Zm11.48,0H635.9l.91,16.93h6.91Zm11.47,0h-6.91l.91,16.93h6.91Zm11.89,0h-6.92l.91,16.93h6.92ZM621,182.13h-6.91l.91,16.93h6.91Zm11.48,0h-6.92l.91,16.93h6.91Zm11.47,0h-6.91l.91,16.93h6.91Zm11.47,0h-6.91l.91,16.93h6.91Zm11.89,0h-6.91l.91,16.93h6.91Zm-45.14,21.8h-6.91l.91,16.92h6.91Zm11.48,0h-6.91l.91,16.92h6.91Zm11.47,0h-6.91l.91,16.92h6.91Zm11.47,0h-6.91l.91,16.92h6.91Zm11.89,0H661.6l.91,16.92h6.91Zm-45.13,21.79h-6.92l.91,16.93h6.91Zm11.47,0h-6.91l.91,16.93h6.91Zm11.47,0h-6.91l.91,16.93h6.91Zm11.47,0h-6.91l.91,16.93h6.91Zm11.89,0h-6.91l.91,16.93h6.91Z" class="cls-10"/><path d="M704.17,115.73h-6.91l.57,11.09h6.91Zm11.47,0h-6.91l.57,11.09h6.91Zm11.47,0H720.2l.57,11.09h6.91Zm11.48,0h-6.91l.56,11.09h6.92Zm11.88,0h-6.91l.57,11.09H751ZM704.9,130H698l.57,11.1h6.91Zm11.47,0h-6.91l.57,11.1h6.91Zm11.48,0h-6.91l.56,11.1h6.92Zm11.47,0h-6.91l.57,11.1h6.91Zm11.89,0H744.3l.56,11.1h6.92ZM705.63,144.3h-6.91l.57,11.1h6.91Zm11.48,0H710.2l.57,11.1h6.91Zm11.47,0h-6.91l.57,11.1h6.91Zm11.47,0h-6.91l.57,11.1h6.91Zm11.89,0H745l.57,11.1h6.91Z" class="cls-10"/><path d="M707.17,169.59h-6.91l-.57-11.09h6.91Zm10.91-11.09h-6.92l.57,11.09h6.91Zm11.47,0h-6.91l.57,11.09h6.91Zm11.47,0h-6.91l.57,11.09h6.91Zm11.89,0H746l.57,11.09h6.91Zm-45.57,14.29h-6.91l.56,11.09h6.92Zm11.47,0H711.9l.57,11.09h6.91Zm11.47,0h-6.91l.57,11.09h6.91Zm11.47,0h-6.91l.57,11.09h6.91Zm11.89,0h-6.91l.57,11.09h6.91Zm-45.57,14.28h-6.91l.57,11.1h6.91Zm11.47,0h-6.91l.57,11.1h6.91Zm11.47,0H724.1l.57,11.1h6.91Zm11.48,0h-6.92l.57,11.1h6.91Zm11.88,0h-6.91l.57,11.1h6.91ZM708.8,201.36h-6.91l.57,11.1h6.91Zm11.47,0h-6.91l.57,11.1h6.91Zm11.48,0h-6.91l.56,11.1h6.92Zm11.47,0h-6.91l.57,11.1h6.91Zm11.89,0h-6.92l.57,11.1h6.91Z" class="cls-10"/><polygon points="895.44 130.79 898.36 242.65 904.07 242.65 900.56 128.76 895.44 130.79" class="cls-10"/><polygon points="906.54 125.53 911.19 242.65 917.51 242.65 911.89 123.24 906.54 125.53" class="cls-10"/><polygon points="917.64 120.28 924.03 242.65 930.95 242.65 923.23 117.73 917.64 120.28" class="cls-10"/><polygon points="928.74 115.03 936.87 242.65 944.39 242.65 934.56 112.22 928.74 115.03" class="cls-10"/><polyline points="940.46 104.92 953.38 267.58 988.13 267.58 970.18 119.53" class="cls-10"/><polyline points="417.46 243.65 416.99 173.12 417.9 131.16 374.9 116.26 348.68 126.27 337.69 218.72 331.43 267.63" class="cls-11"/><polygon points="414.62 133.97 410.64 250.56 405.6 250.56 410.11 132.58 414.62 133.97" class="cls-10"/><polygon points="404.83 130.37 399.31 250.56 393.74 250.56 400.11 128.81 404.83 130.37" class="cls-10"/><polygon points="395.03 126.78 387.98 250.56 381.88 250.56 390.11 125.03 395.03 126.78" class="cls-10"/><polygon points="385.24 123.18 376.65 250.56 370.02 250.56 380.11 121.26 385.24 123.18" class="cls-10"/><polyline points="374.9 116.26 362.09 267.63 331.43 267.63 348.68 126.27" class="cls-10"/></g><path d="M1088.46,41.22C1041.94,72.69,1151.56,116,1227,81,1321,37.37,1132,5.45,1108.8,6.73c-24.32,1.35-196.42,46.89-196.42,46.89C928.07,73.42,1103.45,31.08,1088.46,41.22Z" class="cls-12"/><path d="M368.4,97.76c44.49,34.3-87.83,20.27-141.71-9.2-85.55-46.79,1.39-62.5,24.44-59.78,24.19,2.85,226.1-36.94,211.32,16.67C486.68,58.12,354.07,86.71,368.4,97.76Z" class="cls-12"/><path d="M1120.08,254l1-27.46a58.89,58.89,0,0,1,2.3-14.26l9.79-33.71a52.65,52.65,0,0,0,2-11.41l2.63-42.64a6.89,6.89,0,0,1,2.44-4.84l21.59-18.13a1.41,1.41,0,0,0,.5-.86l8.16-41.19a1.4,1.4,0,0,1,.42-.78l16.21-13.9a2.24,2.24,0,0,0,.72-1.83h0l-18.74,14.25a2.46,2.46,0,0,0-.83,1.23l-2.45,10.31a1,1,0,0,1-.31.54l-1.35,1.33a1.14,1.14,0,0,1-1.55,0l-13.21-12.23a6.64,6.64,0,0,1-1.43-1.9l-4.29-10.27a.75.75,0,0,0-.91-.44h0a.76.76,0,0,0-.49,1.05l4.86,10.74a6.73,6.73,0,0,0,1.1,1.69l14.56,16.36-3.57,20.61a1.94,1.94,0,0,1-1,1.4l-20.87,11a1.27,1.27,0,0,1-1.86-1l-1.92-19.07a32.13,32.13,0,0,0-1.79-7.8l-13.21-36.3a3.39,3.39,0,0,1,0-2.2l6.23-19.38a1.05,1.05,0,0,0-1.09-1.37h0a1.07,1.07,0,0,0-.89.64l-6.09,14.56a1.42,1.42,0,0,1-2.51.23l-4.81-7.37L1096.9,13.7a1.87,1.87,0,0,0-1.54-.61l-9.12.71,21.22,29.68a9.27,9.27,0,0,1,1.26,2.49L1121,83.54a13.22,13.22,0,0,1,.64,4.79l-2.61,50-8.83-14.56-17.52-23.37a5.7,5.7,0,0,1-1.06-4.3l1.94-12a6.56,6.56,0,0,0-.11-2.61l-2.87-13.55a.81.81,0,0,0-1.13-.56h0a.79.79,0,0,0-.43.91l3.38,13.6a6.43,6.43,0,0,1,0,3l-2.62,10.54a1.52,1.52,0,0,1-2.41.82l-10-7.9a7.06,7.06,0,0,1-1.17-1.33.76.76,0,0,0-1-.16h0a.76.76,0,0,0-.21,1,6.2,6.2,0,0,0,1.14,1.36l12.28,10.92a14.94,14.94,0,0,1,2.61,3l15.58,24.45,9.41,36-36,64.69L1076.69,259l16.73-1.31Z" class="cls-13"/><polygon points="1076.69 259.04 1088.84 235.35 1106.12 228.84 1121.38 219.27 1121.38 219.27 1107.66 231.23 1089.69 247.02 1076.69 259.04" class="cls-14"/><polygon points="1079.95 228.28 1095.71 219.41 1114.63 200.01 1135.1 168.48 1135.3 165.34 1135.95 154.74 1133.56 165.03 1113.5 196.78 1093.62 215.57 1087.7 214.35 1079.95 228.28" class="cls-15"/><polygon points="1137.38 131.64 1124.6 115.85 1120.75 104.41 1121.37 92.53 1124.43 106.8 1133.27 117.57 1137.83 124.33 1137.38 131.64" class="cls-15"/><path d="M1135.1,103.74,1128,94.29l-5-6.66a13.24,13.24,0,0,1-2-3.84l-1.36-4.17,6.08,9.81,5.83,7.17,2.85.59Z" class="cls-15"/><path d="M1119,138.32l1.2,3.06a17.82,17.82,0,0,1,1.06,9l-.44,3.11a15.57,15.57,0,0,1-2.36,6.28l-2.51,3.85-5.31-20.3,4.62,10a1,1,0,0,0,1.88-.06l1.74-4.55a10.62,10.62,0,0,0,.66-4.9Z" class="cls-15"/><polygon points="1115.38 132.39 1107.57 123 1097.59 113.61 1094.74 109.13 1102.92 116.84 1111.02 125.2 1115.38 132.39" class="cls-15"/><polygon points="1119.97 119.2 1124.37 129.23 1127.49 144.18 1123.51 132.72 1119.58 126.78 1119.97 119.2" class="cls-15"/><polygon points="1132.21 82.04 1121.72 64.35 1110.66 51.93 1109.26 47.64 1121.39 63.29 1122.86 64.91 1128.33 71.3 1132.21 82.04" class="cls-15"/><polygon points="1122.97 56.58 1117.53 49.89 1108.95 43.32 1105.05 40.11 1100.72 34.08 1107.75 38.98 1115.68 47.86 1118.07 49.71 1120.5 49.81 1122.97 56.58" class="cls-15"/><path d="M1118.17,43.4h0a3.43,3.43,0,0,1-1.72-1.91l-.81-2.27,1.72,1.32,7.24-17.22-6.48,19.48Z" class="cls-15"/><path d="M1112.83,34.91s-6.07-6.31-6.09-6.54-12.81-3.78-12.81-3.78l-7.69-10.79,7.44-.58,15.68,16.38Z" class="cls-15"/><path d="M1161.74,101.64l-10.46,5.76-8.19,1.45-5.74-.2,1.88-1,5.4.28,5-.65,6.76-3.41a9.74,9.74,0,0,0,4.33-4.37l3-6.08-1.3,7.1A1.45,1.45,0,0,1,1161.74,101.64Z" class="cls-15"/><path d="M1167.21,74.14l-3.91,13.63a1.11,1.11,0,0,1-.07.16l-3.74,6.93,2.52-7.47,0-.09,1.9-8.67a.86.86,0,0,0-.06-.52l-.81-1.86a.82.82,0,0,1,.24-1l1.16-.91a.6.6,0,0,0,.08-.08l2.37-2.5a.89.89,0,0,0,.19-.31l1.6-3.76-1.48,6.36A.31.31,0,0,1,1167.21,74.14Z" class="cls-15"/><polygon points="1133.56 165.03 1122.94 173.31 1099.92 192.39 1087.7 214.35 1093.62 215.57 1113.5 196.78 1133.56 165.03" class="cls-14"/><polygon points="1136.37 142.63 1133.56 150.59 1125.31 158.87 1115.93 163.59 1115.93 163.59 1122.68 156.73 1127.49 144.18 1124.37 129.23 1129.64 144.01 1128.95 149.39 1130.48 148.97 1134.3 131.88 1133.98 127.44 1136.6 130.68 1136.37 142.63" class="cls-14"/><polygon points="1111.02 125.2 1096.63 108.98 1089.74 99.23 1087.64 96.49 1089.12 97.66 1091.19 98.46 1111.02 125.2" class="cls-15"/><polygon points="1136.68 122.63 1132.52 107.26 1126 95.3 1121.56 88.81 1121.64 93.83 1124.43 106.8 1132.54 116.69 1136.68 122.63" class="cls-14"/><path d="M1156.13,104l-6.54,3.3-5,.65-5.4-.28,18.07-6.78,6.37-7.45-2.89,5.86A10.42,10.42,0,0,1,1156.13,104Z" class="cls-15"/><polygon points="1112.37 227.91 1091.87 257.85 1076.69 259.04 1107.66 231.23 1112.37 227.91" class="cls-15"/><polygon points="1134.44 97.19 1131.6 96.6 1125.39 90.12 1119.45 78.92 1113.36 60.22 1125.22 74.44 1130.07 88.44 1134.44 97.19" class="cls-14"/><polygon points="1128.33 71.3 1119.86 61.32 1109.26 47.64 1108.28 44.63 1114.04 51.77 1122.74 62.66 1125.36 63.61 1128.33 71.3" class="cls-14"/><path d="M1120.5,49.81l-2.43-.1-3-2.53-7.33-8.2-9.07-13,8.06,2.44,6.09,6.54,2.81,4.31,2.35,3.89a3.32,3.32,0,0,1,.29.6Z" class="cls-15"/><polygon points="1088.84 235.35 1079.95 228.28 1076.69 259.04 1088.84 235.35" class="cls-15"/><polygon points="1121.38 219.27 1113.36 226.26 1091.87 257.85 1112.78 255.21 1120.74 231.98 1121.38 219.27" class="cls-15"/><path d="M297.07,277.55s-2-75.55-1.81-102.57c.09-18.06,3.35-84.52,5.64-121.27,1.13-18.25,2.18-23.06,2.18-23.06l32.22.66L324.9,115a1.17,1.17,0,0,0,2.18.7l10.34-18.6a23.34,23.34,0,0,0,2.17-5.37l3.5-13.15a14.16,14.16,0,0,1,6-8.66.67.67,0,0,1,.84.12h0a.66.66,0,0,1-.11,1c-1.46,1-4.87,3.66-5.75,7.94l-3.14,13c-.28,1.19.51,1.83,1.61,1.32L346,91.7a8.33,8.33,0,0,0,4-3.06l18.79-30.32L370,53.08a1,1,0,0,1,.59-.68h0a.77.77,0,0,1,1,.78l-.07,1.09a1.78,1.78,0,0,0,2.22,1.84l6-1.53h0a.86.86,0,0,1,.43,1.64l-5.12,2.21a11.34,11.34,0,0,0-5.35,5.11L352.07,97.75a8.86,8.86,0,0,1-4.08,4l-2,1a9.1,9.1,0,0,0-4.56,5l-16.28,42.9S327,210.58,330.82,252c.94,10.16,1.67,19.57,2.91,26.28C333.73,278.3,322.08,278.77,297.07,277.55Z" class="cls-15"/><path d="M324,278.1l-15.33-41.24-8.11-28.8-1.66-20.21-1.42-17.27L297,145.7l.8-9.32.82,23.24-.29,7.9L302,200.31l9,26.07,16,37.24,6.79,14.68S326.84,278.19,324,278.1Z" class="cls-13"/><polygon points="330.82 252.02 325.9 243.88 317.6 213.95 304.05 160.52 303.12 118.53 305.31 150.98 304.86 155.06 305.21 161.25 311.81 186.78 321.07 210.09 324.33 230.5 329.76 240.7 330.82 252.02" class="cls-13"/><polygon points="320.11 278.02 310.05 267 299.94 242.32 298.15 220.56 295.38 195.28 295.49 203.05 298.87 236.68 298.44 249.61 308.43 268.45 312.13 270.22 315.79 277.93 320.11 278.02" class="cls-13"/><polygon points="326.76 202.75 315.38 181.37 307.17 142.85 300.26 76.5 300.9 53.71 304.63 89.18 305.34 107.61 308.74 139.18 317.84 168.9 324.46 174.74 325.86 172.46 326.76 202.75" class="cls-13"/><polygon points="325.14 150.53 325.47 161.43 323.65 164.95 319.77 141.81 318.26 133.75 324.19 120.84 321.83 129.46 326 142.73 330.11 137.42 325.14 150.53" class="cls-13"/><polygon points="326.51 116.68 332.58 112.02 340.69 109.55 342.71 104.23 336.13 109.06 333.81 110.19 329.82 112.05 327.21 115.41 326.51 116.68" class="cls-13"/><polygon points="324.8 115.88 315.61 101.53 310.37 82.9 311.02 33.3 315.55 32.93 312.17 82.75 315.23 96.84 323.88 104.7 325.99 106.17 324.8 115.88" class="cls-13"/><polygon points="327.25 95.85 321.81 78.96 320.44 32.53 329.75 31.61 327.24 83.62 328.39 86.47 327.25 95.85" class="cls-13"/><polygon points="300.9 53.71 307.38 99.17 309.72 112.5 315.08 126.67 311.11 111.41 308.81 90.84 303.03 27.46 300.9 53.71" class="cls-13"/><path d="M324.06,245.59l-2-1.9a1.07,1.07,0,0,1-.14-.16l-8.22-10.85a2.11,2.11,0,0,1-.18-.33L302,200.45a1.5,1.5,0,0,1-.06-.29l-3.62-32.55a1.15,1.15,0,0,1,0-.19l.1-2.57a1.25,1.25,0,0,1,2.39-.48l9.86,21.32a1.72,1.72,0,0,1,.07.21l15.13,57.8a1.22,1.22,0,0,0,.14.33h0A1.26,1.26,0,0,1,324.06,245.59Z" class="cls-14"/><path d="M321,209.88l-9.15-23s0-.09,0-.14l-6.55-25.35a.91.91,0,0,1,0-.23l-.34-6a.61.61,0,0,1,0-.19h0a1.16,1.16,0,0,1,2.19-.38l4.62,9.55a1.14,1.14,0,0,1,.09.26l3.58,16.81a1.21,1.21,0,0,0,.11.3l11.17,21a1.14,1.14,0,0,1,.14.54v10.11a1.16,1.16,0,0,1-2,.8l-3.55-3.7A1,1,0,0,1,321,209.88Z" class="cls-14"/><polygon points="295.42 198.03 299.94 242.32 310.05 267 317.19 274.97 307.3 239.28 295.42 198.03" class="cls-14"/><path d="M308.78,139.3a1.84,1.84,0,0,1,0-.25L305.24,105l-.41-4.83a1.31,1.31,0,0,1,2.61-.3h0l2.26,12.55a.79.79,0,0,0,.06.22l5.31,14.53a1.28,1.28,0,0,1,.07.34l2.09,25.39a1.09,1.09,0,0,1,0,.18l-.4,8a1.33,1.33,0,0,1-.15.55l-.68,1.29Z" class="cls-14"/><polygon points="309.44 94.03 311.11 111.41 314.8 123.29 318.66 128.28 320.81 117.15 315.61 101.53 310.37 82.9 309.44 94.03" class="cls-14"/><path d="M328.2,114.14l1.62-2.09,6.31-3,7.62-9.5,6.55-3.93,20-39-1.52,1.68L349.36,89.66A5.4,5.4,0,0,1,347,91.72l-6.85,3.18-2.52,1.72Z" class="cls-14"/><polygon points="321.83 129.46 330.25 122.02 340.69 109.55 332.58 112.02 326.51 116.68 324.19 120.84 321.83 129.46" class="cls-14"/><polygon points="307.17 142.85 316 170.91 322.31 182.99 317.84 168.9 308.74 139.18 305.12 102.59 307.17 142.85" class="cls-13"/><polygon points="311.81 186.78 312.94 195.6 325.9 243.88 325.54 232.76 324.33 230.5 321.07 210.09 311.81 186.78" class="cls-13"/><polygon points="301.95 200.31 303.13 208.82 310.93 230.78 317.51 254.12 329.34 278.21 333.73 278.3 326.94 263.62 311.34 227.29 301.95 200.31" class="cls-13"/><polygon points="306.63 90.03 308.04 81.46 311.11 111.41 315.08 126.67 309.72 112.5 306.63 90.03" class="cls-13"/><polygon points="315.55 32.93 312.17 82.75 315.23 96.84 323.88 104.7 316.36 100.34 314.65 98.13 311 82.84 313.24 33.12 315.55 32.93" class="cls-13"/><polygon points="325.99 106.17 315.23 96.84 312.17 82.75 315.55 32.93 317.5 32.62 326.96 94.95 325.99 106.17" class="cls-14"/><path d="M751.3.4,0,0V31.39c46.71-13.86,295.82,96,262.25,63.69-61.31-59,235.56-85.3,180.85-44.27-73.15,57.1,130-34.34,203-41.7,22.45-2.69,58.19-3.67,97.53-2.6Q747.39,3.38,751.3.4Z" class="cls-2"/><path d="M0,252.56c26.52,10.13,135.32-13.74,151.55-16.49,36.85-6.26,52.06,30.74,119.47,16,18.47-4,22,20.27,68.39,13.94,12.3-1.69,22.2-4.36,32.58-2.52,42.29,25.85,203,23,160.2-2.86-9.72-5.07,35.4,5.48,94.71,1.61,37.24-2.43,138.6-.27,207.71-9.69,52.44-7.16,43.67-12.36,265.49-2.83,0,0,18.31.49,60.73,13.2,26.21,4.21,62.28,6.34,87.71.07,18.33-4.52,126-37.8,191.46-21v48H0Z" class="cls-2"/><path d="M0,253.48c31.34,9.67,135.32-14.66,151.55-17.41,36.85-6.26,52.06,30.74,119.47,16,18.47-4,22,20.27,68.39,13.94,12.3-1.69,22.2-4.36,32.58-2.52,42.29,25.85,203,23,160.2-2.86-9.72-5.07,35.4,5.48,94.71,1.61,37.24-2.43,138.6-.27,207.71-9.69,52.44-7.16,63.55-21.19,173.81,17.27,17.11,6,356.41,20.21,356.41,20.21H0Z" class="cls-3"/><path d="M491,243.11c38.62,3.26,64.61,16.08,121.13,19.5,57.74,26.94-387.33,27-369.17,17.09,13-7.1,31.18-29.42,44.83-23.82,24.79,10.16,63-1.54,94.54-3.32C417.46,250.57,455.84,240.16,491,243.11Z" class="cls-2"/><path d="M491,243.11c38.62,3.26,64.61,16.08,121.13,19.5,57.74,26.94-387.33,27-369.17,17.09,13-7.1,31.18-29.42,44.83-23.82,24.79,10.16,63-1.54,94.54-3.32C417.46,250.57,455.84,240.16,491,243.11Z" class="cls-2"/><path d="M491,243.11c38.62,3.26,64.61,16.08,121.13,19.5,57.74,26.94-387.33,27-369.17,17.09,13-7.1,31.18-29.42,44.83-23.82,24.79,10.16,63-1.54,94.54-3.32C417.46,250.57,455.84,240.16,491,243.11Z" class="cls-3"/><path fill="#294dba" d="M340.91,262.8c-2.27.76-12.51,3.4,1.6,5.76,26.87,4.5,13.89,12.13,28,11.2,56.75-3.72,135-14.76,168.4-19-9.32-1.16-64-1.23-73.27-2.61C433.86,253.39,348.5,261.42,340.91,262.8Z" opacity=".16"/><path fill="#fafafa" d="M0,259.88S35.53,268.32,156.91,246c36.75-6.76,51.82,25.84,119.23,11.07,18.46-4-40.94,18.49,5.41,12.16,12.3-1.69,53.92-1.64,40.49,7.23-18.42,12.17,290.66,8.29,237.49-16.62-19.73-9.44,16.75,5.78,76.07,1.91,37.23-2.42,85.78,4.32,204.13-7.47,82.07-14.12,187.2-10,321,11.44,26.21,4.21,68.48,8.38,93,2.27,22.65-5.65,152.72-30.18,186.34-26v48H0Z"/><path d="M957.93,243.22c-42.7-.51-81.37,2.27-70.35,5.1C928.4,258.78,839,267.73,860.88,271c28.26,5.3,269.56,21.76,205.4-.93-20.56-8.75-13.67-9.39,14.69-10.2,20.62-.6,33.12-9.71,19.13-10.15C1070.06,248.43,1046.55,245.75,957.93,243.22Z" class="cls-2"/><path d="M957.93,243.22c-42.7-.51-81.45,2.28-70.42,5.1C928.33,258.79,839,267.73,860.88,271c28.26,5.3,269.56,21.76,205.4-.93-20.56-8.75-13.67-9.39,14.69-10.2,20.62-.6,33.12-9.71,19.13-10.15C1070.06,248.43,1046.55,245.75,957.93,243.22Z" class="cls-3"/><path d="M406.46,139.63s-5.18,1.76-6.22,5.34-1.86,8.85-7.58,9.29-7.73-3.68-8-4.56c0,0,3.63,2,8.09-6S401.38,137,406.46,139.63Z" class="cls-18"/><path fill="#ff644a" d="M402,137.82a20.87,20.87,0,0,1,4.44,1.81,14.82,14.82,0,0,0-3.62,2A6.32,6.32,0,0,1,402,137.82Z"/><path fill="#1b3da6" d="M395.3,140c2.21-2.38,4.4-2.76,6.72-2.2a6.32,6.32,0,0,0,.82,3.76,6.87,6.87,0,0,0-2.56,3.28C397.26,144.94,395.71,142.78,395.3,140Z"/><path fill="#406ade" d="M397,148.56a2,2,0,0,0-2.43-.22,1.27,1.27,0,0,1-2.06-.81s-.44,2.89-3.08,2.94C389.4,150.47,393.81,153.74,397,148.56Z"/><circle cx="398.28" cy="139.91" r=".8" class="cls-22"/><path d="M389.4,150.47a4.35,4.35,0,0,0,2,1,4.72,4.72,0,0,0,2.24-.09,6.22,6.22,0,0,0,1.93-1.12c.27-.24.52-.52.78-.78l.65-.89-.76.78c-.28.24-.53.5-.82.71a6.29,6.29,0,0,1-1.87,1A5,5,0,0,1,389.4,150.47Z" class="cls-22"/><path d="M389.4,150.47a4.88,4.88,0,0,0,3.2.32,2.76,2.76,0,0,0,1.37-.93,3,3,0,0,0,.57-1.52,3.86,3.86,0,0,1-.74,1.37,2.77,2.77,0,0,1-1.28.79,4.67,4.67,0,0,1-1.54.16A8.42,8.42,0,0,1,389.4,150.47Z" class="cls-22"/><path d="M378,157.88,345,261a2,2,0,0,0,1.59,2.55l37.62,5.6Z" class="cls-23"/><polygon fill="#d88313" points="388.32 161.73 351.17 263.12 384.25 269.19 388.32 161.73"/><polygon fill="#ce7b14" points="346.63 263.59 383.8 261.07 384.25 269.19 346.63 263.59"/><path d="M535.05,260.31,386.39,276.44c-7.56.6-8.47-2.1-8.47-4.58V159c0-5.74,6-6.43,8.48-6.16l148.66,15.8a4.19,4.19,0,0,1,3.75,4.17v83.3A4.2,4.2,0,0,1,535.05,260.31Z" class="cls-26"/><path d="M538.9,260.72,386.39,276.44a4.2,4.2,0,0,1-4.62-4.17V157a4.19,4.19,0,0,1,4.63-4.17l152.51,16.21a4.19,4.19,0,0,1,3.75,4.17v83.3A4.2,4.2,0,0,1,538.9,260.72Z" class="cls-27"/><path d="M532.65,257,392.56,271.41a3.85,3.85,0,0,1-4.24-3.83V161.73a3.85,3.85,0,0,1,4.26-3.83l140.08,14.89a3.86,3.86,0,0,1,3.45,3.83v76.52A3.85,3.85,0,0,1,532.65,257Z" class="cls-28"/><path d="M425.11,169.31v20.88a2.74,2.74,0,0,1-2.87,2.73l-27.66-1.34a2.74,2.74,0,0,1-2.6-2.74V166.5a2.73,2.73,0,0,1,3-2.72l27.66,2.81A2.73,2.73,0,0,1,425.11,169.31Z" class="cls-27"/><path d="M423.92,170.2v19.93a2.74,2.74,0,0,1-2.87,2.74l-26.47-1.29a2.74,2.74,0,0,1-2.6-2.74v-21.4a2.74,2.74,0,0,1,3-2.72l26.47,2.75A2.74,2.74,0,0,1,423.92,170.2Z" class="cls-29"/><path d="M462.22,173.08V192a2.74,2.74,0,0,1-2.87,2.73l-28.62-1.4a2.74,2.74,0,0,1-2.61-2.73V170.18a2.75,2.75,0,0,1,3-2.73l28.62,2.91A2.74,2.74,0,0,1,462.22,173.08Z" class="cls-27"/><path d="M460.79,174.35v17.58a2.74,2.74,0,0,1-2.87,2.73l-27.19-1.33a2.74,2.74,0,0,1-2.61-2.73V171.52a2.74,2.74,0,0,1,3-2.72l27.19,2.83A2.74,2.74,0,0,1,460.79,174.35Z" class="cls-29"/><path d="M497.39,176.66v17.05a2.74,2.74,0,0,1-2.87,2.74l-26.69-1.31a2.73,2.73,0,0,1-2.6-2.73V173.94a2.74,2.74,0,0,1,3-2.72l26.69,2.72A2.73,2.73,0,0,1,497.39,176.66Z" class="cls-27"/><path d="M496.35,178.09v15.57a2.74,2.74,0,0,1-2.87,2.73l-25.65-1.25a2.73,2.73,0,0,1-2.6-2.73v-17a2.74,2.74,0,0,1,3-2.73l25.65,2.67A2.74,2.74,0,0,1,496.35,178.09Z" class="cls-29"/><path d="M533,180.28v15.17a2.74,2.74,0,0,1-2.88,2.73L503,196.86a2.75,2.75,0,0,1-2.61-2.74V177.53a2.74,2.74,0,0,1,3-2.73l27.1,2.75A2.75,2.75,0,0,1,533,180.28Z" class="cls-27"/><path d="M531.78,181.46v13.93a2.74,2.74,0,0,1-2.87,2.73L503,196.86a2.75,2.75,0,0,1-2.61-2.74V178.76a2.74,2.74,0,0,1,3-2.72l25.9,2.69A2.74,2.74,0,0,1,531.78,181.46Z" class="cls-29"/><path d="M533,204.32v20.09a2.73,2.73,0,0,1-2.67,2.73l-27.11.69a2.74,2.74,0,0,1-2.81-2.74V203.23a2.74,2.74,0,0,1,2.85-2.73l27.11,1.08A2.74,2.74,0,0,1,533,204.32Z" class="cls-27"/><path d="M531.78,205.19v19.34a2.64,2.64,0,0,1-2.57,2.64l-26.1.66a2.63,2.63,0,0,1-2.71-2.63V204.14a2.64,2.64,0,0,1,2.74-2.63l26.11,1.05A2.63,2.63,0,0,1,531.78,205.19Z" class="cls-29"/><path d="M497.39,202.89v22.42a2.74,2.74,0,0,1-2.67,2.74l-26.68.68a2.74,2.74,0,0,1-2.81-2.74V201.82a2.74,2.74,0,0,1,2.85-2.73l26.68,1.07A2.73,2.73,0,0,1,497.39,202.89Z" class="cls-27"/><path d="M496.33,203.75v21.68a2.64,2.64,0,0,1-2.58,2.64l-25.81.66a2.64,2.64,0,0,1-2.71-2.65V202.72a2.65,2.65,0,0,1,2.75-2.65l25.8,1A2.66,2.66,0,0,1,496.33,203.75Z" class="cls-29"/><path d="M462.22,201.48V226.2a2.74,2.74,0,0,1-2.67,2.74l-28.62.73a2.74,2.74,0,0,1-2.81-2.74v-26.6A2.74,2.74,0,0,1,431,197.6l28.62,1.15A2.73,2.73,0,0,1,462.22,201.48Z" class="cls-27"/><path d="M460.63,202.79v23.57a2.6,2.6,0,0,1-2.54,2.61l-27.29.7a2.61,2.61,0,0,1-2.68-2.61V201.7a2.61,2.61,0,0,1,2.72-2.61l27.29,1.09A2.61,2.61,0,0,1,460.63,202.79Z" class="cls-29"/><path d="M462.22,234.93V257.7a2.74,2.74,0,0,1-2.49,2.72l-28.61,2.68a2.74,2.74,0,0,1-3-2.72V235.86a2.75,2.75,0,0,1,2.65-2.74l28.62-.93A2.74,2.74,0,0,1,462.22,234.93Z" class="cls-27"/><path d="M460.63,236.24V258a2.61,2.61,0,0,1-2.36,2.6L431,263.1a2.61,2.61,0,0,1-2.86-2.6V237.13a2.61,2.61,0,0,1,2.53-2.61l27.29-.89A2.6,2.6,0,0,1,460.63,236.24Z" class="cls-29"/><path d="M497.39,233.78V254.4a2.73,2.73,0,0,1-2.48,2.72l-26.69,2.5a2.74,2.74,0,0,1-3-2.72V234.66a2.74,2.74,0,0,1,2.65-2.74l26.68-.87A2.74,2.74,0,0,1,497.39,233.78Z" class="cls-27"/><path d="M496.33,234.64v19.93a2.65,2.65,0,0,1-2.4,2.64l-25.81,2.41a2.64,2.64,0,0,1-2.89-2.63V235.48a2.63,2.63,0,0,1,2.56-2.64l25.8-.85A2.66,2.66,0,0,1,496.33,234.64Z" class="cls-29"/><path d="M533,232.63v18.43a2.75,2.75,0,0,1-2.49,2.73l-27.1,2.54a2.75,2.75,0,0,1-3-2.73V233.51a2.73,2.73,0,0,1,2.65-2.73l27.11-.89A2.75,2.75,0,0,1,533,232.63Z" class="cls-27"/><path d="M531.78,233.51v17.75a2.64,2.64,0,0,1-2.39,2.62l-26.1,2.45a2.65,2.65,0,0,1-2.89-2.63V234.36a2.65,2.65,0,0,1,2.55-2.64l26.11-.85A2.64,2.64,0,0,1,531.78,233.51Z" class="cls-29"/><path d="M425.11,200v27.15a2.74,2.74,0,0,1-2.67,2.74l-27.65.7a2.74,2.74,0,0,1-2.81-2.74v-29a2.74,2.74,0,0,1,2.85-2.73l27.65,1.11A2.73,2.73,0,0,1,425.11,200Z" class="cls-27"/><path d="M423.73,201.28v26a2.63,2.63,0,0,1-2.56,2.62l-26.5.67A2.63,2.63,0,0,1,392,228V200.22a2.62,2.62,0,0,1,2.73-2.62l26.5,1.06A2.62,2.62,0,0,1,423.73,201.28Z" class="cls-29"/><path d="M425.11,236.13v25a2.73,2.73,0,0,1-2.48,2.72L395,266.48a2.74,2.74,0,0,1-3-2.72V237a2.74,2.74,0,0,1,2.65-2.73l27.66-.91A2.74,2.74,0,0,1,425.11,236.13Z" class="cls-27"/><path d="M423.73,237.4v24a2.63,2.63,0,0,1-2.38,2.61l-26.5,2.48a2.62,2.62,0,0,1-2.87-2.61v-25.6a2.63,2.63,0,0,1,2.54-2.63l26.5-.86A2.62,2.62,0,0,1,423.73,237.4Z" class="cls-29"/><ellipse cx="408.38" cy="178.55" class="cls-30" rx="8.79" ry="9.45"/><path d="M409.62,170.76c-1.63-.27-4,1-1.85,1.39,1.85,0,4,1.7,5.45,2.84C417.91,178.73,412.92,171.31,409.62,170.76Z" class="cls-2"/><path d="M415,184.72a8.46,8.46,0,0,1-6.65,3.28c-4.86,0-8.8-4.22-8.8-9.45a9.64,9.64,0,0,1,3.54-7.56,9.85,9.85,0,0,0-2.11,6.14c0,5.23,3.93,9.45,8.79,9.45A8.35,8.35,0,0,0,415,184.72Z" class="cls-28"/><ellipse cx="408.38" cy="214.67" class="cls-30" rx="8.79" ry="9.45"/><path d="M409.62,206.88c-1.63-.27-4,1-1.85,1.39,1.85,0,4,1.7,5.45,2.83C417.91,214.84,412.92,207.43,409.62,206.88Z" class="cls-2"/><path d="M415,220.84a8.49,8.49,0,0,1-6.65,3.28c-4.86,0-8.8-4.23-8.8-9.45a9.66,9.66,0,0,1,3.54-7.57,9.9,9.9,0,0,0-2.11,6.15c0,5.22,3.93,9.45,8.79,9.45A8.35,8.35,0,0,0,415,220.84Z" class="cls-28"/><ellipse cx="408.38" cy="250.64" class="cls-30" rx="8.79" ry="9.45"/><path d="M409.62,242.84c-1.63-.27-4,1-1.85,1.4,1.85,0,4,1.7,5.45,2.83C417.91,250.81,412.92,243.4,409.62,242.84Z" class="cls-2"/><path d="M415,256.81a8.48,8.48,0,0,1-6.65,3.27c-4.86,0-8.8-4.22-8.8-9.45a9.64,9.64,0,0,1,3.54-7.56,9.85,9.85,0,0,0-2.11,6.14c0,5.23,3.93,9.45,8.79,9.45A8.4,8.4,0,0,0,415,256.81Z" class="cls-28"/><ellipse cx="444.38" cy="248.37" class="cls-30" rx="7.25" ry="7.79"/><path d="M445.4,242c-1.34-.23-3.33.78-1.52,1.14,1.53,0,3.32,1.41,4.49,2.34C452.24,248.51,448.13,242.4,445.4,242Z" class="cls-2"/><path d="M449.86,253.46a7,7,0,0,1-5.48,2.7,7.54,7.54,0,0,1-7.25-7.79,8,8,0,0,1,2.91-6.24,8.13,8.13,0,0,0-1.73,5.07,7.53,7.53,0,0,0,7.24,7.79A6.89,6.89,0,0,0,449.86,253.46Z" class="cls-28"/><ellipse cx="444.38" cy="214.59" class="cls-30" rx="7.25" ry="7.79"/><path d="M445.4,208.16c-1.34-.22-3.33.79-1.52,1.15,1.53,0,3.32,1.4,4.49,2.33C452.24,214.73,448.13,208.62,445.4,208.16Z" class="cls-2"/><path d="M449.86,219.67a7,7,0,0,1-5.48,2.71,7.54,7.54,0,0,1-7.25-7.8,7.94,7.94,0,0,1,2.91-6.23,8.12,8.12,0,0,0-1.73,5.06,7.53,7.53,0,0,0,7.24,7.8A6.9,6.9,0,0,0,449.86,219.67Z" class="cls-28"/><ellipse cx="444.38" cy="181.8" class="cls-30" rx="7.25" ry="7.79"/><path d="M445.4,175.37c-1.34-.22-3.33.79-1.52,1.15,1.53,0,3.32,1.4,4.49,2.34C452.24,181.94,448.13,175.83,445.4,175.37Z" class="cls-2"/><path d="M449.86,186.89a7,7,0,0,1-5.48,2.7,7.54,7.54,0,0,1-7.25-7.8,7.94,7.94,0,0,1,2.91-6.23,8.12,8.12,0,0,0-1.73,5.06,7.53,7.53,0,0,0,7.24,7.8A6.89,6.89,0,0,0,449.86,186.89Z" class="cls-28"/><polygon points="462.22 264.23 470.57 263.19 478.93 262.22 495.66 260.41 512.41 258.77 520.79 258.01 529.17 257.33 520.82 258.37 512.47 259.34 495.73 261.15 478.99 262.79 470.61 263.55 462.22 264.23" class="cls-31"/><path d="M513.75,170.78q5.46.42,10.92.93l5.45.53,2.72.27a3.66,3.66,0,0,1,3.51,3.9v2.73l0,5.48c0,3.65-.1,7.3-.19,10.95-.09-3.65-.16-7.3-.19-10.95l0-5.48v-2.73a3.25,3.25,0,0,0-3.08-3.42l-2.72-.3-5.44-.59Q519.18,171.49,513.75,170.78Z" class="cls-31"/><rect width="1.17" height="23.92" x="538.63" y="201.07" class="cls-28" rx=".38"/><path d="M422.24,192.92q-6.76-.18-13.54-.46l-13.54-.6a4,4,0,0,1-1.74-.33,3,3,0,0,1-1.31-1.26,3.2,3.2,0,0,1-.36-1.75v-1.69l0-6.78q0-6.77.19-13.55.13,6.78.19,13.55l0,6.78v1.69a2.77,2.77,0,0,0,.32,1.52,2.54,2.54,0,0,0,1.1,1.05,3.56,3.56,0,0,0,1.56.27l13.53.71Q415.49,192.46,422.24,192.92Z" class="cls-31"/><path d="M452.65,194.4q-5.08-.1-10.17-.3l-10.16-.44-1.27-.07a3.32,3.32,0,0,1-1.33-.24,3,3,0,0,1-1.73-2,5,5,0,0,1-.09-1.32v-1.27l0-2.54c0-3.39.1-6.78.2-10.17q.15,5.08.21,10.17V190a4.69,4.69,0,0,0,.09,1.21,2.49,2.49,0,0,0,1.47,1.69,3.11,3.11,0,0,0,1.16.2l1.27,0,10.16.56C445.88,193.92,449.27,194.15,452.65,194.4Z" class="cls-31"/><path d="M485.08,196c-2.78,0-5.57-.11-8.35-.2l-8.35-.37a6,6,0,0,1-1.08-.1,2.93,2.93,0,0,1-1-.47,3,3,0,0,1-1.21-1.85,5.09,5.09,0,0,1-.05-1.09v-1l0-2.09c0-2.79.1-5.57.2-8.36.09,2.79.16,5.57.19,8.36.05,1.37,0,2.83.08,4.13a2.52,2.52,0,0,0,1,1.56,2.46,2.46,0,0,0,.86.38,6.23,6.23,0,0,0,1,.08l8.35.46Q480.92,195.64,485.08,196Z" class="cls-31"/><path d="M521.08,197.74q-4.16-.06-8.3-.21l-8.3-.36a14.32,14.32,0,0,1-2.11-.18,3,3,0,0,1-1.76-1.32,3,3,0,0,1-.38-1,5.59,5.59,0,0,1,0-1.07l0-2.07c0-2.77.1-5.54.19-8.31.1,2.77.16,5.54.2,8.31l0,2.07a3.11,3.11,0,0,0,.38,1.88,2.53,2.53,0,0,0,1.49,1.11,15.89,15.89,0,0,0,2,.14l8.29.46Q516.94,197.4,521.08,197.74Z" class="cls-31"/><path d="M529.21,227.17q-6.42.3-12.84.52l-12.83.38a3.42,3.42,0,0,1-1.68-.25,2.93,2.93,0,0,1-1.29-1.15,3,3,0,0,1-.4-1.66v-1.6l0-6.42q0-6.42.19-12.85.15,6.44.2,12.85l0,6.42V225a2.56,2.56,0,0,0,.34,1.42,2.49,2.49,0,0,0,1.08.95,3,3,0,0,0,1.47.19l12.84-.27Q522.79,227.2,529.21,227.17Z" class="cls-31"/><path d="M487,228.07c-2.95.18-5.9.36-8.85.49s-5.91.24-8.86.36l-1.11.05a3.22,3.22,0,0,1-1.18-.13,2.92,2.92,0,0,1-1.75-1.57,3,3,0,0,1-.25-1.17v-3.33c0-3,.1-5.91.22-8.86.11,3,.19,5.91.22,8.86v3.33a2.32,2.32,0,0,0,.21,1,2.44,2.44,0,0,0,1.47,1.29,7,7,0,0,0,2.12.08c3-.08,5.9-.19,8.86-.24S484,228.1,487,228.07Z" class="cls-31"/><path d="M450.07,229c-3.34.22-6.69.4-10,.56l-5,.21-2.51.11-1.25.05a3.83,3.83,0,0,1-1.33-.1A2.87,2.87,0,0,1,428,228a3.57,3.57,0,0,1-.14-1.32V225.4l0-5c0-3.35.1-6.7.2-10q.15,5,.21,10l0,5v1.25a3.31,3.31,0,0,0,.13,1.16,2.42,2.42,0,0,0,1.58,1.52,3.45,3.45,0,0,0,1.17.08l1.26,0,2.51-.08,5-.15Q445,229,450.07,229Z" class="cls-31"/><path d="M450,261.34c-3,.36-6,.71-9,1s-6,.6-9,.9c-.39,0-.74.08-1.15.1A2.85,2.85,0,0,1,428,261.3a3.78,3.78,0,0,1-.11-1.19v-3.4c0-3,.1-6,.21-9.06.12,3,.18,6,.22,9.06v3.4a3.61,3.61,0,0,0,.1,1.06,2.34,2.34,0,0,0,1.31,1.49,3.91,3.91,0,0,0,2.11.11c3-.25,6-.55,9-.78S446.94,261.53,450,261.34Z" class="cls-31"/><path d="M486.05,257.94c-5.13.65-10.28,1.19-15.42,1.69l-1.93.19a3.57,3.57,0,0,1-2-.2,2.94,2.94,0,0,1-1.44-1.49,2.57,2.57,0,0,1-.23-1c0-.35,0-.66,0-1,0-2.59.1-5.17.23-7.76.13,2.59.22,5.17.23,7.76a4.25,4.25,0,0,0,.21,1.81,2.4,2.4,0,0,0,1.2,1.23,3.21,3.21,0,0,0,1.78.16l1.93-.18C475.73,258.69,480.89,258.26,486.05,257.94Z" class="cls-31"/><path d="M522.13,254.56c-2.89.36-5.78.7-8.68,1l-8.7.88-1.09.1a3.77,3.77,0,0,1-1.16,0,2.88,2.88,0,0,1-1.9-1.32,2.8,2.8,0,0,1-.4-1.11,8.64,8.64,0,0,1,0-1.13v-2.18c0-2.92.1-5.83.21-8.74.11,2.91.17,5.82.22,8.74V253c0,.36,0,.75,0,1.06a2.41,2.41,0,0,0,1.93,2,11.85,11.85,0,0,0,2.11-.1l8.71-.76C516.32,255,519.22,254.74,522.13,254.56Z" class="cls-31"/><path d="M411,230.18c-3.15.17-6.31.32-9.46.43l-4.74.15c-.8,0-1.56.06-2.39.06a2.86,2.86,0,0,1-2.18-1.22,2.77,2.77,0,0,1-.47-1.2,8.42,8.42,0,0,1,0-1.22v-2.37l0-4.73c0-3.16.1-6.32.2-9.48.1,3.16.16,6.32.2,9.48l0,4.73v2.37a10.58,10.58,0,0,0,0,1.15,2.33,2.33,0,0,0,.39,1,2.39,2.39,0,0,0,1.8,1c.75,0,1.57,0,2.35,0l4.74-.08C404.7,230.17,407.85,230.16,411,230.18Z" class="cls-31"/><path d="M412.35,264.85q-4.55.57-9.1,1l-4.55.46-2.28.22-1.14.12a4.45,4.45,0,0,1-1.21,0,2.87,2.87,0,0,1-2-1.41,3,3,0,0,1-.35-1.19c0-.42,0-.78,0-1.17l0-4.57c0-3.06.1-6.11.21-9.16.11,3.05.17,6.1.21,9.16l0,4.57c0,.38,0,.79,0,1.13a2.38,2.38,0,0,0,1.93,2.15,3.49,3.49,0,0,0,1.07,0l1.14-.1,2.28-.2,4.57-.39C406.26,265.26,409.3,265.05,412.35,264.85Z" class="cls-31"/><ellipse cx="516.84" cy="214.59" class="cls-30" rx="7.05" ry="7.58"/><path d="M517.84,208.33c-1.31-.22-3.25.77-1.49,1.12,1.49,0,3.24,1.36,4.38,2.27C524.5,214.72,520.49,208.78,517.84,208.33Z" class="cls-2"/><path d="M522.18,219.54a6.83,6.83,0,0,1-5.33,2.63,7.33,7.33,0,0,1-7.06-7.59,7.76,7.76,0,0,1,2.83-6.07,7.94,7.94,0,0,0-1.69,4.93A7.33,7.33,0,0,0,518,221,6.74,6.74,0,0,0,522.18,219.54Z" class="cls-28"/><ellipse cx="516.84" cy="243.6" class="cls-30" rx="7.05" ry="7.58"/><path d="M517.84,237.35c-1.31-.22-3.25.77-1.49,1.12,1.49,0,3.24,1.36,4.38,2.27C524.5,243.74,520.49,237.79,517.84,237.35Z" class="cls-2"/><path d="M522.18,248.56a6.83,6.83,0,0,1-5.33,2.63,7.34,7.34,0,0,1-7.06-7.59,7.76,7.76,0,0,1,2.83-6.07,7.94,7.94,0,0,0-1.69,4.93,7.33,7.33,0,0,0,7.06,7.59A6.74,6.74,0,0,0,522.18,248.56Z" class="cls-28"/><ellipse cx="516.84" cy="186.91" class="cls-30" rx="7.05" ry="7.58"/><path d="M517.84,180.65c-1.31-.22-3.25.77-1.49,1.12,1.49,0,3.24,1.36,4.38,2.27C524.5,187,520.49,181.1,517.84,180.65Z" class="cls-2"/><path d="M522.18,191.86a6.83,6.83,0,0,1-5.33,2.63,7.33,7.33,0,0,1-7.06-7.59,7.76,7.76,0,0,1,2.83-6.07,7.94,7.94,0,0,0-1.69,4.93,7.33,7.33,0,0,0,7.06,7.59A6.74,6.74,0,0,0,522.18,191.86Z" class="cls-28"/><ellipse cx="481.31" cy="246.58" class="cls-30" rx="7.09" ry="7.64"/><path d="M482.31,240.28c-1.32-.22-3.26.77-1.49,1.12,1.5,0,3.25,1.38,4.4,2.3C489,246.72,485,240.73,482.31,240.28Z" class="cls-2"/><path d="M486.68,251.57a6.84,6.84,0,0,1-5.36,2.65,7.39,7.39,0,0,1-7.1-7.64,7.83,7.83,0,0,1,2.85-6.12,8,8,0,0,0-1.7,5,7.38,7.38,0,0,0,7.09,7.65A6.78,6.78,0,0,0,486.68,251.57Z" class="cls-28"/><ellipse cx="481.31" cy="214.67" class="cls-30" rx="7.09" ry="7.64"/><path d="M482.31,208.37c-1.32-.22-3.26.77-1.49,1.13,1.5,0,3.25,1.37,4.4,2.29C489,214.81,485,208.82,482.31,208.37Z" class="cls-2"/><path d="M486.68,219.66a6.84,6.84,0,0,1-5.36,2.65,7.38,7.38,0,0,1-7.1-7.64,7.83,7.83,0,0,1,2.85-6.12,8,8,0,0,0-1.7,5,7.38,7.38,0,0,0,7.09,7.65A6.78,6.78,0,0,0,486.68,219.66Z" class="cls-28"/><ellipse cx="481.31" cy="184.89" class="cls-30" rx="7.09" ry="7.64"/><path d="M482.31,178.58c-1.32-.22-3.26.77-1.49,1.13,1.5,0,3.25,1.37,4.4,2.29C489,185,485,179,482.31,178.58Z" class="cls-2"/><path d="M486.68,189.88a6.87,6.87,0,0,1-5.36,2.65,7.39,7.39,0,0,1-7.1-7.65,7.83,7.83,0,0,1,2.85-6.12,8,8,0,0,0-1.7,5,7.38,7.38,0,0,0,7.09,7.65A6.77,6.77,0,0,0,486.68,189.88Z" class="cls-28"/><ellipse cx="985.15" cy="210.45" class="cls-26" rx="84.91" ry="60.11"/><path d="M925.23,270h9.42a1.16,1.16,0,0,0,.92-.48l12.94-16.83c.75-1,.18-2.6-.92-2.6h-9.43a1.17,1.17,0,0,0-.92.49l-12.93,16.83C923.55,268.43,924.12,270,925.23,270Z" class="cls-27"/><path d="M926.38,270h10.69a1.16,1.16,0,0,0,.92-.48l12.94-16.83c.75-1,.18-2.6-.92-2.6h-10.7a1.19,1.19,0,0,0-.92.49l-12.93,16.83C924.7,268.43,925.28,270,926.38,270Z" class="cls-26"/><path d="M1048.74,275.83H1041a.93.93,0,0,1-.76-.49l-10.68-16.83c-.62-1-.15-2.59.76-2.59h7.78a.91.91,0,0,1,.76.48l10.68,16.83C1050.13,274.22,1049.65,275.83,1048.74,275.83Z" class="cls-23"/><path d="M1051,275.65h-8.83a.93.93,0,0,1-.76-.49l-10.68-16.83c-.62-1-.15-2.59.76-2.59h8.83a.92.92,0,0,1,.76.48l10.68,16.83C1052.34,274,1051.87,275.65,1051,275.65Z" class="cls-26"/><ellipse cx="980.59" cy="210.45" class="cls-27" rx="81.49" ry="60.11"/><polygon fill="#d88313" points="939 207.15 904.49 191.49 939.12 178.35 939 207.15" opacity=".28"/><path d="M945.44,213.91l65.45,6.44a6.77,6.77,0,0,0,7.1-6.76V173.48a6.77,6.77,0,0,0-6.77-6.77H945.77a6.77,6.77,0,0,0-6.77,6.77v33.67A6.76,6.76,0,0,0,945.44,213.91Z" class="cls-26"/><path d="M945.34,213.9h.1l65.45,6.44a6.77,6.77,0,0,0,7.1-6.76v-6.44C1013.91,207.9,949.78,212.9,945.34,213.9Z" class="cls-23"/><path d="M904.49,191.49l65.45,3.2c3.86.19,48-18.65,48-18.65a6.77,6.77,0,0,0-6.77-6.77H945.77c-3.74,0-47.13,16.2-47.13,16.2C898.64,189.08,898.64,191.14,904.49,191.49Z" class="cls-26"/><path d="M904.49,188.93l65.45,3.2c3.86.18,48-18.65,48-18.65a6.77,6.77,0,0,0-6.77-6.77H943.59c-3.19,0-33.38,13-42.9,16.31a3.06,3.06,0,0,0-1.59,4.49S900.16,188.93,904.49,188.93Z" class="cls-28"/><path d="M934.89,174.85c17.33-8,78.68-7.35,82.32-4.51a6.76,6.76,0,0,0-6-3.63H943.59c-3.19,0-33.38,13-42.9,16.31a3.06,3.06,0,0,0-1.59,4.49s1.06,1.42,5.39,1.42l65.12,3.18C963.75,191,905.26,188.58,934.89,174.85Z" class="cls-27"/><path d="M1018.49,252.4a1.25,1.25,0,0,1-.88-2.12l3.18-3.23-3.24-3.77a1.24,1.24,0,1,1,1.88-1.62l4,4.64a1.25,1.25,0,0,1-.06,1.68l-4,4.05A1.29,1.29,0,0,1,1018.49,252.4Z" class="cls-23"/><path d="M1019.23,252a1.25,1.25,0,0,1-.88-2.12l3.18-3.23-3.24-3.77a1.24,1.24,0,1,1,1.89-1.62l4,4.64a1.25,1.25,0,0,1-.06,1.68l-4,4A1.24,1.24,0,0,1,1019.23,252Z" class="cls-30"/><path d="M931.46,243.83a1.28,1.28,0,0,1-1-.43l-4-4.64a1.25,1.25,0,0,1,.06-1.68l4-4.05a1.24,1.24,0,0,1,1.77,1.74L929.16,238l3.24,3.78a1.25,1.25,0,0,1-.14,1.75A1.23,1.23,0,0,1,931.46,243.83Z" class="cls-26"/><path d="M931.46,242.8a1.25,1.25,0,0,1-1-.44l-4-4.64a1.25,1.25,0,0,1,.06-1.68l4-4a1.24,1.24,0,1,1,1.77,1.74L929.16,237l3.24,3.78a1.25,1.25,0,0,1-.14,1.75A1.23,1.23,0,0,1,931.46,242.8Z" class="cls-30"/><ellipse cx="1000.76" cy="242.5" class="cls-30" rx="6.67" ry="7.19"/><path d="M999.82,236.58c1.24-.21,3.07.72,1.41,1.06-1.41,0-3.07,1.29-4.14,2.15C993.53,242.64,997.31,237,999.82,236.58Z" class="cls-2"/><path d="M995.72,247.2a6.41,6.41,0,0,0,5,2.49,6.94,6.94,0,0,0,6.67-7.19,7.34,7.34,0,0,0-2.68-5.75,7.55,7.55,0,0,1,1.6,4.67,6.93,6.93,0,0,1-6.67,7.19A6.34,6.34,0,0,1,995.72,247.2Z" class="cls-28"/><ellipse cx="975.71" cy="240.16" class="cls-30" rx="6.67" ry="7.19"/><path d="M974.77,234.24c1.24-.21,3.07.72,1.41,1.06-1.41,0-3.06,1.29-4.14,2.15C968.48,240.3,972.27,234.66,974.77,234.24Z" class="cls-2"/><path d="M970.67,244.86a6.43,6.43,0,0,0,5,2.49,6.94,6.94,0,0,0,6.68-7.19,7.37,7.37,0,0,0-2.68-5.75,7.55,7.55,0,0,1,1.59,4.67,6.93,6.93,0,0,1-6.67,7.19A6.36,6.36,0,0,1,970.67,244.86Z" class="cls-28"/><ellipse cx="951.44" cy="238.57" class="cls-30" rx="6.67" ry="7.19"/><path d="M950.5,232.64c1.24-.2,3.07.73,1.41,1.06-1.41,0-3.06,1.29-4.14,2.16C944.21,238.7,948,233.06,950.5,232.64Z" class="cls-2"/><path d="M946.4,243.26a6.43,6.43,0,0,0,5,2.49,6.93,6.93,0,0,0,6.67-7.18,7.36,7.36,0,0,0-2.68-5.76,7.5,7.5,0,0,1,1.6,4.68,6.94,6.94,0,0,1-6.67,7.19A6.31,6.31,0,0,1,946.4,243.26Z" class="cls-28"/><path d="M951.29,166.91c5.88-.44,11.77-.6,17.66-.7s11.79-.08,17.69-.06,11.78.11,17.67.25l4.42.11,2.21.06a8.24,8.24,0,0,1,2.21.3,6.44,6.44,0,0,1,3.67,2.41,7,7,0,0,1,1.17,4.2,6.91,6.91,0,0,0-1.26-4.14,6.35,6.35,0,0,0-3.63-2.26,21.14,21.14,0,0,0-4.37-.27l-4.42,0-17.68-.13q-8.83-.07-17.67,0c-3,0-5.89,0-8.84.08S954.23,166.78,951.29,166.91Z" class="cls-31"/><path d="M932.09,190.28c5.85.18,11.7.41,17.55.65l17.54.82,2.2.11a5.26,5.26,0,0,0,1,0,9.83,9.83,0,0,0,1.06-.19c1.41-.33,2.8-.78,4.18-1.24,2.77-.94,5.51-2,8.24-3q8.19-3.17,16.31-6.52c-5.35,2.38-10.73,4.69-16.17,6.85-2.72,1.09-5.46,2.14-8.23,3.09-1.39.47-2.79.93-4.23,1.28-.36.08-.72.15-1.1.2a6.23,6.23,0,0,1-1.14,0l-2.19-.11-17.54-.89Q940.85,190.84,932.09,190.28Z" class="cls-31"/><path d="M1041.85,275.07a6.89,6.89,0,0,0,2,.39,6.78,6.78,0,0,0,2.92-1.27,10.41,10.41,0,0,1,6.42-1.26c1.57.21,3.33,1.07,3.55,2.64a3,3,0,0,1-1.78,2.89,8.53,8.53,0,0,1-3.51.7c-3.61.21-10.4,1.32-13.69-.55C1033.06,276,1039,274.33,1041.85,275.07Z" class="cls-2"/><path d="M927.59,269.11a7,7,0,0,0,1.95.39,6.78,6.78,0,0,0,2.92-1.27,10.34,10.34,0,0,1,6.42-1.26c1.57.21,3.33,1.06,3.55,2.64a3,3,0,0,1-1.77,2.89,8.75,8.75,0,0,1-3.52.7c-3.61.21-10.4,1.31-13.68-.55C918.8,270,924.73,268.37,927.59,269.11Z" class="cls-2"/><path d="M1041.85,275.07a6.89,6.89,0,0,0,2,.39,6.78,6.78,0,0,0,2.92-1.27,10.41,10.41,0,0,1,6.42-1.26c1.57.21,3.33,1.07,3.55,2.64a3,3,0,0,1-1.78,2.89,8.53,8.53,0,0,1-3.51.7c-3.61.21-10.4,1.32-13.69-.55C1033.06,276,1039,274.33,1041.85,275.07Z" class="cls-3"/><path d="M927.59,269.11a7,7,0,0,0,1.95.39,6.78,6.78,0,0,0,2.92-1.27,10.34,10.34,0,0,1,6.42-1.26c1.57.21,3.33,1.06,3.55,2.64a3,3,0,0,1-1.77,2.89,8.75,8.75,0,0,1-3.52.7c-3.61.21-10.4,1.31-13.68-.55C918.8,270,924.73,268.37,927.59,269.11Z" class="cls-3"/><path fill="#fbd9aa" d="M1010.33,258.21l-68.11-6.45a3.5,3.5,0,0,1-3.1-3.52v-22a3.48,3.48,0,0,1,3.79-3.52l68.1,6.45a3.51,3.51,0,0,1,3.1,3.53v22A3.47,3.47,0,0,1,1010.33,258.21Z" opacity=".43"/><g class="cls-34"><path d="M113.77,266a71.49,71.49,0,0,1,16.65-5.16,88.31,88.31,0,0,1,17.5-1.45,93.47,93.47,0,0,1,17.5,2c5.74,1.17,11.35,2.74,16.92,4.19s11.1,2.92,16.7,3.89a133.82,133.82,0,0,0,17,1.88A147.28,147.28,0,0,0,250.33,269a106.86,106.86,0,0,1-34.38,5.5,114.37,114.37,0,0,1-17.52-1.26,167,167,0,0,1-17.12-3.77c-11.17-3.07-22.15-6.24-33.52-6.93A99.37,99.37,0,0,0,113.77,266Z" class="cls-35"/></g><g class="cls-34"><path d="M1189,272.78a148.38,148.38,0,0,0,35,3.5,153.24,153.24,0,0,0,34.59-5.3c5.69-1.43,11.33-3.12,17-4.85s11.29-3.52,17-5.14c11.38-3.31,23-6.16,34.88-7.18A330.41,330.41,0,0,0,1293.51,264c-5.57,2-11.18,3.87-16.8,5.77s-11.34,3.59-17.12,5.11a161.49,161.49,0,0,1-17.62,3.51,116,116,0,0,1-18,1A109.09,109.09,0,0,1,1189,272.78Z" class="cls-35"/></g><path d="M702.48.49s-2.21,4,41.13,6c23.36.71,48.49.64,99.86,3.76,49.95,3.05,85.69,9,72.49,24.08C872.2,84.48,1033.26,31.87,1081.55,24c113.28-18.48,60.4,90.66,153.12,66.91C1396,33,1440,37.93,1440,37.93V0Z" class="cls-2"/><path fill="url(#linear-gradient)" d="M740.88,208.68c0,7.82-6.68,14.16-14.93,14.16a14.52,14.52,0,0,1-14.76-14.3c0-7.83,6.21-16.62,14.46-16.62S740.88,200.85,740.88,208.68Z" opacity=".4"/><path d="M707.24,226.31a13.61,13.61,0,0,1-3.57,3.74c-3.48,2-7.61,2.39-2.94-3.61,0,0-11.54,5.77-2-2.34,0,0-17.68,7.56-2.57-2.83,0,0-18.29.83-2.47-4.55,0,0-23.21,2.5-1.88-4.32,0,0-10.58-1.13-1.17-3,0,0-20.21-1.22-1.35-4.66,0,0-18.31-4.54-1.44-5.51,0,0-17.47-4.62-.73-4.16,0,0-19.84-3-1.07-4.69,0,0-15.3-2.88.3-5.13,0,0-14.67-7.47.79-3.2,0,0-13.67-8.71,2.37-4.21,0,0-13.8-11.53,2.41-3.94,0,0-9.94-10.81,2.43-3.66,0,0-4.85-8.24,1.81-1.6,0,0-9.29-18,2.93-1.73,0,0-4.41-12,3-1.45,0,0-2.84-13.28,2.12-1.36,0,0-4.2-15.39,3.23-1.48,0,0-2.76-17.81,3.55-1.23,0,0-.68-11.53,3.91-.42,0,0,.58-13.08,2.27,0,0,0,6.75-10.91,5.16.58,0,0,6.82-5,.32,5.62,0,0-15.62-3.12-22.27,8.63s-6.27,22.68-1.68,36.95C703.05,226.33,707.24,226.31,707.24,226.31Z" class="cls-37"/><path fill="#3c436b" d="M708.7,221.9c-.44,2.73-5.92,7.91-7.36,6.74-.65-.53.58-1.79,1.81-6.9,0,0-12.8,9-1.66-2,0,0-17.83,6.11-2.19-2.42,0,0-15.58.72-2.1-3.87,0,0-19.77,2.13-1.6-3.68,0,0-9-.95-1-2.54,0,0-17.22-1-1.15-4,0,0-15.59-3.87-1.23-4.69,0,0-14.88-3.94-.62-3.55,0,0-16.89-2.52-.91-4,0,0-13-2.45.25-4.36,0,0-12.49-6.37.67-2.72,0,0-11.64-7.42,2-3.59,0,0-11.75-9.82,2.05-3.36,0,0-8.46-9.21,2.07-3.11,0,0-4.13-7,1.54-1.37,0,0-7.91-15.29,2.49-1.47,0,0-3.75-10.2,2.52-1.24,0,0-2.42-11.3,1.8-1.16,0,0-3.58-13.1,2.76-1.26,0,0-2.36-15.16,3-1,0,0-.58-9.82,3.33-.36,0,0,.49-11.14,1.93,0,0,0,5.75-9.29,4.39.49,0,0,7.39-5.72-.93,4.8,0,0-12.09-2.67-17.76,7.33s-10.05,22.06-1.43,31.48C707.59,216.87,709.24,218.57,708.7,221.9Z"/><path d="M692.78,214.1c.1.53,2.17.6,4.63.16s4.38-1.23,4.28-1.76-2.17-.6-4.63-.16S692.69,213.57,692.78,214.1Z" class="cls-39"/><path d="M696.34,219.1c.29.45,2.23-.27,4.34-1.61s3.57-2.81,3.28-3.26-2.23.27-4.34,1.61S696,218.65,696.34,219.1Z" class="cls-39"/><path d="M701.93,223.57c.42.34,2-1,3.59-2.93s2.48-3.8,2.06-4.14-2,1-3.59,2.93S701.51,223.24,701.93,223.57Z" class="cls-39"/><path d="M690.48,205.91c.1.53,2.17.62,4.63.21s4.39-1.19,4.3-1.72-2.17-.62-4.63-.2S690.39,205.38,690.48,205.91Z" class="cls-39"/><path d="M687.6,190.58c-.06.54,1.92,1.18,4.41,1.43s4.55,0,4.6-.51-1.92-1.18-4.41-1.43S687.65,190,687.6,190.58Z" class="cls-39"/><path d="M690.28,181.05c0,.54,1.92,1.17,4.41,1.43s4.55,0,4.6-.52-1.92-1.17-4.41-1.42S690.33,180.51,690.28,181.05Z" class="cls-39"/><path d="M695.69,171.79c-.4.35.62,2.16,2.28,4s3.33,3.1,3.73,2.74-.62-2.17-2.28-4S696.09,171.43,695.69,171.79Z" class="cls-39"/><path d="M703.88,168c-.39.14-.15,1.72.52,3.53s1.54,3.15,1.93,3,.15-1.73-.53-3.53S704.26,167.85,703.88,168Z" class="cls-39"/><path d="M711.75,164c-.41,0-.61,1.62-.44,3.55s.63,3.45,1,3.41.61-1.63.45-3.55S712.16,163.91,711.75,164Z" class="cls-39"/><path d="M719.24,165c-.38-.18-1.36,1.09-2.19,2.83s-1.21,3.29-.84,3.47,1.35-1.09,2.19-2.83S719.61,165.17,719.24,165Z" class="cls-39"/><path d="M708.73,217.56c-.51.77-5.88,7.26-3.67-.3,0,0-10.78,7.64-1.4-1.67,0,0-15,5.14-1.84-2,0,0-13.14.6-1.77-3.26,0,0-16.67,1.79-1.35-3.11,0,0-7.61-.8-.84-2.14,0,0-14.52-.88-1-3.35,0,0-13.15-3.26-1-3.95,0,0-12.54-3.32-.52-3,0,0-14.25-2.12-.77-3.37,0,0-11-2.07.21-3.68,0,0-10.53-5.37.57-2.3,0,0-9.82-6.25,1.7-3,0,0-9.9-8.28,1.73-2.83,0,0-7.13-7.76,1.75-2.63,0,0-3.48-5.92,1.3-1.15,0,0-6.67-12.89,2.1-1.24,0,0-3.16-8.6,2.12-1,0,0-2-9.53,1.52-1,0,0-3-11,2.32-1.06,0,0-2-12.79,2.55-.89,0,0-.49-8.27,2.81-.3,0,0,.41-9.39,1.63,0,0,0,4.84-7.83,3.7.41,0,0,6.23-4.82-.78,4.05,0,0-10.2-2.25-15,6.18a74.76,74.76,0,0,0-3.43,6.69c-3.17,7.15-4.61,14.89,2.21,19.27C711.5,212,710.32,215.22,708.73,217.56Z" class="cls-40"/><path d="M708.4,205.43s1.63-1.24-.42-3.91c0,0,2,.28.45-1.69,0,0,2.88.2,1-3.37,0,0,3.58.37.88-2.49,0,0,2.3,1.52,2.2-1.74,0,0,2.75-.17.58-2.83,0,0,4.43-.86,1.91-4.48,0,0,2.86-.31.28-3.18,0,0,4.57,1.52.7-1.71,0,0,2.58-.52,1.27-3.4,0,0,1.84,1.94,2.14-1.11,0,0,4.55-8.73-.61-3.69,0,0,2.26-7.41-2.54.13,0,0-1.19-5.28-2.46.51,0,0-4.54-4.79-2.76,1.18,0,0-5.16-4.72-2.34,1.64,0,0-8.09-5-3,1.7,0,0-6.37-3.09-1.57,1.8,0,0-6.48-2.95-1.65,2.19,0,0-8.18-5.92-1.28,2.14,0,0-10-1.56-1.48,2.56,0,0-8.79-2.2-.83,2.86,0,0-5,.53-1,2.74,0,0-9.84,2.06-.49,2.44,0,0-11,.93-.06,2.9,0,0-6.15.16-.23,2.54,0,0-7.26,1.54.25,2.36,0,0-5.89,2.23,1.56,2.08,0,0-6.39,5.61,2.11,2.81,0,0-6.4,4.72,1.37,1.11,0,0-4.25,3.94,1,1.06,0,0-1.57,6.92,2,.74,0,0-.1,3.44.57,3.53,1.52.19.79-4.4.79-4.4s4.4-1.29,4.19-2.49C711,205.28,708.4,205.43,708.4,205.43Z" class="cls-39"/><path d="M697.59,198.58c0,.44,1.33.84,3,.89s3-.26,3.07-.7-1.34-.83-3-.88S697.6,198.15,697.59,198.58Z" class="cls-41"/><path d="M696,187.51c-.07.34,1.44.91,3.37,1.28s3.54.4,3.61.07-1.45-.91-3.37-1.28S696.1,187.18,696,187.51Z" class="cls-41"/><path d="M696.32,194.89c-.06.44,1.24,1,2.9,1.22s3.06.08,3.12-.35-1.24-1-2.9-1.21S696.38,194.46,696.32,194.89Z" class="cls-41"/><path d="M701.12,193.91c-.06.43,1.23,1,2.9,1.21s3.05.09,3.11-.34-1.23-1-2.89-1.22S701.18,193.47,701.12,193.91Z" class="cls-41"/><path d="M695.8,192.76c.08.42,1.75.48,3.75.13s3.54-1,3.46-1.43-1.76-.48-3.75-.13S695.72,192.33,695.8,192.76Z" class="cls-41"/><path d="M698.3,197.28c.09.27,1.25.09,2.58-.39s2.34-1.07,2.24-1.33-1.25-.09-2.58.39S698.2,197,698.3,197.28Z" class="cls-40"/><path d="M698.45,189.79c-.12.31.85,1,2.16,1.52s2.48.69,2.61.38-.85-1-2.16-1.52S698.58,189.48,698.45,189.79Z" class="cls-40"/><path d="M700.29,186.43c-.22.25.28,1,1.12,1.77s1.7,1.1,1.92.85-.29-1.05-1.13-1.77l-.13-.11C701.28,186.52,700.49,186.19,700.29,186.43Z" class="cls-40"/><path d="M712.45,178.61c-.21.23.19.91.89,1.5s1.43.89,1.63.65-.19-.91-.89-1.51l-.11-.09C713.31,178.63,712.64,178.38,712.45,178.61Z" class="cls-40"/><path d="M704.33,196.5c-.22.25.28,1,1.12,1.76s1.7,1.11,1.92.85-.29-1-1.13-1.76l-.13-.11C705.31,196.59,704.53,196.26,704.33,196.5Z" class="cls-40"/><path d="M711.69,173.83c-.34,0-.59.91-.57,2s.3,2,.64,2,.59-.91.57-2S712,173.82,711.69,173.83Z" class="cls-40"/><path d="M711.24,186.58c-.34,0-.59.91-.57,2s.3,2,.64,2,.59-.91.57-2S711.57,186.57,711.24,186.58Z" class="cls-40"/><path d="M716.44,174c-.15-.13-.87.44-1.61,1.27s-1.21,1.63-1.05,1.76.87-.44,1.6-1.27S716.59,174.09,716.44,174Z" class="cls-40"/><path d="M706.25,176.12c-.22.25.29,1,1.13,1.77s1.7,1.1,1.91.85-.28-1.05-1.12-1.77S706.47,175.87,706.25,176.12Z" class="cls-40"/><path d="M718.91,174.71c-.25-.21-1,.29-1.77,1.12s-1.11,1.7-.86,1.92,1.05-.29,1.77-1.12S719.16,174.93,718.91,174.71Z" class="cls-41"/><path d="M702.56,204.65c.09.26.87.23,1.74-.08s1.5-.78,1.4-1-.87-.22-1.74.09S702.47,204.39,702.56,204.65Z" class="cls-40"/><path d="M701.33,185.65c.09.26.87.23,1.74-.08s1.49-.78,1.4-1-.87-.23-1.74.08S701.24,185.39,701.33,185.65Z" class="cls-40"/><path d="M704.2,186.57c0,.27.65.62,1.56.78s1.69.06,1.74-.21-.65-.62-1.56-.78S704.25,186.29,704.2,186.57Z" class="cls-40"/><path d="M706.35,195c.1.26.88.23,1.74-.08s1.5-.78,1.41-1-.88-.23-1.74.08S706.26,194.72,706.35,195Z" class="cls-40"/><path d="M716.23,175.75c-.19,0-.28.58-.18,1.23s.33,1.15.52,1.12.27-.57.18-1.22S716.42,175.72,716.23,175.75Z" class="cls-40"/><path d="M718,172.36c-.18-.05-.5.41-.7,1s-.21,1.19,0,1.25.5-.41.7-1S718.21,172.42,718,172.36Z" class="cls-40"/><path d="M703.11,181.45c-.09.27.56.71,1.44,1s1.66.27,1.74,0-.56-.71-1.44-1S703.19,181.18,703.11,181.45Z" class="cls-40"/><path d="M705.42,178.46c-.27.07-.24,1,.06,2s.76,1.84,1,1.77.24-1-.06-2S705.69,178.38,705.42,178.46Z" class="cls-40"/><path d="M701.68,192.83c-.15.23.48.89,1.41,1.46s1.81.86,1.95.62-.49-.89-1.42-1.47S701.82,192.59,701.68,192.83Z" class="cls-40"/><path d="M708.19,180.29c-.25.13-.06,1,.42,2s1.08,1.67,1.33,1.55,0-1-.43-2S708.44,180.17,708.19,180.29Z" class="cls-40"/><path d="M700.6,201.12c.1.27.88.23,1.74-.08s1.5-.77,1.4-1-.87-.22-1.74.09S700.51,200.86,700.6,201.12Z" class="cls-40"/><path d="M700.84,202.84c0,.44,1.16.83,2.61.87s2.64-.27,2.66-.71-1.16-.83-2.61-.87S700.86,202.4,700.84,202.84Z" class="cls-41"/><path d="M707.05,186.27c.12.42,1.35.44,2.75,0s2.44-1.07,2.32-1.49-1.35-.43-2.75,0S706.93,185.85,707.05,186.27Z" class="cls-41"/><path d="M703.72,190c-.07.43,1,1,2.49,1.17s2.66.05,2.72-.39-1-.95-2.48-1.17S703.79,189.54,703.72,190Z" class="cls-41"/><path d="M709.57,179.65c-.21.28.56,1.22,1.71,2.1s2.27,1.38,2.48,1.11-.55-1.22-1.71-2.11S709.78,179.37,709.57,179.65Z" class="cls-41"/><path d="M700.83,181.47c-.29.31.44,1.43,1.62,2.49s2.36,1.67,2.65,1.35-.44-1.43-1.62-2.49S701.11,181.16,700.83,181.47Z" class="cls-41"/><path d="M714.49,173.1c-.31,0-.72.93-.91,2.19s-.09,2.33.22,2.38.72-.94.91-2.2S714.8,173.14,714.49,173.1Z" class="cls-41"/><path d="M702.23,178.58c-.28.32.44,1.43,1.62,2.49s2.37,1.67,2.65,1.36-.44-1.43-1.62-2.49S702.52,178.27,702.23,178.58Z" class="cls-41"/><path d="M707.82,174.27c-.28.31.44,1.43,1.62,2.49s2.37,1.66,2.65,1.35-.44-1.43-1.62-2.49S708.11,174,707.82,174.27Z" class="cls-41"/><path d="M703.42,177.56c-.07.33,1.44.91,3.37,1.28s3.54.4,3.6.06S709,178,707,177.62,703.48,177.22,703.42,177.56Z" class="cls-41"/><path d="M704.42,201.53c.09.26.87.22,1.74-.09s1.49-.77,1.4-1-.87-.23-1.74.08S704.33,201.27,704.42,201.53Z" class="cls-40"/><path d="M707.23,189.58c-.22.26.28,1,1.12,1.77s1.7,1.1,1.92.85-.29-1-1.13-1.77l-.13-.11C708.22,189.67,707.43,189.34,707.23,189.58Z" class="cls-40"/><path d="M704.85,189.3c-.27.07-.24,1,.06,2s.76,1.84,1,1.77.24-1-.06-2S705.12,189.22,704.85,189.3Z" class="cls-40"/><path d="M706.82,183.6c-.22.26.29,1.05,1.13,1.77s1.7,1.1,1.91.85-.28-1-1.12-1.77S707,183.35,706.82,183.6Z" class="cls-40"/><path d="M711.24,185.2c0,.28.65.63,1.56.79s1.69.06,1.74-.21-.65-.63-1.56-.78S711.29,184.93,711.24,185.2Z" class="cls-40"/><path d="M711.59,180.08c-.27.08-.24,1,.06,2s.76,1.85,1,1.77.24-1-.06-2S711.86,180,711.59,180.08Z" class="cls-40"/><path d="M719,167.64a7.93,7.93,0,0,0,3.57-2.28c1.61-2.1-2.06-5.62-4.31-3.27-1.16,1.19-1.19,2.95-1.49,4.11" class="cls-42"/><path d="M719.65,166.38a4.7,4.7,0,0,0,2.19-1.41c1-1.29-1.26-3.48-2.66-2a5,5,0,0,0-.92,2.55" class="cls-43"/><path d="M721.88,165a1.43,1.43,0,0,0,0-1.09,2.32,2.32,0,0,0-.65-.88,1.62,1.62,0,0,0-2-.07,1.58,1.58,0,0,1,1.07-.63,1.87,1.87,0,0,1,1.24.41,2,2,0,0,1,.7,1.06A1.41,1.41,0,0,1,721.88,165Z" class="cls-44"/><path d="M731.39,178.75s17.24,9.89,16.9,14.36-8.38,12-8.38,12l-.27-2.61s4.67-6.7,4.14-8-9.15-3.62-9.15-3.62S725.3,187.4,731.39,178.75Z" class="cls-42"/><path d="M731.39,178.75c-6.09,8.65,3.24,12.09,3.24,12.09s3.58.95,6.27,2C739.48,188,731.39,178.75,731.39,178.75Z" class="cls-43"/><path d="M742.81,202.49a34.16,34.16,0,0,0-7.47-16.41c-1.25-1.45-4.47-7.37-4.57-10.27s-3.22-4.47-5.39-7.79-8-3.65-13.1-2.49-9.34,6.7-10.12,9.5a9,9,0,0,1-2.94,4.54c-1.18,4.84-.84,10-.06,15,.2,1.86.89,3.48.37,5.53.92,7.45.77,18.18-.72,25.16a48.93,48.93,0,0,0,.44,20.92h2.59s1.5-11,10.67-16.48c3.43-2,16.6-5.19,20.85-3.43s8.06,10.42,8.06,10.42l1.58-.5s0-1.3.74-5.87C744.79,223.38,744.05,211.19,742.81,202.49Z" class="cls-42"/><path d="M720.92,169.05a2.39,2.39,0,0,1,1.72-2.49c1.86-.47,3.89,2.95,7,3.89s5.76,1.55,8.4,1.24,5-1.87,5.05-1.09-3.3,7.82-9.32,9.58l-.4.07c-6.38,1.56-10.3,2-15-3.58s-5.9-6.69-3.41-7.62S720.92,169.05,720.92,169.05Z" class="cls-42"/><path fill="url(#linear-gradient-2)" d="M720.92,169.08a2.39,2.39,0,0,1,1.72-2.49c1.86-.47,3.89,3,7,3.89s5.76,1.56,8.4,1.25,5-1.87,5.05-1.09-3.4,8-9.72,9.65-10.3,2-15-3.58-5.9-6.69-3.41-7.63S720.92,169.08,720.92,169.08Z"/><path fill="#010101" d="M739.61,171.37s3.57-1.91,4-1.6.2,2.57-1.76,3.67S739.61,171.37,739.61,171.37Z"/><circle cx="736.74" cy="174.49" r=".6" class="cls-47"/><circle cx="735.56" cy="175.7" r=".31" class="cls-47"/><circle cx="737.08" cy="176.01" r=".45" class="cls-47"/><path fill="#3d132a" d="M702.05,247.19c.16.71.8,3.71.35,4.12s-2.07,2.53-3.58,2.76c-3.39.5-5-1-5.15-1.53a8.64,8.64,0,0,1-.24-.83c.12-1.08,4.49-2.09,5.21-2.92a13.57,13.57,0,0,0,.77-2.18Z"/><path fill="#5d1a3d" d="M701.84,246.14c.16.71.85,4.29.41,4.7s-2,2.34-3.53,2.53a6.56,6.56,0,0,1-4.28-.61c-3.41-1.66,2.8-3.62,3.77-4.53a9.24,9.24,0,0,0,1-2.09Z"/><path fill="#3d132a" d="M701.84,249.51a13.88,13.88,0,0,0-5.59-.18,7.4,7.4,0,0,0,2.07-1.22,12.89,12.89,0,0,0,.93-2l.24.07A3.13,3.13,0,0,0,701.84,249.51Z" opacity=".5"/><path d="M704.45,173.15a6.69,6.69,0,0,1-3.29-.6c-2.28-1.33-.95-6.29,2.3-5.83,1.53.66,2.32,3.27,3,4.22" class="cls-42"/><path d="M705.58,172.51a9.22,9.22,0,0,1-4.46-1c-2.28-1.32-.24-6,2.74-4.66,1.53.66,2.22,2.28,2.94,3.23" class="cls-42"/><path d="M704.18,171.33a5,5,0,0,1-2.48-.45c-1.37-.79-.16-3.58,1.64-2.81a4.81,4.81,0,0,1,1.77,2" class="cls-43"/><path d="M701.42,168.7a1.55,1.55,0,0,1,.91-.86,1.61,1.61,0,0,1,1.3.18,2.67,2.67,0,0,1,.9.9c.23.36.39.74.58,1.11a6.72,6.72,0,0,1-.79-.93,2.89,2.89,0,0,0-.86-.75,1.56,1.56,0,0,0-1-.23A2,2,0,0,0,701.42,168.7Z" class="cls-44"/><circle cx="726.52" cy="170.67" r="2.8" class="cls-2"/><circle cx="727.14" cy="170.14" r="1.95" class="cls-51"/><path d="M728.84,170.56a1.75,1.75,0,1,1-3.4-.84c.23-.94.55,1,1.49,1.26S729.07,169.62,728.84,170.56Z" class="cls-52"/><circle cx="727.14" cy="170.14" r="1.42" class="cls-53"/><circle cx="727.91" cy="169.75" r=".21" class="cls-2"/><path d="M723.61,170.34a3.09,3.09,0,0,1,2.23-1.67,6,6,0,0,1,2.67,0,2.73,2.73,0,0,0-3.37-.92c-2,1.13-1.53,2.59-1.53,2.59" class="cls-37"/><path d="M723.61,170.34c.6-1.34,2.24-2.56,5-1.59,0,0-1.5-2.11-3.5-1.21a2.54,2.54,0,0,0-1.68,1.92,1.62,1.62,0,0,0,.15.88" class="cls-42"/><path fill="url(#linear-gradient-3)" d="M723.61,170.34c.6-1.34,2.24-2.56,5-1.59,0,0-1.5-2.11-3.5-1.21a2.54,2.54,0,0,0-1.68,1.92,1.62,1.62,0,0,0,.15.88"/><circle cx="717.3" cy="173.48" r="3.43" class="cls-2"/><circle cx="717.93" cy="173" r="2.38" class="cls-51"/><path d="M720.07,173a2.14,2.14,0,0,1-4.28,0c0-1.18,1,1.08,2.13,1.09S720.08,171.83,720.07,173Z" class="cls-52"/><circle cx="717.93" cy="173" r="1.74" class="cls-53"/><circle cx="718.74" cy="172.32" r=".26" class="cls-2"/><path d="M720.15,171.44a4.08,4.08,0,0,0-3.67.35,8,8,0,0,0-2.63,2.38,3.63,3.63,0,0,1,2.5-3.91c2.94-.66,3.8,1.18,3.8,1.18" class="cls-37"/><path d="M720.15,171.44c-1.78-.78-4.48-.52-6.35,2.92,0,0-.41-3.4,2.35-4.31a3.26,3.26,0,0,1,3.34.41,2.59,2.59,0,0,1,.66,1" class="cls-42"/><path fill="url(#linear-gradient-4)" d="M720.15,171.44c-1.78-.78-4.48-.52-6.35,2.92,0,0-.41-3.4,2.35-4.31a3.26,3.26,0,0,1,3.34.41,2.59,2.59,0,0,1,.66,1"/><path fill="#351125" d="M741.42,237c0,.46-.22,2,.15,2.24a10.14,10.14,0,0,0,3,.92c2.55.27,3.07-.56,3.06-.87a2.41,2.41,0,0,0,0-.38c-.31-.69-3-.49-3.64-1a12.42,12.42,0,0,1-1-1.39Z"/><path fill="#561b38" d="M741.42,236.65c0,.45-.22,2,.15,2.24a10.45,10.45,0,0,0,3,.92,3.63,3.63,0,0,0,2.61-.42c1.83-1.1-2.21-1.33-3-1.91a9.09,9.09,0,0,1-1.12-1.33Z"/><path fill="#351125" d="M742.07,238.33a8.5,8.5,0,0,1,3.49-.37,4.28,4.28,0,0,1-1.54-.55,14.87,14.87,0,0,1-1-1.26l-.14,0A1.48,1.48,0,0,1,742.07,238.33Z" opacity=".5"/><path d="M699.53,200.06c-4-9.7-8.77-11.93-10.84-18.66a42.38,42.38,0,0,1-1.52-20.6c0-.21.81-.16,1-.25h0c.35-.16.45-.31.52.09.66,3.69,2.62,15.82,10.08,18.91C724.48,190.2,705.51,207.57,699.53,200.06Z" class="cls-42"/><path d="M686,155l.8,5.22,1.1-.23s-.07-3.37-.65-4.53C686.91,154.8,686,155,686,155Z" class="cls-42"/><path id="front_hand" d="M687,162.26s-.35-2.93-.35-2.93a2.67,2.67,0,0,1,2.67-1.49,2.32,2.32,0,0,1,1.85,1.52c.41,1-.81,2.09-1.22,1.8a1.17,1.17,0,0,1-1,1.53A2.7,2.7,0,0,1,687,162.26Z" class="cls-42" data-name="front hand"/><path d="M688.21,159.6a3.42,3.42,0,0,1,1.62-.68,1.26,1.26,0,0,1,1.37.53,1.39,1.39,0,0,0-1.36-.35A6.74,6.74,0,0,0,688.21,159.6Z" class="cls-44"/><path d="M687.1,158.72a2.38,2.38,0,0,1,1.32-.85,2.3,2.3,0,0,1,1.55.19,2.25,2.25,0,0,0-1.48,0A3.07,3.07,0,0,0,687.1,158.72Z" class="cls-44"/><path d="M689.79,160.37c.28.29.19.72.17,1.06" class="cls-44"/><path d="M689.86,160.56a.78.78,0,0,1,.81-.34,2.75,2.75,0,0,0-.78.53A1.08,1.08,0,0,1,689.86,160.56Z" class="cls-44"/><path fill="url(#linear-gradient-5)" d="M741,208.17c0,8-6.84,14.49-15.28,14.49A14.85,14.85,0,0,1,710.67,208c0-8,6.35-17,14.78-17S741,200.17,741,208.17Z" opacity=".4"/><path d="M723,179.34a16.82,16.82,0,0,0,10.74.84,15.62,15.62,0,0,1-10.9-.34A4.16,4.16,0,0,0,723,179.34Z" class="cls-60"/><path d="M723.36,179.19a.53.53,0,0,0-.45-.16.57.57,0,0,0-.41.24.56.56,0,0,0-.12.48.51.51,0,0,0,.32.37c.16-.13.24-.21.32-.26s.11-.07.13-.11S723.22,179.54,723.36,179.19Z" class="cls-60"/><path fill="#304a96" d="M707.57,157.22h1.94a0,0,0,0,1,0,0v.37a1,1,0,0,1-1,1h0a1,1,0,0,1-1-1v-.37a0,0,0,0,1,0,0Z" transform="translate(1430.27 80.12) rotate(161.29)"/><rect width="104.39" height="14.54" x="679.36" y="255.38" class="cls-62" rx="7.27"/><path d="M685,269.92c-3.1,0-5.64-3.27-5.64-7.27h0c0-4,2.54-7.27,5.64-7.27h93.11c3.1,0,5.64,3.27,5.64,7.27h0C669.56,262.65,685,269.92,685,269.92Z" class="cls-63"/><polygon points="666.63 138.07 659.53 138.07 664.36 204.11 671.46 204.11 666.63 138.07" class="cls-63"/><ellipse cx="664.14" cy="149.19" class="cls-64" rx="2.16" ry="25.62" transform="translate(-7.6 39.17) rotate(-3.36)"/><ellipse cx="666.09" cy="182.45" class="cls-64" rx="1.28" ry="4.24" transform="translate(-10.39 43.4) rotate(-3.7)"/><polygon points="795.66 138.07 802.76 138.07 797.93 204.11 790.84 204.11 795.66 138.07" class="cls-63"/><ellipse cx="795.3" cy="192.75" class="cls-65" rx="25.62" ry="2.16" transform="translate(556.28 975.39) rotate(-86.64)"/><ellipse cx="797.25" cy="159.49" class="cls-65" rx="4.24" ry="1.28" transform="matrix(0.06, -1, 1, 0.06, 586.6, 944.78)"/><path fill="#315d9b" d="M799.05,261.64H660.86a6.65,6.65,0,0,1-6.44-6l-6.68-44.88c-.52-4.16,2.51-7.87,6.44-7.87H805.73c3.93,0,7,3.71,6.43,7.87l-6.67,44.88A6.66,6.66,0,0,1,799.05,261.64Z"/><path d="M699.28,209.06H657.84A5.11,5.11,0,0,0,653,214.9l4.6,36.5a5,5,0,0,0,4.8,4.67h36.85a5.05,5.05,0,0,0,4.83-5.26V214.32A5.05,5.05,0,0,0,699.28,209.06Z" class="cls-63"/><path d="M803.91,222.35H710.19a1.9,1.9,0,0,1-1.82-2V211a1.9,1.9,0,0,1,1.82-2h94.95a1.93,1.93,0,0,1,1.8,2.26l-1.23,9.33A1.89,1.89,0,0,1,803.91,222.35Z" class="cls-63"/><path d="M799.11,256.07H710.18a1.89,1.89,0,0,1-1.81-2v-22.7a1.89,1.89,0,0,1,1.81-2h93.21a1.92,1.92,0,0,1,1.79,2.26l-4.29,22.7A1.86,1.86,0,0,1,799.11,256.07Z" class="cls-63"/><polygon points="666.63 138.07 659.53 138.07 664.36 204.11 671.46 204.11 666.63 138.07" class="cls-63"/><ellipse cx="664.14" cy="149.19" class="cls-65" rx="2.16" ry="25.62" transform="translate(-7.6 39.17) rotate(-3.36)"/><ellipse cx="666.09" cy="182.45" class="cls-65" rx="1.28" ry="4.24" transform="translate(-10.39 43.4) rotate(-3.7)"/><path fill="#243fa2" d="M667.48,150l-.85-13.15h-7.1l.71,11.45C662.66,148.87,665.07,149.45,667.48,150Z" opacity=".5"/><path d="M802,149.12l.81-11.05h-7.1l-.66,9.09C797.29,147.93,799.61,148.56,802,149.12Z" class="cls-68"/><path d="M799.05,261.64H660.86a6.65,6.65,0,0,1-6.44-6l-6.68-44.88c-.52-4.16,2.51-7.87,6.44-7.87H805.73c3.93,0,7,3.71,6.43,7.87l-6.67,44.88A6.66,6.66,0,0,1,799.05,261.64Z" class="cls-62"/><path d="M699.28,209.06H657.84A5.11,5.11,0,0,0,653,214.9l4.6,36.5a5,5,0,0,0,4.8,4.67h36.85a5.05,5.05,0,0,0,4.83-5.26V214.32A5.05,5.05,0,0,0,699.28,209.06Z" class="cls-65"/><path d="M803.91,222.35H710.19a1.9,1.9,0,0,1-1.82-2V211a1.9,1.9,0,0,1,1.82-2h94.95a1.93,1.93,0,0,1,1.8,2.26l-1.23,9.33A1.89,1.89,0,0,1,803.91,222.35Z" class="cls-65"/><g class="cls-69"><path d="M708.37,220.37l-.09-5.82,0-2.91a3.66,3.66,0,0,1,.16-1.49,2.08,2.08,0,0,1,1.07-1.13,1.75,1.75,0,0,1,.78-.15h2.18l2.91,0,5.82,0,23.28-.09,23.28.09,11.63.1,11.64.19-11.64.18-11.63.1-23.28.09-23.28-.09-5.82-.05-2.91,0-1.45,0a4,4,0,0,0-1.37.11,1.69,1.69,0,0,0-.91.91,3.24,3.24,0,0,0-.18,1.37l0,2.91Z" class="cls-70"/></g><path d="M799.11,256.07H710.18a1.89,1.89,0,0,1-1.81-2v-22.7a1.89,1.89,0,0,1,1.81-2h93.21a1.92,1.92,0,0,1,1.79,2.26l-4.29,22.7A1.86,1.86,0,0,1,799.11,256.07Z" class="cls-65"/><g class="cls-69"><path d="M708.37,249.17l-.18-11.32-.06-5.65a5.85,5.85,0,0,1,.09-1.48,2.18,2.18,0,0,1,.94-1.25,2.54,2.54,0,0,1,1.51-.3h1.41l22.63-.09,22.62.08,11.31.11,11.31.18-11.31.19-11.31.1-22.62.09-22.63-.09h-1.41a2.15,2.15,0,0,0-1.24.19,1.74,1.74,0,0,0-.73,1,4.77,4.77,0,0,0-.09,1.34l-.06,5.65Z" class="cls-70"/></g><path d="M835.75,145.47l-209.18-.27c-7.38,0-7.26-9.48-4.64-12.81l31.18-29.83a5.91,5.91,0,0,1,4.65-2.15H804.31a5.89,5.89,0,0,1,4.65,2.15l31.44,30.1C843,136,841.43,145.47,835.75,145.47Z" class="cls-63"/><path d="M835.75,140.24,626.57,140c-4.57,0-7.26-4.39-4.64-7.59L653.11,99a6,6,0,0,1,4.65-2.07H801.7A6,6,0,0,1,806.35,99l34,33.69C843,135.86,840.33,140.24,835.75,140.24Z" class="cls-62"/><ellipse cx="647.58" cy="114.23" class="cls-63" rx="4.67" ry="2.85"/><path fill="#203890" d="M652.25,114.22a1.9,1.9,0,0,1-.09.58c-.19-1.46-2.2-2.62-4.65-2.62-2.25,0-4.14,1-4.58,2.29a2.11,2.11,0,0,1,0-.25c0-1.57,2.09-2.84,4.67-2.84S652.25,112.65,652.25,114.22Z"/><path d="M824.14,135.48H646.69c-4.16,0-6.59-3.72-4.22-6.44l24.83-28.39a5.63,5.63,0,0,1,4.22-1.76H797.35a5.63,5.63,0,0,1,4.22,1.76l25,26.66C829,130,828.3,135.48,824.14,135.48Z" class="cls-63"/><path d="M824.14,135.48H646.69c-4.16,0-6.59-3.59-4.22-6.21L667.3,101.9a5.73,5.73,0,0,1,4.22-1.69H797.35a5.73,5.73,0,0,1,4.22,1.69L824,124.48C826.38,127.1,828.3,135.48,824.14,135.48Z" class="cls-65"/><path d="M824,124.48c-3.49,1.11-25.36,11.23-10.46-.37,12.73-9.89-40.15,10.69-35.62,4.24,6-8.51-24.32,4-36.36,7.13h82.57c4.16,0,6.6-3.59,4.22-6.21Z" class="cls-72"/><path d="M712,123.56c32.26-10.6,101.81-21,80.92-23.35H671.52A5.56,5.56,0,0,0,667.3,102l-18,19.75c22.62-7.1,31.88-12.29,55.93-13.63C732.22,106.64,680.62,133.87,712,123.56Z" class="cls-72"/><rect width="20.16" height="1.52" x="793.39" y="141.8" class="cls-68" rx=".76"/><rect width="1.53" height="3.25" x="802.86" y="140.92" class="cls-63"/><path d="M822,119.57l-.11.07a.54.54,0,0,1-.7-.07l-9.18-10a.39.39,0,0,1,.09-.6l.11-.08a.59.59,0,0,1,.71.07l9.17,10A.39.39,0,0,1,822,119.57Z" class="cls-68"/><path d="M822.28,119.35l-.11.08a.57.57,0,0,1-.7-.07l-9.18-10a.39.39,0,0,1,.09-.6l.12-.07a.55.55,0,0,1,.7.07l9.18,10A.4.4,0,0,1,822.28,119.35Z" class="cls-63"/><path d="M683.83,116.14c5.48-6.6,12.31-11.84,20-11.85s8.18,5.24,5.66,11.86-8.33,11.93-20.05,11.92S678.33,122.78,683.83,116.14Zm20.43,0c2.36-5,2.77-8.9-2.26-8.9s-9.3,3.91-13,8.9-4.65,8.95,2.17,8.95S701.89,121.17,704.26,116.15Z" class="cls-73"/><path d="M714.2,124.28H720L713.42,131h-5Z" class="cls-73"/><path d="M728.07,127.16l2-2.81a23.34,23.34,0,0,0,6,.79c7.72,0,10.72-3.91,10.56-7.74h-.1c-1.22,1.31-4.55,2.16-7.92,2.16-7.29,0-11.86-3.31-11.52-7.59.36-4.54,4.47-7.71,9.85-7.72,6.1,0,12.28,4.28,14.65,10.89,2.13,5.93-1.48,13-15.06,13A33.17,33.17,0,0,1,728.07,127.16Zm17.86-13.56c-.8-3-4.69-6.37-8.59-6.37-3.56,0-5.62,2.06-5.6,4.74s2.84,4.87,7.57,4.87C743.47,116.84,746.36,115.24,745.93,113.6Z" class="cls-73"/><path d="M764.71,127.2l.5-2.82a29.18,29.18,0,0,0,6.4.79c7.72,0,8.63-3.92,6.42-7.76h-.1c-.52,1.31-3.4,2.16-6.77,2.16-7.28,0-13.63-3.31-15.58-7.6-2.07-4.56.36-7.74,5.73-7.74,6.11,0,14.57,4.29,20.47,10.92,5.29,5.94,5.46,13-8.12,13A40.53,40.53,0,0,1,764.71,127.2Zm10.6-13.6c-2.41-3-8.1-6.39-12-6.39-3.55,0-4.52,2.07-3.06,4.76s5.45,4.88,10.17,4.88C774.58,116.85,776.62,115.24,775.31,113.6Z" class="cls-73"/><path d="M653,214.9c1,6.67,2,13.36,2.89,20,.47,3.34.89,6.68,1.33,10l.65,5,.17,1.25a5.33,5.33,0,0,0,.24,1.15,4.82,4.82,0,0,0,1.19,2,4.17,4.17,0,0,0,3.09,1.26h1.26l5.06,0c3.38,0,6.75,0,10.12.06l10.12.13c3.38.08,6.75.13,10.13.23-3.38.11-6.75.16-10.13.23l-10.12.13c-3.37.06-6.74.05-10.12.07l-5.06,0h-1.26a5.33,5.33,0,0,1-1.37-.15,5.22,5.22,0,0,1-2.38-1.36,5.79,5.79,0,0,1-1.4-2.34,6.19,6.19,0,0,1-.27-1.32L657,250.1l-.62-5c-.4-3.35-.83-6.7-1.19-10.05C654.44,228.33,653.68,221.62,653,214.9Z" class="cls-63"/><g opacity=".82"><ellipse cx="767.51" cy="188.48" class="cls-2" rx="11.35" ry="10.44"/><ellipse cx="767.51" cy="188.48" class="cls-75" rx="11.35" ry="10.44"/><ellipse cx="764.65" cy="184.24" class="cls-76" rx="4.79" ry="4.41"/><ellipse cx="763.27" cy="182.62" class="cls-77" rx="2.12" ry="2.3" transform="translate(494.74 920.07) rotate(-83.45)"/><path d="M758.92,195.3a11.69,11.69,0,0,0,8.58,3.63c6.28,0,11.36-4.67,11.36-10.45a10.15,10.15,0,0,0-4.56-8.36,10,10,0,0,1,2.72,6.79c0,5.78-5.08,10.45-11.35,10.45A12,12,0,0,1,758.92,195.3Z" class="cls-78"/></g><rect width="18.33" height="1.69" x="758.44" y="195.84" class="cls-18" rx=".79"/><path d="M776.66,197l-16.56.55c-.91,0-1.66-.38-1.66-.85a.52.52,0,0,1,.19-.38C759.42,196.83,775.56,196.7,776.66,197Z" class="cls-79"/><polygon points="759.02 205.6 759.02 199.88 761.15 199.88 759.02 205.6" class="cls-18"/><polygon points="775.82 205.6 775.82 199.88 773.69 199.88 775.82 205.6" class="cls-18"/><polygon points="767.72 205.6 769.43 200.32 765.59 200.32 767.72 205.6" class="cls-18"/><path d="M761.15,199.88H759v.69a8.13,8.13,0,0,1,1.61.72Z" class="cls-79"/><path d="M775.82,201v-1.1h-2.13l.36,1C774.48,200.71,775.22,201.12,775.82,201Z" class="cls-79"/><path d="M769,201.54l.4-1.22h-3.84l.43,1.07A24.07,24.07,0,0,1,769,201.54Z" class="cls-79"/><rect width="24.69" height="3.3" x="755.26" y="197.03" fill="#4e63a1" rx="1.54"/><rect width="24.69" height="3.3" x="755.26" y="197.03" class="cls-18" rx="1.54"/><line x1="770.64" x2="778.34" y1="198.26" y2="198.26" class="cls-81"/><line x1="801.23" x2="748.27" y1="232.25" y2="232.25" class="cls-82"/><line x1="798.86" x2="766.61" y1="236.41" y2="236.41" class="cls-82"/><line x1="710.81" x2="726.77" y1="237.53" y2="237.53" fill="none" stroke="#da6054" stroke-linecap="round" stroke-miterlimit="10" stroke-width=".5"/><line x1="710.81" x2="734.2" y1="240.46" y2="240.46" class="cls-84"/><line x1="736.73" x2="740.84" y1="240.46" y2="240.46" class="cls-82"/><line x1="710.81" x2="731.51" y1="243.04" y2="243.04" class="cls-84"/><line x1="801.23" x2="748.27" y1="232.25" y2="232.25" class="cls-85"/><line x1="798.86" x2="766.61" y1="236.41" y2="236.41" class="cls-85"/><line x1="710.81" x2="726.77" y1="237.53" y2="237.53" class="cls-81"/><line x1="710.81" x2="734.2" y1="240.46" y2="240.46" class="cls-81"/><line x1="736.73" x2="740.84" y1="240.46" y2="240.46" class="cls-85"/><line x1="710.81" x2="731.51" y1="243.04" y2="243.04" class="cls-81"/><rect width="1.93" height="1.62" x="711.8" y="250.06" fill="#ed6052" rx=".81"/><rect width="1.49" height="1.62" x="711.8" y="250.06" fill="#eb776b" rx=".74"/><g class="cls-88"><ellipse cx="729.99" cy="276.52" class="cls-89" rx="75.21" ry="2.63"/><ellipse cx="729.99" cy="275.69" class="cls-90" rx="51.64" ry="1.8"/><ellipse cx="729.99" cy="275.15" class="cls-91" rx="28.96" ry="1.01"/></g><g class="cls-92"><ellipse cx="805.69" cy="261.46" class="cls-2" rx="8.9" ry="8.18"/><ellipse cx="805.69" cy="261.46" class="cls-75" rx="8.9" ry="8.18"/><ellipse cx="803.45" cy="258.14" class="cls-76" rx="3.75" ry="3.45"/><ellipse cx="802.37" cy="256.87" class="cls-77" rx="1.66" ry="1.81" transform="translate(455.6 1024.68) rotate(-83.45)"/><path d="M799,266.81a9.17,9.17,0,0,0,6.72,2.84c4.92,0,8.9-3.66,8.9-8.19a8,8,0,0,0-3.57-6.55,7.83,7.83,0,0,1,2.13,5.32c0,4.53-4,8.19-8.89,8.19A9.35,9.35,0,0,1,799,266.81Z" class="cls-78"/></g><g class="cls-92"><ellipse cx="820.73" cy="264.51" class="cls-2" rx="8.9" ry="8.18"/><ellipse cx="820.73" cy="264.51" class="cls-75" rx="8.9" ry="8.18"/><ellipse cx="818.49" cy="261.18" class="cls-76" rx="3.75" ry="3.45"/><ellipse cx="817.41" cy="259.92" class="cls-77" rx="1.66" ry="1.81" transform="translate(465.9 1042.32) rotate(-83.45)"/><path d="M814,269.85a9.17,9.17,0,0,0,6.72,2.84c4.92,0,8.9-3.66,8.9-8.19a8,8,0,0,0-3.57-6.55,7.85,7.85,0,0,1,2.13,5.33c0,4.52-4,8.18-8.89,8.18A9.35,9.35,0,0,1,814,269.85Z" class="cls-78"/></g><g class="cls-92"><ellipse cx="835.49" cy="261.99" class="cls-2" rx="8.9" ry="8.18"/><ellipse cx="835.49" cy="261.99" class="cls-75" rx="8.9" ry="8.18"/><ellipse cx="833.25" cy="258.67" class="cls-76" rx="3.75" ry="3.45"/><ellipse cx="832.17" cy="257.4" class="cls-77" rx="1.66" ry="1.81" transform="translate(481.48 1054.76) rotate(-83.45)"/><path d="M828.76,267.34a9.17,9.17,0,0,0,6.72,2.83c4.92,0,8.91-3.65,8.91-8.18a8,8,0,0,0-3.58-6.55,7.83,7.83,0,0,1,2.13,5.32c0,4.53-4,8.19-8.89,8.19A9.37,9.37,0,0,1,828.76,267.34Z" class="cls-78"/></g><g class="cls-92"><ellipse cx="851.37" cy="262.28" class="cls-2" rx="8.9" ry="8.18"/><ellipse cx="851.37" cy="262.28" class="cls-75" rx="8.9" ry="8.18"/><ellipse cx="849.14" cy="258.95" class="cls-76" rx="3.75" ry="3.45"/><ellipse cx="848.05" cy="257.69" class="cls-77" rx="1.66" ry="1.81" transform="translate(495.27 1070.79) rotate(-83.45)"/><path d="M844.65,267.62a9.16,9.16,0,0,0,6.72,2.84c4.92,0,8.9-3.66,8.9-8.19a8,8,0,0,0-3.57-6.55,7.85,7.85,0,0,1,2.13,5.33c0,4.52-4,8.18-8.9,8.18A9.34,9.34,0,0,1,844.65,267.62Z" class="cls-78"/></g><rect width="19.67" height="5.5" x="802.47" y="282.86" class="cls-62" rx="2.57"/><rect width="19.67" height="5.5" x="838.64" y="282.86" class="cls-62" rx="2.57"/><path d="M805.22,288.36a2.75,2.75,0,0,1-2.75-2.75h0a2.75,2.75,0,0,1,2.75-2.75h14.17a2.75,2.75,0,0,1,2.75,2.75h0C800.39,284.15,805.22,288.36,805.22,288.36Z" class="cls-63"/><path d="M841.39,288.36a2.75,2.75,0,0,1-2.75-2.75h0a2.75,2.75,0,0,1,2.75-2.75h14.17a2.75,2.75,0,0,1,2.75,2.75h0C836.36,284.63,841.39,288.36,841.39,288.36Z" class="cls-63"/><rect width="69.82" height="5.9" x="794.63" y="278.73" class="cls-62" rx="2.75"/><path d="M797.58,284.63a3,3,0,0,1-3-2.95h0a3,3,0,0,1,3-2.95H861.5a3,3,0,0,1,3,2.95h0C776.57,280.69,797.58,284.63,797.58,284.63Z" class="cls-63"/><rect width="83.18" height="14.54" x="786.36" y="266.99" class="cls-62" rx="7.27"/><path d="M861.18,281.51c-1.83-11.79,35-14.52-66-14.52h67c6.22.08,7.07,3.06,7.25,6.83h0A7.36,7.36,0,0,1,861.18,281.51Z" class="cls-62"/><line x1="795.41" x2="833" y1="269.3" y2="269.3" fill="none" stroke="#45ffe6" stroke-linecap="round" stroke-miterlimit="10" stroke-width=".75"/><line x1="861.89" x2="836.15" y1="272.8" y2="272.8" class="cls-94"/><line x1="846.17" x2="856.59" y1="277.04" y2="277.04" class="cls-94"/><line x1="858.31" x2="861.18" y1="277.04" y2="277.04" class="cls-94"/><circle cx="843.46" cy="277" r=".56" class="cls-95"/><circle cx="863.88" cy="277" r=".56" class="cls-95"/><g class="cls-88"><ellipse cx="827.95" cy="294.14" class="cls-89" rx="41.59" ry="2.63"/><ellipse cx="827.95" cy="293.32" class="cls-90" rx="28.56" ry="1.8"/><ellipse cx="827.95" cy="292.77" class="cls-91" rx="16.02" ry="1.01"/></g><path d="M588,260.08s13,23.27,33.53,23.27,36.27-23.27,36.27-23.27Z" class="cls-62"/><path d="M594.09,264.53c19.72,5.57,49.18,4.75,63.73-4.45,14.75-9.33-69.8,0-69.8,0s13,23.27,33.53,23.27c8.85,0,16.81-4.33,23-9.25-11.95,5-24.72,9.77-38.93.8-1.26-5.32-5.31-6.8-9-6.52C595.37,267.49,592.64,264.13,594.09,264.53Z" class="cls-63"/><path d="M662.68,256.32c-.16,4.78-18.95,9.31-39.76,9.31s-39.76-4.75-39.76-9.31c0-2.34,19-5,39.76-5S662.68,253.54,662.68,256.32Z" class="cls-96"/><ellipse cx="622.92" cy="256.32" class="cls-62" rx="39.76" ry="5.72"/><ellipse cx="622.92" cy="256.32" class="cls-65" rx="39.76" ry="5.72"/><path d="M662.68,256.32c0,.66-.66,1.1-1.19,1.41a11.39,11.39,0,0,1-1.75.78,29.9,29.9,0,0,1-3.7,1c-2.5.55-5,.95-7.57,1.28-5.09.62-10.2,1-15.31,1.19a260.12,260.12,0,0,1-30.71-.54,88.85,88.85,0,0,1-15.18-2.41,11.32,11.32,0,0,1-3.57-1.56,2,2,0,0,1-.66-.81,1.23,1.23,0,0,1,.17-1.09,4.42,4.42,0,0,1,1.63-1.15,34.26,34.26,0,0,1,7.45-2,185.75,185.75,0,0,1,30.63-1.9c-5.12,0-10.23.21-15.33.56a146.69,146.69,0,0,0-15.24,1.67,32.82,32.82,0,0,0-7.35,2,4.08,4.08,0,0,0-1.47,1,.82.82,0,0,0-.13.72,1.59,1.59,0,0,0,.55.64,10.91,10.91,0,0,0,3.44,1.47A88.1,88.1,0,0,0,602.5,261a256.79,256.79,0,0,0,30.64.7c5.11-.18,10.22-.51,15.3-1.1,2.54-.28,5.07-.64,7.57-1.15a31.6,31.6,0,0,0,3.71-1,11.4,11.4,0,0,0,1.76-.76C662,257.4,662.61,257,662.68,256.32Z" class="cls-70"/><ellipse cx="622.92" cy="254.66" class="cls-96" rx="28.22" ry="4.06"/><ellipse cx="621.31" cy="276.6" class="cls-96" rx="6.2" ry="3.47"/><path d="M626.61,277.11c0,1.63-2.37,3-5.3,3s-5.3-1.34-5.3-3a1.12,1.12,0,0,1,0-.36c.32,1.46,2.54,2.61,5.25,2.61s4.94-1.15,5.25-2.61A1.12,1.12,0,0,1,626.61,277.11Z" class="cls-97"/><path d="M626.56,276.75c-.31,1.46-2.54,2.61-5.25,2.61s-4.93-1.15-5.25-2.61c.32-1.48,2.54-2.61,5.25-2.61S626.25,275.27,626.56,276.75Z" class="cls-97"/><path d="M626.56,276.75c-.31,1.46-2.54,2.61-5.25,2.61s-4.93-1.15-5.25-2.61c.32-1.48,2.54-2.61,5.25-2.61S626.25,275.27,626.56,276.75Z" class="cls-95"/><g clip-path="url(#clip-path)"><g class="cls-92"><ellipse cx="633.79" cy="242.9" class="cls-2" rx="10.6" ry="9.75"/><ellipse cx="633.79" cy="242.9" class="cls-75" rx="10.6" ry="9.75"/><ellipse cx="631.12" cy="238.93" class="cls-76" rx="4.47" ry="4.11"/><ellipse cx="629.84" cy="237.43" class="cls-77" rx="1.98" ry="2.15" transform="translate(322.08 836.05) rotate(-83.45)"/><path d="M625.78,249.26a10.9,10.9,0,0,0,8,3.38c5.85,0,10.6-4.35,10.6-9.75a9.47,9.47,0,0,0-4.26-7.8,9.31,9.31,0,0,1,2.54,6.34c0,5.39-4.74,9.75-10.6,9.75A11.06,11.06,0,0,1,625.78,249.26Z" class="cls-78"/></g><g class="cls-92"><ellipse cx="615.11" cy="244" class="cls-2" rx="10.6" ry="9.75"/><ellipse cx="615.11" cy="244" class="cls-75" rx="10.6" ry="9.75"/><ellipse cx="612.44" cy="240.03" class="cls-76" rx="4.47" ry="4.11"/><ellipse cx="611.16" cy="238.52" class="cls-77" rx="1.98" ry="2.15" transform="translate(304.44 818.47) rotate(-83.45)"/><path d="M607.1,250.36a10.89,10.89,0,0,0,8,3.38c5.86,0,10.61-4.36,10.61-9.75a9.47,9.47,0,0,0-4.26-7.8,9.27,9.27,0,0,1,2.54,6.34c0,5.39-4.74,9.75-10.6,9.75A11.14,11.14,0,0,1,607.1,250.36Z" class="cls-78"/></g><g class="cls-92"><ellipse cx="606.19" cy="254.23" class="cls-2" rx="10.6" ry="9.75"/><ellipse cx="606.19" cy="254.23" class="cls-75" rx="10.6" ry="9.75"/><ellipse cx="603.53" cy="250.27" class="cls-76" rx="4.47" ry="4.11"/><ellipse cx="602.24" cy="248.76" class="cls-77" rx="1.98" ry="2.15" transform="translate(286.38 818.68) rotate(-83.45)"/><path d="M598.18,260.6a10.93,10.93,0,0,0,8,3.38c5.85,0,10.6-4.36,10.6-9.75a9.5,9.5,0,0,0-4.25-7.81,9.35,9.35,0,0,1,2.53,6.34c0,5.39-4.74,9.75-10.59,9.75A11.19,11.19,0,0,1,598.18,260.6Z" class="cls-78"/></g><g class="cls-92"><ellipse cx="639.85" cy="252.9" class="cls-2" rx="10.6" ry="9.75"/><ellipse cx="639.85" cy="252.9" class="cls-75" rx="10.6" ry="9.75"/><ellipse cx="637.18" cy="248.94" class="cls-76" rx="4.47" ry="4.11"/><ellipse cx="635.89" cy="247.43" class="cls-77" rx="1.98" ry="2.15" transform="translate(317.51 850.93) rotate(-83.45)"/><path d="M631.83,259.27a10.93,10.93,0,0,0,8,3.38c5.86,0,10.61-4.36,10.61-9.76a9.49,9.49,0,0,0-4.26-7.8,9.35,9.35,0,0,1,2.53,6.34c0,5.39-4.73,9.75-10.59,9.75A11.19,11.19,0,0,1,631.83,259.27Z" class="cls-78"/></g><g class="cls-92"><ellipse cx="623.54" cy="254.23" class="cls-2" rx="10.6" ry="9.75"/><ellipse cx="623.54" cy="254.23" class="cls-75" rx="10.6" ry="9.75"/><ellipse cx="620.88" cy="250.26" class="cls-76" rx="4.47" ry="4.11"/><ellipse cx="619.59" cy="248.76" class="cls-77" rx="1.98" ry="2.15" transform="translate(301.75 835.91) rotate(-83.45)"/><path d="M615.53,260.59a10.9,10.9,0,0,0,8,3.38c5.86,0,10.6-4.36,10.6-9.75a9.48,9.48,0,0,0-4.25-7.8,9.33,9.33,0,0,1,2.53,6.34c0,5.39-4.74,9.75-10.59,9.75A11.2,11.2,0,0,1,615.53,260.59Z" class="cls-78"/></g></g><rect width="1.41" height="1.21" x="635.4" y="277.82" class="cls-97" rx=".6" transform="translate(1272.21 556.86) rotate(180)"/><rect width="1.21" height="1.21" x="635.6" y="277.82" class="cls-95" rx=".6" transform="translate(1272.41 556.86) rotate(180)"/><path d="M636.25,278.43c11.28.13,23.54,15.76,39.52,1.65,2.79-2.47-2.83-4-1.59-.73a9.56,9.56,0,0,0,8.74,6.19c12,0,6.59-35.48,29.63-34.67" class="cls-94"/><ellipse cx="621.31" cy="275.02" class="cls-99" rx="2.24" ry=".64"/><ellipse cx="644.27" cy="273.09" class="cls-96" rx="4.86" ry="3.17" transform="translate(-43.7 400.99) rotate(-33.5)"/><path d="M646,275.71c-1.89,1.25-4.07,1.32-5,.16,1,.82,3,.66,4.67-.47,2-1.29,2.86-3.38,2-4.66a.86.86,0,0,0-.07-.1,1.64,1.64,0,0,1,.38.41C648.88,272.32,648,274.41,646,275.71Z" class="cls-97"/><path d="M645.71,275.4c-1.7,1.13-3.64,1.29-4.67.47a.64.64,0,0,1-.1-.13c-.85-1.27.06-3.36,2-4.65,1.71-1.13,3.65-1.3,4.69-.46h0a.86.86,0,0,1,.07.1C648.57,272,647.67,274.11,645.71,275.4Z" class="cls-95"/><ellipse cx="644.51" cy="270.94" class="cls-99" rx="1.37" ry=".39" transform="translate(-54.61 265.81) rotate(-22.38)"/><ellipse cx="600.05" cy="273.09" class="cls-96" rx="3.17" ry="4.86" transform="matrix(0.55, -0.83, 0.83, 0.55, 41.12, 622.72)"/><path d="M598.3,275.71c1.89,1.25,4.07,1.32,5,.16-1,.82-3,.66-4.67-.47-2-1.29-2.86-3.38-2-4.66a.86.86,0,0,1,.07-.1,1.64,1.64,0,0,0-.38.41C595.44,272.32,596.34,274.41,598.3,275.71Z" class="cls-97"/><path d="M598.61,275.4c1.7,1.13,3.64,1.29,4.67.47a.64.64,0,0,0,.1-.13c.85-1.27-.06-3.36-2-4.65-1.71-1.13-3.66-1.3-4.69-.46h0a.86.86,0,0,0-.07.1C595.75,272,596.65,274.11,598.61,275.4Z" class="cls-95"/><ellipse cx="599.81" cy="270.94" class="cls-99" rx=".39" ry="1.37" transform="translate(120.9 722.4) rotate(-67.62)"/><g class="cls-88"><ellipse cx="622.83" cy="302.16" class="cls-89" rx="39.67" ry="3.2"/><ellipse cx="622.83" cy="301.15" class="cls-90" rx="27.24" ry="2.2"/><ellipse cx="622.83" cy="300.49" class="cls-91" rx="15.28" ry="1.23"/></g></g></g></svg>