<svg xmlns="http://www.w3.org/2000/svg" viewBox="0 0 321.52 157.63"><defs><style>.cls-1{isolation:isolate;}.cls-16,.cls-2{fill:#3354d0;}.cls-10,.cls-2{opacity:0.5;}.cls-3{fill:#ee6e65;}.cls-4{fill:#df6049;}.cls-5{fill:#4165e2;}.cls-22,.cls-6{fill:#ed9926;}.cls-7{fill:#fff;}.cls-8{opacity:0.74;}.cls-9{fill:#2845b4;}.cls-10,.cls-13{mix-blend-mode:overlay;}.cls-11{fill:#f6fbfc;}.cls-12{fill:#213893;}.cls-13{opacity:0.3;}.cls-14{fill:#2b3078;}.cls-15{opacity:0.34;}.cls-17,.cls-24{fill:#e18a18;}.cls-18{opacity:0.38;}.cls-19{fill:#c4e6f7;}.cls-20{fill:#45ffe6;}.cls-21{fill:#f6a437;}.cls-22,.cls-23,.cls-24{fill-rule:evenodd;}.cls-23{fill:#f9b760;}.cls-25{fill:#fde9d2;}.cls-26{fill:#9edeff;}.cls-27{font-size:29.74px;fill:#ed8f80;font-family:MuseoSans-300, Museo Sans;font-weight:300;}.cls-28{fill:none;stroke:#ee7865;stroke-linecap:round;stroke-miterlimit:10;}</style></defs><g class="cls-1"><g id="Layer_2" data-name="Layer 2"><g id="Isolation_Mode" data-name="Isolation Mode"><path class="cls-2" d="M9.47,143.33c-29.71,8.09,14,15.29,82.7,14.19,68-1.09,66.61-6.26,134-3.58,143.7,5.72,117.31-20.51-28.1-22.43C116.81,130.44,32.86,137,9.47,143.33Z"/><path class="cls-3" d="M50.55,135.55a11.37,11.37,0,0,1-3.1-.41l.27-1c3.64,1,8.05-.05,12.12-2.9a51.8,51.8,0,0,0,6.77-6c1-1,2-2,3-2.91,12.06-11.26,29.86-17.71,48.83-17.71h0c17.86,0,35.31,5.31,52.2,10.45,4.68,1.42,9.53,2.9,14.3,4.23a321.48,321.48,0,0,0,42.56,8.83c8.43,1.16,18.2,2.2,27.48-.16,9.75-2.49,17.52-8.89,20.27-16.71,1.79-5.12,1.73-11.24-.18-18.19-1.6-5.84-3.93-10.24-7.11-13.47-4.7-4.76-11.88-7.4-20.22-7.44h-.17a43,43,0,0,0-29.24,11.63l-.68-.73a44,44,0,0,1,29.92-11.9h.17c8.61,0,16,2.79,20.93,7.74,3.31,3.35,5.72,7.9,7.37,13.9,2,7.15,2,13.47.15,18.79-2.86,8.13-10.89,14.78-21,17.35-9.46,2.4-19.34,1.36-27.87.18a320.26,320.26,0,0,1-42.69-8.86c-4.78-1.33-9.63-2.81-14.32-4.24-16.82-5.11-34.2-10.4-51.91-10.4h0c-18.72,0-36.27,6.35-48.15,17.44-1,.93-2,1.93-3,2.89a53.26,53.26,0,0,1-6.9,6.15A17.56,17.56,0,0,1,50.55,135.55Z"/><path class="cls-3" d="M49.09,135.11h0A2.48,2.48,0,0,1,46,136.78l-8.52-2.51c-1.3-.38.7-.94,1.08-2.24h0c.38-1.3-1-2.86.31-2.48l8.52,2.51A2.47,2.47,0,0,1,49.09,135.11Z"/><ellipse class="cls-4" cx="38.2" cy="131.91" rx="2.46" ry="1.44" transform="translate(-99.13 131.35) rotate(-73.61)"/><rect class="cls-5" x="34.88" y="128.68" width="1.97" height="5.01" transform="translate(-100.11 128.59) rotate(-73.61)"/><circle class="cls-5" cx="33.47" cy="130.48" r="0.99"/><path class="cls-4" d="M50.15,134.53a10.25,10.25,0,0,1-2.43-.35l-.27,1a11.37,11.37,0,0,0,3.1.41c.33,0,.67,0,1,0A3,3,0,0,1,50.15,134.53Z"/><path class="cls-6" d="M187.08,57.31a5.27,5.27,0,0,1-2-.41L144.07,40a5.35,5.35,0,0,1,4.08-9.89l41,16.91a5.35,5.35,0,0,1-2,10.3Z"/><path class="cls-7" d="M107.23,137.94h0C87,129.23,73,111.51,70.22,91.06l-6-43.9h0a135.12,135.12,0,0,1,60.37-6.76h0l6,43.91C133.36,104.75,124.54,125,107.23,137.94Z"/><g class="cls-8"><path class="cls-5" d="M108.55,137.55h0c-20.24-8.71-34.23-26.43-37-46.87l-6-43.91h0c19.2-6.79,40-8.51,60.45-6.16l5.89,43.31C134.68,104.37,125.86,124.64,108.55,137.55Z"/></g><path class="cls-9" d="M94.75,40.53a139.36,139.36,0,0,1,14.88-.76c5,0,9.94.26,14.9.67-5-.47-9.92-.78-14.9-.85a132.66,132.66,0,0,0-14.92.62A123.5,123.5,0,0,0,80,42.6a129,129,0,0,0-14.25,4.1l-.19.06,0,.18,3.51,26,1.78,13,.44,3.25.23,1.62.25,1.63a57,57,0,0,0,1.47,6.43,57.88,57.88,0,0,0,13.29,23.09,63.36,63.36,0,0,0,10.47,9,68.61,68.61,0,0,0,12.38,6.69,68.49,68.49,0,0,1-12.27-6.82,64.77,64.77,0,0,1-5.43-4.29,61.45,61.45,0,0,1-4.9-4.78A58.07,58.07,0,0,1,76,104.92a54.4,54.4,0,0,1-2.21-6.2,56,56,0,0,1-1.44-6.38l-.25-1.61-.22-1.63-.43-3.25-1.75-13L66.12,47.07a136.71,136.71,0,0,1,14-4.07A119.93,119.93,0,0,1,94.75,40.53Z"/><path class="cls-9" d="M93.91,85.81,92,71.35h0a46.14,46.14,0,0,1,11.88-2.43,46,46,0,0,0-13.31,2.51h0l2,14.45a19.88,19.88,0,0,0,12.37,15.41h0l.59-.45A19.82,19.82,0,0,1,93.91,85.81Z"/><g class="cls-10"><path class="cls-11" d="M71.53,90.61l-6-43.91h0a139.13,139.13,0,0,1,36.89-7.44,133.79,133.79,0,0,0-38.89,7.55h0l6,43.91c2.78,20.45,16.13,38.19,36.73,46.86l.86-.05-.86.05c.4-.29.8-.59,1.18-.89C87.76,127.78,74.24,110.5,71.53,90.61Z"/></g><path class="cls-12" d="M105.57,143.64a73.55,73.55,0,0,1-13.37-7.18,68.76,68.76,0,0,1-11.29-9.7A62.33,62.33,0,0,1,66.6,101.85,60.9,60.9,0,0,1,65,94.92l-.26-1.75-.24-1.75-.47-3.5c-.62-4.67-1.26-9.33-1.86-14l-1.81-14-1.76-14,2.06,14,2,14c.68,4.66,1.3,9.33,2,14l.48,3.5.24,1.75.27,1.73a62.13,62.13,0,0,0,1.58,6.87,60.74,60.74,0,0,0,5.54,13.08,65.3,65.3,0,0,0,8.54,11.69A71.59,71.59,0,0,0,105.57,143.64Z"/><path class="cls-9" d="M109.94,143.67A66.85,66.85,0,0,0,129,121.75a62.36,62.36,0,0,0,5.22-13.19,59.8,59.8,0,0,0,1.66-20.92l-.2-1.75-.22-1.75-.45-3.5c-.6-4.67-1.22-9.33-1.79-14l-1.75-14-1.68-14,2,14,1.92,14c.65,4.67,1.25,9.34,1.87,14l.47,3.5.23,1.75.21,1.76a61.83,61.83,0,0,1,.3,7.07,59.36,59.36,0,0,1-7.35,27.28A64.06,64.06,0,0,1,121,133.81a66.2,66.2,0,0,1-5.25,5.21A67.65,67.65,0,0,1,109.94,143.67Z"/><path class="cls-7" d="M106.29,101.21h0a19.91,19.91,0,0,1-12.38-15.4L92,71.35h0a46.27,46.27,0,0,1,20.25-2.26h0l2,14.45A18.77,18.77,0,0,1,106.29,101.21Z"/><path class="cls-5" d="M106.29,101.21h0a19.91,19.91,0,0,1-12.38-15.4L92,71.35h0a46.27,46.27,0,0,1,20.25-2.26h0l2,14.45A18.77,18.77,0,0,1,106.29,101.21Z"/><path class="cls-9" d="M109.75,87l-.49-4.72a2.29,2.29,0,0,0-2.3-2.16l-.19-1.63a3.85,3.85,0,0,0-1.32-2.5,3.17,3.17,0,0,0-2.54-.73,3.77,3.77,0,0,0-3,4.27l.18,1.48-.18,0a2.44,2.44,0,0,0-2,2.74l.5,4.73A2.28,2.28,0,0,0,101,90.69l6.82-.91A2.44,2.44,0,0,0,109.75,87Zm-8.89-7.61A2.77,2.77,0,0,1,103,76.28a2.34,2.34,0,0,1,1.87.54,2.8,2.8,0,0,1,1,1.84l.19,1.59-5,.67Zm3.68,6.29.08,1a.48.48,0,0,1-.39.51.44.44,0,0,1-.46-.43l-.07-1a1.25,1.25,0,1,1,1.47-1.16A1.27,1.27,0,0,1,104.54,85.71Z"/><g class="cls-13"><path class="cls-14" d="M106.18,119.42a44.49,44.49,0,0,1-8.36-4.93,43.35,43.35,0,0,1-6.95-6.5,42.68,42.68,0,0,1-8.64-16.26l-.53-2.22a11.07,11.07,0,0,1-.22-1.12l-.19-1.12c-.14-.75-.23-1.5-.33-2.25l-.31-2.24-1.24-9L77,55.83l0-.17.18-.07a80.7,80.7,0,0,1,9.7-2.88,84.66,84.66,0,0,1,10-1.69,82.24,82.24,0,0,1,10.17-.46,83.94,83.94,0,0,1,10.15.77,88.31,88.31,0,0,0-10.15-.59,90.12,90.12,0,0,0-10.13.58A85.44,85.44,0,0,0,87,53.1,87.5,87.5,0,0,0,77.34,56l.16-.24,2.47,18,1.21,9a70.12,70.12,0,0,0,1.53,8.9,43.18,43.18,0,0,0,8.42,16.19,44.76,44.76,0,0,0,15.05,11.61Z"/></g><g class="cls-15"><path class="cls-16" d="M72.7,94.8C75.61,103,79.63,111,86.27,117.86c22.37-23.24,35.45-52,39.28-83.7a145.05,145.05,0,0,0-67.65,7.6h0L65.08,94c1.55,11.78,7,21.52,13.91,30.93,2-1.79,3.85-3.61,5.69-5.46C80.25,113.46,74.67,105.47,72.7,94.8Z"/></g><path class="cls-16" d="M62.81,40.23,66.29,39l3.52-1.14c1.18-.35,2.37-.68,3.56-1s2.4-.61,3.6-.92a116.89,116.89,0,0,1,14.7-2.5,130.61,130.61,0,0,1,14.93-.62c1.25,0,2.49.05,3.74.11s2.49.11,3.73.19l3.72.3c1.24.11,2.47.24,3.71.37-1.24-.07-2.48-.14-3.72-.23l-3.73-.16c-1.24-.06-2.48-.08-3.72-.12s-2.49,0-3.73,0A139,139,0,0,0,91.74,34l-3.69.42-3.68.54-3.65.65-3.63.74c-1.21.29-2.41.55-3.61.85l-3.58.94-3.56,1Z"/><rect class="cls-6" x="183.69" y="47.22" width="9.91" height="83.73" rx="4.17"/><polygon class="cls-17" points="183.69 56.3 148.24 41.85 147.63 37.92 186.46 54.11 185.96 97.59 183.71 106.36 183.69 56.3"/><path class="cls-12" d="M143.21,139.09a.51.51,0,0,1-.41-.2q-1.49-2.05-2.91-4.07a.5.5,0,1,1,.81-.58q1.43,2,2.91,4.06a.49.49,0,0,1-.11.7A.52.52,0,0,1,143.21,139.09Zm-5.79-8.15a.5.5,0,0,1-.41-.22q-1.44-2.08-2.82-4.13a.51.51,0,0,1,.14-.7.5.5,0,0,1,.69.14q1.36,2,2.81,4.12a.51.51,0,0,1-.12.7A.52.52,0,0,1,137.42,130.94Zm-5.58-8.3a.51.51,0,0,1-.42-.23c-.92-1.42-1.83-2.82-2.7-4.21a.5.5,0,1,1,.85-.53q1.31,2.07,2.69,4.2a.5.5,0,0,1-.14.69A.57.57,0,0,1,131.84,122.64Zm-5.33-8.45a.51.51,0,0,1-.43-.25c-.88-1.45-1.74-2.88-2.56-4.3a.5.5,0,1,1,.86-.5q1.23,2.11,2.56,4.29a.51.51,0,0,1-.43.76Zm-5-8.64a.49.49,0,0,1-.43-.26q-1.25-2.24-2.39-4.4a.5.5,0,0,1,.21-.68.49.49,0,0,1,.67.21q1.14,2.16,2.38,4.39a.51.51,0,0,1-.19.68A.54.54,0,0,1,121.47,105.55Zm-4.66-8.85a.51.51,0,0,1-.45-.27c-.76-1.54-1.48-3.06-2.16-4.52a.5.5,0,0,1,.24-.67.51.51,0,0,1,.67.25c.67,1.45,1.39,3,2.15,4.49a.5.5,0,0,1-.23.67A.42.42,0,0,1,116.81,96.7Zm-4.18-9.08a.5.5,0,0,1-.46-.3c-.66-1.57-1.29-3.14-1.87-4.65a.5.5,0,0,1,.29-.65.49.49,0,0,1,.64.29c.58,1.51,1.2,3.06,1.86,4.62a.51.51,0,0,1-.26.66A.69.69,0,0,1,112.63,87.62Zm-3.54-9.34a.5.5,0,0,1-.48-.34c-.53-1.61-1-3.23-1.47-4.81a.5.5,0,0,1,1-.26c.43,1.56.92,3.16,1.45,4.75a.49.49,0,0,1-.31.63Zm-2.67-9.63a.5.5,0,0,1-.49-.39c-.36-1.69-.66-3.36-.9-5a.5.5,0,0,1,.43-.56.49.49,0,0,1,.56.42c.23,1.58.53,3.22.89,4.88a.5.5,0,0,1-.38.6ZM105,58.76a.5.5,0,0,1-.5-.47c-.06-1.07-.09-2.14-.09-3.17,0-.63,0-1.26,0-1.87a.51.51,0,0,1,.52-.48.5.5,0,0,1,.48.52q0,.9,0,1.83c0,1,0,2.06.09,3.11a.49.49,0,0,1-.47.53Zm.42-9.95h-.07a.5.5,0,0,1-.42-.57,36.52,36.52,0,0,1,1.13-4.93.5.5,0,1,1,1,.29,36.33,36.33,0,0,0-1.09,4.79A.51.51,0,0,1,105.43,48.81Zm2.93-9.51a.42.42,0,0,1-.22,0,.5.5,0,0,1-.23-.67,30.82,30.82,0,0,1,2.56-4.37.5.5,0,0,1,.69-.12.51.51,0,0,1,.13.7A29.27,29.27,0,0,0,108.81,39,.5.5,0,0,1,108.36,39.3Zm5.69-8.15a.52.52,0,0,1-.35-.14.5.5,0,0,1,0-.71,37.27,37.27,0,0,1,3.77-3.38.5.5,0,0,1,.61.79A35,35,0,0,0,114.41,31,.51.51,0,0,1,114.05,31.15ZM121.88,25a.52.52,0,0,1-.43-.24.51.51,0,0,1,.18-.69,46.77,46.77,0,0,1,4.46-2.35.5.5,0,1,1,.42.9c-1.53.72-3,1.49-4.37,2.31A.48.48,0,0,1,121.88,25Zm9-4.23a.5.5,0,0,1-.16-1c1.52-.55,3.14-1.07,4.79-1.54a.52.52,0,0,1,.62.35.51.51,0,0,1-.35.62c-1.63.46-3.22,1-4.73,1.51A.47.47,0,0,1,130.92,20.77Zm74.28-1.65h-.09c-1.29-.24-3-.52-4.92-.83a.51.51,0,0,1-.42-.57.5.5,0,0,1,.57-.42c2,.31,3.65.6,4.95.84a.5.5,0,0,1-.09,1ZM140.54,18a.49.49,0,0,1-.1-1c1.59-.35,3.25-.66,4.94-.93a.49.49,0,0,1,.57.41.49.49,0,0,1-.41.57c-1.67.27-3.32.58-4.89.92Zm54.78-.48h-.07c-1.55-.21-3.21-.42-5-.62a.5.5,0,0,1-.44-.55.51.51,0,0,1,.56-.44c1.75.2,3.42.41,5,.62a.5.5,0,0,1-.06,1Zm-44.91-1.12a.5.5,0,0,1-.06-1c1.63-.19,3.31-.34,5-.47a.5.5,0,0,1,.53.46.51.51,0,0,1-.46.54c-1.68.12-3.35.28-5,.47Zm35,0h0c-1.61-.14-3.27-.28-5-.4a.49.49,0,0,1-.46-.53.5.5,0,0,1,.53-.46c1.71.11,3.38.25,5,.4a.49.49,0,0,1,.45.54A.5.5,0,0,1,185.37,16.44Zm-10-.69h0c-1.64-.08-3.3-.13-5-.16a.51.51,0,0,1-.49-.51.53.53,0,0,1,.51-.49c1.69,0,3.37.08,5,.16a.5.5,0,0,1,0,1Zm-15-.07a.5.5,0,0,1,0-1c1.63-.06,3.32-.11,5-.12h0a.49.49,0,0,1,.5.49.5.5,0,0,1-.49.51c-1.69,0-3.37,0-5,.12Z"/><path class="cls-9" d="M183.8,61.18,201,107.72a5.3,5.3,0,0,1-2.7,6.85l-48.84,19.55a5.25,5.25,0,0,1-6.73-3.37L124.22,80.68a5.25,5.25,0,0,1,3-7l50.14-16A5.3,5.3,0,0,1,183.8,61.18Z"/><g class="cls-18"><path class="cls-16" d="M148.71,73.89H151a6,6,0,0,1,6,6v44.62a0,0,0,0,1,0,0H145.63a3,3,0,0,1-3-3V79.93a6,6,0,0,1,6-6Z" transform="translate(-25.07 57.94) rotate(-20.23)"/></g><circle class="cls-16" cx="167.06" cy="78.8" r="8.84"/><g class="cls-18"><circle class="cls-16" cx="178.7" cy="102.36" r="11.62"/></g><g id="Layer_2-2" data-name="Layer 2"><g id="Layer_8" data-name="Layer 8"><rect class="cls-9" x="163.15" y="72.45" width="89.73" height="41.99" rx="3.04" transform="translate(93.47 290.63) rotate(-84.04)"/><path class="cls-12" d="M182.12,132.79l8.69-83.2a3.73,3.73,0,0,1,4.08-3.31L230.61,50a3.73,3.73,0,0,1,3.31,4.09l-8.69,83.2a3.73,3.73,0,0,1-4.09,3.31l-35.71-3.73A3.73,3.73,0,0,1,182.12,132.79Zm12.63-85.16a2.36,2.36,0,0,0-2.59,2.1l-8.69,83.2a2.37,2.37,0,0,0,2.1,2.6l35.71,3.73a2.37,2.37,0,0,0,2.6-2.1L232.57,54a2.37,2.37,0,0,0-2.1-2.6Z"/><path class="cls-12" d="M185.32,102.16l1.76.18a2,2,0,0,0,2.15-1.74l2.23-21.37a2,2,0,0,0-1.74-2.15L188,76.9Z"/><rect class="cls-9" x="181.68" y="76.08" width="89.73" height="38.6" rx="3.04" transform="translate(108.14 310.79) rotate(-84.04)"/><path class="cls-5" d="M202.33,134.9,211,51.71a3.72,3.72,0,0,1,4.08-3.32l32.35,3.38a3.73,3.73,0,0,1,3.31,4.09l-8.69,83.2a3.74,3.74,0,0,1-4.09,3.31L205.64,139A3.72,3.72,0,0,1,202.33,134.9ZM215,49.74a2.37,2.37,0,0,0-2.6,2.11L203.67,135a2.37,2.37,0,0,0,2.11,2.6L238.12,141a2.37,2.37,0,0,0,2.6-2.11l8.69-83.19a2.37,2.37,0,0,0-2.1-2.6Z"/><path class="cls-16" d="M212.33,52.21,211.1,64l12,1.25a.75.75,0,0,0,.56-.16l.63-.51a.75.75,0,0,1,.56-.17l7.51.79a.75.75,0,0,1,.52.28l.5.62a.77.77,0,0,0,.52.28l10,1h0A1.62,1.62,0,0,0,245.62,66l.89-8.59a1.6,1.6,0,0,0-1.43-1.75Z"/><path class="cls-16" d="M210.92,65.68l-1.23,11.77,12,1.25a.78.78,0,0,0,.57-.17l.62-.5a.78.78,0,0,1,.57-.17l7.51.78a.73.73,0,0,1,.51.28l.51.63a.79.79,0,0,0,.52.28l10,1h0a1.61,1.61,0,0,0,1.77-1.43l.9-8.59a1.61,1.61,0,0,0-1.44-1.75Z"/><path class="cls-16" d="M209.51,79.15l-1.23,11.77,12,1.25a.76.76,0,0,0,.56-.17l.62-.5a.78.78,0,0,1,.57-.17l7.51.78a.78.78,0,0,1,.52.29l.5.62a.77.77,0,0,0,.52.28l10,1a1.6,1.6,0,0,0,1.76-1.43l.9-8.59a1.61,1.61,0,0,0-1.44-1.75Z"/><circle class="cls-9" cx="218.07" cy="83.6" r="0.85"/><path class="cls-16" d="M208.11,92.62l-1.23,11.77,12,1.25a.75.75,0,0,0,.56-.17l.63-.5a.75.75,0,0,1,.56-.17l7.51.78a.83.83,0,0,1,.52.29l.5.62a.77.77,0,0,0,.52.28l10,1h0a1.6,1.6,0,0,0,1.76-1.43l.9-8.59A1.61,1.61,0,0,0,240.86,96Z"/><path class="cls-16" d="M206.7,106.09l-1.23,11.77,12,1.25a.79.79,0,0,0,.57-.17l.62-.5a.76.76,0,0,1,.56-.17l7.51.79a.75.75,0,0,1,.52.28l.51.62a.73.73,0,0,0,.51.28l10,1h0a1.61,1.61,0,0,0,1.77-1.43l.89-8.59a1.6,1.6,0,0,0-1.43-1.75Z"/><path class="cls-16" d="M205.29,119.56l-1.23,11.77,12,1.25a.77.77,0,0,0,.57-.16l.62-.51a.78.78,0,0,1,.57-.17l7.51.79a.77.77,0,0,1,.52.28l.5.62a.75.75,0,0,0,.52.28l10,1h0a1.59,1.59,0,0,0,1.77-1.43l.9-8.59A1.62,1.62,0,0,0,238,123Z"/><circle class="cls-9" cx="239.55" cy="86.53" r="0.51"/><circle class="cls-9" cx="239.2" cy="89.89" r="0.51"/><circle class="cls-9" cx="235.51" cy="86.1" r="0.51"/><circle class="cls-9" cx="235.16" cy="89.47" r="0.51"/><circle class="cls-9" cx="237.36" cy="88" r="0.51"/><circle class="cls-9" cx="231.47" cy="85.68" r="0.51"/><circle class="cls-9" cx="231.12" cy="89.05" r="0.51"/><circle class="cls-9" cx="233.32" cy="87.58" r="0.51"/><path class="cls-19" d="M228.76,87.39v0Z"/><path class="cls-19" d="M240.57,98.42l0-.08Z"/><path class="cls-19" d="M231,138.59h0Z"/><path class="cls-5" d="M222.82,140.78l12.46,1.3a.67.67,0,1,0,.14-1.34L223,139.44a.67.67,0,0,0-.14,1.34Z"/><path class="cls-5" d="M205.18,101.85a.67.67,0,0,0,.74-.6l1-9.09a.68.68,0,1,0-1.35-.14l-1,9.09A.69.69,0,0,0,205.18,101.85Z"/><path class="cls-5" d="M208.58,68.48a.68.68,0,0,0,.75-.6l.95-9.1a.68.68,0,0,0-1.35-.14l-1,9.1A.67.67,0,0,0,208.58,68.48Z"/><circle class="cls-9" cx="240.96" cy="73.05" r="0.51"/><circle class="cls-9" cx="240.61" cy="76.42" r="0.51"/><circle class="cls-9" cx="236.92" cy="72.63" r="0.51"/><circle class="cls-9" cx="236.57" cy="76" r="0.51"/><circle class="cls-9" cx="238.76" cy="74.53" r="0.51"/><circle class="cls-9" cx="232.88" cy="72.21" r="0.51"/><circle class="cls-9" cx="232.53" cy="75.58" r="0.51"/><circle class="cls-9" cx="234.72" cy="74.11" r="0.51"/><circle class="cls-9" cx="242.37" cy="59.58" r="0.51"/><circle class="cls-9" cx="242.02" cy="62.95" r="0.51"/><circle class="cls-9" cx="238.33" cy="59.16" r="0.51"/><circle class="cls-9" cx="237.97" cy="62.53" r="0.51"/><circle class="cls-9" cx="240.17" cy="61.06" r="0.51"/><circle class="cls-9" cx="234.29" cy="58.74" r="0.51"/><circle class="cls-9" cx="233.93" cy="62.11" r="0.51"/><circle class="cls-9" cx="236.13" cy="60.63" r="0.51"/><circle class="cls-9" cx="238.15" cy="100" r="0.51"/><circle class="cls-9" cx="237.79" cy="103.36" r="0.51"/><circle class="cls-9" cx="234.1" cy="99.57" r="0.51"/><circle class="cls-9" cx="233.75" cy="102.94" r="0.51"/><circle class="cls-9" cx="235.95" cy="101.47" r="0.51"/><circle class="cls-9" cx="230.06" cy="99.15" r="0.51"/><circle class="cls-9" cx="229.71" cy="102.52" r="0.51"/><circle class="cls-9" cx="231.91" cy="101.05" r="0.51"/><path class="cls-20" d="M215.27,56.58a1.36,1.36,0,0,1,1.49-1.2A1.34,1.34,0,0,1,218,56.86a1.36,1.36,0,1,1-2.7-.28Zm.34,0a1,1,0,1,0,1.12-.91A1,1,0,0,0,215.61,56.62Z"/><path class="cls-9" d="M215.19,60.66a1,1,0,1,1,.9,1.12A1,1,0,0,1,215.19,60.66Zm.34,0a.67.67,0,1,0,.74-.6A.67.67,0,0,0,215.53,60.69Z"/><path class="cls-9" d="M213.87,70.05a1.35,1.35,0,1,1,1.2,1.49A1.35,1.35,0,0,1,213.87,70.05Zm.33,0a1,1,0,0,0,.91,1.11,1,1,0,0,0,1.11-.9,1,1,0,0,0-.9-1.12A1,1,0,0,0,214.2,70.09Z"/><path class="cls-9" d="M213.78,74.13a1,1,0,0,1,2,.21,1,1,0,1,1-2-.21Zm.34,0a.67.67,0,0,0,.6.74.68.68,0,0,0,.75-.6.69.69,0,0,0-.61-.75A.67.67,0,0,0,214.12,74.17Z"/><path class="cls-3" d="M212.46,83.53A1.35,1.35,0,1,1,213.67,85,1.35,1.35,0,0,1,212.46,83.53Zm.34,0a1,1,0,0,0,.9,1.12,1,1,0,0,0,1.12-.91,1,1,0,0,0-2-.21Z"/><path class="cls-20" d="M212.37,87.6a1,1,0,0,1,1.12-.9,1,1,0,1,1-1.12.9Zm.34,0a.68.68,0,0,0,1.35.14.68.68,0,1,0-1.35-.14Z"/><path class="cls-9" d="M211.05,97a1.36,1.36,0,0,1,1.49-1.21,1.37,1.37,0,0,1,1.21,1.49,1.36,1.36,0,0,1-2.7-.28Zm.34,0a1,1,0,1,0,1.12-.9A1,1,0,0,0,211.39,97Z"/><path class="cls-9" d="M211,101.07a1,1,0,1,1,.9,1.12A1,1,0,0,1,211,101.07Zm.33,0a.69.69,0,0,0,.61.74.67.67,0,0,0,.14-1.34A.68.68,0,0,0,211.3,101.11Z"/><circle class="cls-9" cx="216.56" cy="98.08" r="0.85"/><path class="cls-20" d="M209.65,110.47a1.35,1.35,0,1,1,2.69.28,1.37,1.37,0,0,1-1.49,1.21A1.36,1.36,0,0,1,209.65,110.47Zm.33,0a1,1,0,1,0,2,.21,1,1,0,0,0-.9-1.11A1,1,0,0,0,210,110.5Z"/><path class="cls-9" d="M209.56,114.54a1,1,0,1,1,.9,1.12A1,1,0,0,1,209.56,114.54Zm.34,0a.67.67,0,1,0,.74-.6A.67.67,0,0,0,209.9,114.58Z"/><path class="cls-9" d="M208.24,123.94a1.35,1.35,0,1,1,1.2,1.49A1.37,1.37,0,0,1,208.24,123.94Zm.33,0a1,1,0,1,0,1.12-.9A1,1,0,0,0,208.57,124Z"/><path class="cls-21" d="M208.15,128a1,1,0,1,1,.91,1.11A1,1,0,0,1,208.15,128Zm.34,0a.67.67,0,0,0,.6.74.67.67,0,1,0,.14-1.34A.67.67,0,0,0,208.49,128.05Z"/><path class="cls-21" d="M231.56,144.41c5.09.53,10.17-1,12.92-4.21,3.18-3.71,2.89-9-.83-14.93a.34.34,0,1,0-.57.36c3.54,5.64,3.86,10.66.89,14.13-3.57,4.17-11.29,5.32-17.57,2.62s-9.65-8.69-8.86-16.28L220.06,102a3.66,3.66,0,0,0-3.47-4.28.33.33,0,0,0-.37.3.34.34,0,0,0,.3.38,3,3,0,0,1,2.87,3.53L216.87,126c-.82,7.9,2.55,14.09,9.27,17A19.08,19.08,0,0,0,231.56,144.41Z"/></g></g><path class="cls-22" d="M115.54,98c-4.65,0-9.08.36-12.06,2.49s-4.23,4.93-3.39,7.66c5,16.29-13.89,10.17-9.57,24.22,1.36,4.41,23.22,14.52,30.75,14.52,31.6,0,97.93,1.86,121.46,1.86a5.37,5.37,0,0,0,5.11-3.72l14-38.27c.94-2.54,2.38-8.3-2.21-8.4l-28.94-.56L116.1,97.28Z"/><path class="cls-23" d="M236.32,107.46,226.25,148.4S121.42,147,75.89,146.86a7.32,7.32,0,0,1-6.93-5L56.16,104A5.63,5.63,0,0,1,61.66,97c11,0,24.82.1,40,.14l37.82.16,6.95,0,5.19,0c36.81.14,63.59.28,77.1.36A7.85,7.85,0,0,1,236.32,107.46Z"/><path class="cls-24" d="M152.35,97.36V111c0,2.94-2.73,5.34-6.07,5.34h0c-3.34,0-6.07-2.4-6.07-5.34V97.33"/><rect class="cls-6" x="140.62" y="29.94" width="9.91" height="83.73" rx="4.17"/><path class="cls-25" d="M150.53,40.85c.2,4,.3,7.93.38,11.89s.07,7.93.11,11.89,0,7.93-.11,11.89l-.14,6c-.08,2-.13,4-.24,5.94-.12-2-.17-4-.25-5.94l-.14-6c-.08-4-.07-7.92-.11-11.89s0-7.92.11-11.89S150.32,44.82,150.53,40.85Z"/><path class="cls-9" d="M256.67,31a118.91,118.91,0,0,0-49.56-8.31c-2.85-2.67-3.29-15.22-3.29-15.22C221.58-2.26,256.67,31,256.67,31Z"/><path class="cls-12" d="M256.51,31a119,119,0,0,0-49.4-8.25c-1.48-1.39-2.31-5.43-2.77-9A165.44,165.44,0,0,1,256.51,31Z"/><path class="cls-5" d="M254.08,28.66,226.38.29c-12.06-2-22.56,7.19-22.56,7.19C229.94,12.43,254.08,28.66,254.08,28.66Z"/><path class="cls-5" d="M174.54,31.71c3.46-7.86,14.52-17.06,14.52-17.06C226.25,14.94,256.59,31,256.59,31,235.26,24.1,174.54,31.71,174.54,31.71Z"/><path class="cls-26" d="M245.68,22.29q-5.09-5-10.1-10l-5-5.07-5-5.1.12.06a16.72,16.72,0,0,0-4.3-.11,18.75,18.75,0,0,0-4.22.93,26.31,26.31,0,0,0-7.64,4.12,24.36,24.36,0,0,1,3.57-2.55,22.85,22.85,0,0,1,4-1.87,19,19,0,0,1,4.28-1,17.22,17.22,0,0,1,4.42.08h.07l.06.06,5,5.08L235.89,12Q240.83,17.08,245.68,22.29Z"/><path class="cls-26" d="M188.84,16.69a146.41,146.41,0,0,1,15.24.73c2.54.2,5,.62,7.57.94s5,.79,7.52,1.3c5,1,10,2.17,14.84,3.59a135.57,135.57,0,0,1,14.42,5c-4.77-1.78-9.63-3.26-14.53-4.6s-9.83-2.52-14.82-3.47c-2.48-.53-5-.91-7.5-1.34s-5-.75-7.54-1c-1.27-.13-2.52-.3-3.79-.41l-3.8-.29c-1.26-.13-2.53-.19-3.8-.24Z"/><path class="cls-9" d="M241.37,13.7c1.41,1.36,2.76,2.78,4.12,4.21s2.67,2.87,3.93,4.38c-1.41-1.36-2.76-2.79-4.12-4.21S242.63,15.2,241.37,13.7Z"/><circle class="cls-7" cx="71.34" cy="51.59" r="1.39"/><path class="cls-9" d="M60.49,58.51c-1.73,1.18-3.45,2.35-5.06,3.65a19.66,19.66,0,0,0-4.31,4.33c-.52.81-.92,1.82-.46,2.44a1.84,1.84,0,0,0,1,.65,5.47,5.47,0,0,0,1.44.17,18.08,18.08,0,0,0,6-.74,14.63,14.63,0,0,0,5.25-2.93,19.77,19.77,0,0,0,3.84-4.73A27.89,27.89,0,0,0,70.7,55.7a28.29,28.29,0,0,0,.78-3,4.1,4.1,0,0,0,.11-.76c0-.23,0-.56-.27-.55-.46.13-.79.63-1.11,1,.31-.41.56-.91,1.1-1.12a.34.34,0,0,1,.35.25,1.15,1.15,0,0,1,.08.41,5.16,5.16,0,0,1,0,.79,27.11,27.11,0,0,1-.58,3.09,25.91,25.91,0,0,1-2.25,5.9A16.48,16.48,0,0,1,59.44,70a17.48,17.48,0,0,1-6.34.72,6.12,6.12,0,0,1-1.66-.22,2.77,2.77,0,0,1-1.51-1,2.24,2.24,0,0,1-.24-1.85,4.82,4.82,0,0,1,.76-1.52,20,20,0,0,1,4.67-4.29A52.51,52.51,0,0,1,60.49,58.51Z"/><path class="cls-4" d="M57,83.27l-.88-12.89a6,6,0,0,0-9.37-4.62L36,72.91a6,6,0,0,0-2.07,2.36L21.33,100.8a6,6,0,0,0,2.74,8.09l11.63,5.73a6,6,0,0,0,8.09-2.74l12.6-25.53A6.09,6.09,0,0,0,57,83.27ZM50,71.09a2,2,0,1,1,2.65-.9A2,2,0,0,1,50,71.09Z"/><path class="cls-3" d="M57.57,83.69,56.7,70.81a6,6,0,0,0-9.37-4.63L36.58,73.33a6.08,6.08,0,0,0-2.08,2.36L21.91,101.22a6,6,0,0,0,2.74,8.09l11.63,5.74a6,6,0,0,0,8.09-2.75L57,86.77A5.87,5.87,0,0,0,57.57,83.69Zm-7-12.17a2,2,0,1,1,2.65-.9A2,2,0,0,1,50.53,71.52Z"/><text class="cls-27" transform="matrix(0.91, 0.43, -0.43, 0.91, 26.03, 101.97)">$</text><path class="cls-9" d="M71.66,51.52a.34.34,0,0,0-.35-.25c-.54.21-.79.71-1.1,1.12.32-.38.65-.88,1.11-1,.23,0,.26.32.27.55a4.1,4.1,0,0,1-.11.76,28.29,28.29,0,0,1-.78,3,27.89,27.89,0,0,1-2.47,5.65,19.77,19.77,0,0,1-3.84,4.73A14.63,14.63,0,0,1,59.14,69a18.08,18.08,0,0,1-6,.74,5.39,5.39,0,0,1-1.43-.17,4.61,4.61,0,0,1-1.5.17,3.18,3.18,0,0,0,1.23.7,6.12,6.12,0,0,0,1.66.22A17.48,17.48,0,0,0,59.44,70a16.48,16.48,0,0,0,9.42-8.24,25.91,25.91,0,0,0,2.25-5.9,27.11,27.11,0,0,0,.58-3.09,5.21,5.21,0,0,0,0-.8A1.14,1.14,0,0,0,71.66,51.52Z"/><path class="cls-28" d="M218.17,83.6c10.85-10.27,28.34-15.45,42.5-9.45,13.91,5.9,20.76,26.75,13.84,40.09-3.67,7.06-10.89,11.79-18.4,13.94"/></g></g></g></svg>