<svg xmlns="http://www.w3.org/2000/svg" viewBox="0 0 137.56 137.56"><defs><style>.cls-1{fill:#5074ef;opacity:0.15;}.cls-2,.cls-9{fill:#213893;}.cls-3{fill:#4165e2;}.cls-4{fill:#ed9926;}.cls-5{fill:#f9b760;}.cls-6{fill:#fbd9aa;}.cls-7{opacity:0.4;}.cls-8{opacity:0.46;}.cls-9{opacity:0.25;}</style></defs><g id="Layer_2" data-name="Layer 2"><g id="Isolation_Mode" data-name="Isolation Mode"><path class="cls-1" d="M137.56,68.78A68.88,68.88,0,0,1,87.27,135h0a68.83,68.83,0,0,1-67.6-18.12,66.32,66.32,0,0,1-5.39-6.2A68.78,68.78,0,1,1,137.56,68.78Z"/><path class="cls-2" d="M119,36a4,4,0,0,1,3.91,3.73v63.76a4.43,4.43,0,0,1-3.91,4.2l-98.42,5.45c-2.06.1-5.13-.92-5.13-3.49V34.27c-.06-2.05,2.41-4.41,4.46-4.41C20.42,29.86,119,36,119,36Z"/><path class="cls-3" d="M21.65,30,119.07,36a4,4,0,0,1,3.82,3.72v63.77a4.39,4.39,0,0,1-3.82,4.19l-97.42,5.42a3.7,3.7,0,0,1-3.82-3.86V33.8A3.68,3.68,0,0,1,21.65,30Z"/><polygon class="cls-4" points="93.56 102.66 32.46 101.2 32.79 24.37 108.17 25.91 93.56 102.66"/><polygon class="cls-5" points="101.81 94.86 32.46 101.2 37.33 30.2 114.53 30.63 101.81 94.86"/><polygon class="cls-6" points="107.37 101.33 33.63 102.51 41.55 36.43 119 34.93 107.37 101.33"/><path class="cls-2" d="M30.57,36.87,80,40A6.6,6.6,0,0,1,85.9,44.5h0A6.59,6.59,0,0,0,91.76,49l33.13,2.08a4,4,0,0,1,3.82,3.71L122,102.68a4.39,4.39,0,0,1-3.82,4.19l-97.42,5.42A3.7,3.7,0,0,1,17,108.43l9.8-67.71A3.68,3.68,0,0,1,30.57,36.87Z"/><path class="cls-3" d="M31.45,37.72l49.46,3.09a6.61,6.61,0,0,1,5.87,4.54h0a6.6,6.6,0,0,0,5.86,4.54L125.76,52a4,4,0,0,1,3.82,3.71l-6.69,47.86a4.39,4.39,0,0,1-3.82,4.19l-97.42,5.42a3.7,3.7,0,0,1-3.82-3.86l9.8-67.71A3.68,3.68,0,0,1,31.45,37.72Z"/><path class="cls-5" d="M73.49,98.56h0c-7-4.78-11.12-12.17-10.74-19.65l.89-16h0a69,69,0,0,1,26.54.47h0L87.71,80.25A24,24,0,0,1,73.49,98.56Z"/><path class="cls-4" d="M63.55,79l.94-16h0a74.56,74.56,0,0,1,16.54-1,71,71,0,0,0-17.4.89h0l-.89,16c-.38,7.47,3.51,14.83,10.64,19.62l.32,0-.32,0,.52-.23C67.13,93.52,63.16,86.31,63.55,79Z"/><path class="cls-6" d="M72.4,100.52a29.65,29.65,0,0,1-4.13-3.25,29.26,29.26,0,0,1-3.55-4,23.21,23.21,0,0,1-4.28-9.9A22.8,22.8,0,0,1,60.27,78c.09-1.75.16-3.5.28-5.26.22-3.5.46-7,.77-10.48,0,3.49-.14,7-.26,10.5,0,1.76-.13,3.52-.2,5.27a21.67,21.67,0,0,0,.21,5.22,23,23,0,0,0,4,9.7A31.55,31.55,0,0,0,72.4,100.52Z"/><path class="cls-6" d="M74,100.9a28.63,28.63,0,0,0,8.51-6.17,25.91,25.91,0,0,0,5.83-9.49,26.46,26.46,0,0,0,1.27-5.5c.3-1.87.58-3.73.92-5.6.64-3.72,1.31-7.44,2.06-11.14-.47,3.71-1,7.43-1.56,11.16-.25,1.87-.56,3.74-.83,5.62A27.39,27.39,0,0,1,89,85.41a25.73,25.73,0,0,1-6.11,9.68,26.74,26.74,0,0,1-4.2,3.45A27.21,27.21,0,0,1,74,100.9Z"/><g class="cls-7"><path class="cls-6" d="M64.24,80a22.1,22.1,0,0,0,3.61,9.21c10.82-6.93,18.25-16.37,23.46-28a75.25,75.25,0,0,0-30-.38h0l-.86,18.9c-.21,4.28,1.27,8.12,3.28,12,.89-.49,2.51-1.47,3.37-2C65.84,87.14,64.23,83.89,64.24,80Z"/></g><g class="cls-8"><path class="cls-4" d="M74.68,91.66a17.67,17.67,0,0,1-4-3.67,15.66,15.66,0,0,1-2.62-4.88,13.75,13.75,0,0,1-.65-5.51l.36-5.48L68,69.39,68.08,68l0-.69,0-.34v-.32h0l.25-.26a40,40,0,0,1,5.87-.61,38.24,38.24,0,0,1,11.5,1.31,38.72,38.72,0,0,0-5.7-.8,43.28,43.28,0,0,0-5.81-.06,51.17,51.17,0,0,0-5.78.68c.49-.51.14-.13.25-.24h0V67l0,.34,0,.68-.1,1.37-.19,2.73L68,77.62A14.2,14.2,0,0,0,68.48,83,16.85,16.85,0,0,0,74.68,91.66Z"/></g><path class="cls-9" d="M72.18,122c15-.29,27.22,1.21,28,3.43-.45,2.11-12.24,4-26.35,4.27l-1.45,0c-15,.27-27.23-1.24-28-3.46.23-2.07,11.64-4,25.47-4.23C70.63,122,71.4,122,72.18,122Z"/></g></g></svg>