<svg xmlns="http://www.w3.org/2000/svg" viewBox="0 0 137.56 145.39"><defs><style>.cls-1{fill:#5074ef;opacity:0.15;}.cls-2,.cls-6{fill:#213893;}.cls-3{fill:#4165e2;}.cls-4{fill:#294e95;opacity:0.64;}.cls-5{fill:none;stroke:#54c2e8;stroke-linecap:round;stroke-miterlimit:10;}.cls-6{opacity:0.25;}.cls-7{fill:#f9b760;}.cls-8{fill:#ed9926;}.cls-9{fill:#fbd9aa;}.cls-10{fill:#325596;}</style></defs><g id="Layer_2" data-name="Layer 2"><g id="Isolation_Mode" data-name="Isolation Mode"><path class="cls-1" d="M137.56,76.61a68.88,68.88,0,0,1-50.29,66.26h0a68.83,68.83,0,0,1-67.6-18.12,66.32,66.32,0,0,1-5.39-6.2A68.78,68.78,0,1,1,137.56,76.61Z"/><polygon class="cls-2" points="60.4 105.27 64.48 106.01 100.79 96.65 104.88 73.74 100.79 73 61.5 81.38 60.4 105.27"/><polygon class="cls-3" points="64.48 106.01 104.88 97.39 117.65 84.23 104.88 73.74 64.48 82.36 64.48 106.01"/><polygon class="cls-4" points="113.58 80.88 107.47 84.4 76.87 78.1 100.79 73 104.87 73.74 113.58 80.88"/><line class="cls-5" x1="88.87" y1="88.99" x2="77.4" y2="91.47"/><line class="cls-5" x1="87.7" y1="86.05" x2="80.19" y2="87.68"/><polygon class="cls-2" points="73.03 73.05 68.95 73.77 32.64 64.76 28.56 42.71 32.64 42 71.93 50.06 73.03 73.05"/><polygon class="cls-3" points="68.95 73.77 28.56 65.47 14.63 51.63 28.56 42.71 68.95 51.01 68.95 73.77"/><line class="cls-5" x1="33.1" y1="55" x2="56.03" y2="59.77"/><line class="cls-5" x1="33.1" y1="50.97" x2="56.03" y2="55.73"/><line class="cls-5" x1="48.52" y1="61.48" x2="56.03" y2="63.04"/><path class="cls-6" d="M105.34,128.59a11.58,11.58,0,0,0-11.07,5.72c0-1.32-1.43-2.27-2.75-2.24a5.07,5.07,0,0,0-2.1.6c1.82-1.19,8.29-6.14,4.33-8-5.7-2.73-10.83,4.68-12.47,6.34,1-1.33,2.12-3.21,1.11-4.53-1.92-2.53-4.36-.2-4.8.18,1.15-1.24,4.16-6.6,3.36-7.82-2.88-4.44-8.07,2-9.69,5-.57-1.54-1.6-3.39-3.24-3.2a3.55,3.55,0,0,0-2.16,1.55,31.49,31.49,0,0,0-5.5,10.51l-.4.21c-.46-2.79,2.68-15.74-2.22-10.71-2.59,2.66-2.57,6.51-3.09,8.79h-.16c.14-3.77,2.37-15-3.45-13.6-4.61,1.1-.7,11.54-1.76,14.61l-.09,0c-.08-1.36-.77-7.45-2.24-7.63s-2.5,5.7-3.17,6.75c0,0,1.32-3.9-.59-4.65-2.14-.83-3.46,1.58-4.45,2.51,1.85-2.14,4.84-6.47,3.78-9.54-1.65-4.81-7.3,3.51-8.33,5.86a20.43,20.43,0,0,0,.83-8.61c-.25-2-1.05-4.33-3-5A4.23,4.23,0,0,0,27.59,113a8.59,8.59,0,0,0-1.81,4.54,18.46,18.46,0,0,0,.59,7.75c-.1,0-3.72-9.61-7.35-7-2.59,1.86.11,5.77,1,6.78a68.82,68.82,0,0,0,67.27,17.79h0a68.12,68.12,0,0,0,21.27-10.15C111.22,130.38,107.12,128.78,105.34,128.59Z"/><path class="cls-7" d="M72.79,13.85V145.28c-1.32.07-2.64.11-4,.11q-3.23,0-6.37-.3h-.07V13.85Z"/><rect class="cls-8" x="62.37" y="13.86" width="10.43" height="11.67"/><polygon class="cls-8" points="76.92 28.99 58.74 29.02 62.37 38.91 72.8 38.91 76.92 28.99"/><rect class="cls-7" x="58.28" y="23.35" width="19.09" height="7.67" rx="3.63"/><ellipse class="cls-7" cx="67.59" cy="8.87" rx="9.04" ry="8.87"/><path class="cls-9" d="M68.87,1.56c-1.69-.26-4.16.89-1.91,1.3,1.91,0,4.15,1.6,5.61,2.66C77.4,9,72.26,2.07,68.87,1.56Z"/><path class="cls-8" d="M74.43,14.66a9.09,9.09,0,0,1-6.84,3.07,9,9,0,0,1-9.05-8.87,8.75,8.75,0,0,1,3.64-7.09A8.74,8.74,0,0,0,60,7.53a9,9,0,0,0,9,8.87A9.15,9.15,0,0,0,74.43,14.66Z"/><path class="cls-9" d="M58.28,28.42c-.13-.83-.21-1.65-.26-2.48a2.59,2.59,0,0,1,1-2.43A2.71,2.71,0,0,1,60.38,23c.47,0,.84,0,1.27,0h2.48c1.65,0,3.3,0,5,.11s3.3.13,5,.26c-1.66.14-3.31.21-5,.27s-3.31.09-5,.1H61.65c-.4,0-.86,0-1.21,0a2,2,0,0,0-1,.34,2.19,2.19,0,0,0-.92,1.88C58.48,26.77,58.4,27.59,58.28,28.42Z"/><polygon class="cls-2" points="111.78 81.07 108.91 81.72 72.6 72.72 68.52 50.67 72.6 49.95 110.23 57.68 123.37 71.65 111.78 81.07"/><polygon class="cls-3" points="108.91 81.72 68.52 73.43 68.52 50.67 108.91 58.96 121.14 71.94 108.91 81.72"/><polygon class="cls-10" points="121.14 71.94 123.37 71.65 111.78 81.07 108.91 81.72 121.14 71.94"/><line class="cls-5" x1="73.06" y1="62.96" x2="83.59" y2="65.38"/><line class="cls-5" x1="88.04" y1="66.3" x2="107.95" y2="70.22"/><polygon class="cls-2" points="20.73 112.76 24.81 113.5 61.12 104.14 65.2 81.23 62.06 80.66 23.25 89.02 8.21 104.49 20.73 112.76"/><polygon class="cls-3" points="24.81 113.5 65.2 104.88 65.2 81.23 24.81 89.85 10.25 104.8 24.81 113.5"/><polygon class="cls-10" points="10.25 104.8 8.21 104.49 20.73 112.76 24.81 113.5 10.25 104.8"/><line class="cls-5" x1="60.66" y1="94.01" x2="37.73" y2="98.96"/><line class="cls-5" x1="33.28" y1="99.92" x2="25.77" y2="101.55"/></g></g></svg>