<svg xmlns="http://www.w3.org/2000/svg" xmlns:xlink="http://www.w3.org/1999/xlink" viewBox="0 0 137.56 137.56"><defs><style>.cls-1,.cls-10,.cls-11,.cls-13,.cls-15,.cls-16,.cls-3,.cls-8,.cls-9{fill:none;}.cls-2{fill:#bed1ed;opacity:0.4;}.cls-10,.cls-11,.cls-3,.cls-9{stroke:#fff;stroke-linejoin:round;}.cls-10,.cls-11,.cls-13,.cls-15,.cls-16,.cls-3,.cls-9{stroke-linecap:round;}.cls-3{stroke-width:2.28px;opacity:0.69;}.cls-10,.cls-3,.cls-8{isolation:isolate;}.cls-4{fill:#213893;}.cls-5{fill:#2845b4;}.cls-6,.cls-7{fill:#4165e2;}.cls-7{opacity:0.5;}.cls-8{stroke:#2b3078;stroke-width:0.19px;opacity:0.3;}.cls-13,.cls-15,.cls-16,.cls-8{stroke-miterlimit:10;}.cls-9{stroke-width:0.76px;}.cls-10{stroke-width:0.57px;opacity:0.25;}.cls-11{stroke-width:1.52px;}.cls-12{fill:#7396ff;}.cls-13{stroke:#2845b4;stroke-width:0.25px;}.cls-14{fill:#2f4798;opacity:0.36;}.cls-15,.cls-16{stroke:#45ffe6;}.cls-15{stroke-width:2px;}.cls-16{stroke-width:0.5px;}.cls-17{clip-path:url(#clip-path);}.cls-18{fill:#ed9926;}.cls-19{fill:#f9b760;}.cls-20{fill:#1f4898;opacity:0.2;}</style><clipPath id="clip-path"><path class="cls-1" d="M34.66,28.39l17.18,1,3.9,28.36L91.31,65l19.4-42.8s-24-7.3-24.33-7.3-27.47-2.15-27.47-2.15L26.85,17.38Z"/></clipPath></defs><g id="Layer_2" data-name="Layer 2"><g id="Isolation_Mode" data-name="Isolation Mode"><path class="cls-2" d="M137.56,68.78A68.88,68.88,0,0,1,87.27,135h0a68.83,68.83,0,0,1-67.6-18.12,66.32,66.32,0,0,1-5.39-6.2A68.78,68.78,0,1,1,137.56,68.78Z"/><path class="cls-3" d="M5.43,43.18l1.65-1.67L5.45,39.68"/><path class="cls-4" d="M106.42,32.87a4,4,0,0,1,3.91,3.72v63.77a4.42,4.42,0,0,1-3.91,4.19L8,110c-2.06.1-5.13-.92-5.13-3.49V31.1c-.06-2.05,2.41-4.42,4.46-4.42C7.82,26.68,106.42,32.87,106.42,32.87Z"/><path class="cls-5" d="M9.06,26.78l97.42,6.09a4,4,0,0,1,3.82,3.72v63.77a4.39,4.39,0,0,1-3.82,4.19L9.06,110a3.7,3.7,0,0,1-3.82-3.87V30.62A3.67,3.67,0,0,1,9.06,26.78Z"/><path class="cls-6" d="M97.68,37.67a1.59,1.59,0,0,1,1.41,1.66,1.43,1.43,0,0,1-1.6,1.23h-.08A1.6,1.6,0,0,1,96,38.88a1.4,1.4,0,0,1,1.55-1.24Z"/><path class="cls-6" d="M102,37.86a1.6,1.6,0,0,1,1.51,1.57,1.43,1.43,0,0,1-1.53,1.33h-.08a1.61,1.61,0,0,1-1.51-1.59,1.41,1.41,0,0,1,1.48-1.32Z"/><path class="cls-6" d="M106.21,38.25a1.59,1.59,0,0,1,1.5,1.58,1.42,1.42,0,0,1-1.52,1.32h-.08a1.6,1.6,0,0,1-1.51-1.58,1.4,1.4,0,0,1,1.48-1.32Z"/><path class="cls-6" d="M23.34,33.65,93,37.27a1.66,1.66,0,0,1,1.6,1.58h0a1.46,1.46,0,0,1-1.5,1.43H93L23.34,37a1.74,1.74,0,0,1-1.6-1.75h0a1.53,1.53,0,0,1,1.5-1.56Z"/><path class="cls-6" d="M12.89,37.22a.78.78,0,0,1-.56-.25l-1.7-1.89a.75.75,0,0,1,0-1l1-1,.7-.7a.76.76,0,1,1,1.07,1.07l-.69.7-.51.5L13.46,36A.76.76,0,0,1,13.4,37,.74.74,0,0,1,12.89,37.22Z"/><path class="cls-6" d="M17.58,37.45A.76.76,0,0,1,17,36.16l.42-.43.77-.76L17,33.63a.76.76,0,0,1,1.13-1l1.7,1.88a.76.76,0,0,1,0,1L18.54,36.8l-.43.43A.74.74,0,0,1,17.58,37.45Z"/><path class="cls-7" d="M105.29,102.16l-95,4.89a2.35,2.35,0,0,1-2.4-2.27.86.86,0,0,1,0-.16V42.69a2.34,2.34,0,0,1,2.25-2.45h.14l95,4.13a2.42,2.42,0,0,1,2.42,2.3V99.84A2.46,2.46,0,0,1,105.29,102.16Z"/><path class="cls-8" d="M10.1,78.76l50.13-.49"/><path class="cls-9" d="M11.72,73.54l23.54-.05"/><path class="cls-9" d="M11.7,76.53l31.53-.21"/><path class="cls-10" d="M11.67,81l24.91-.33"/><path class="cls-10" d="M11.64,86.38l37.18-.77"/><path class="cls-10" d="M11.66,83.8l37.18-.63"/><path class="cls-10" d="M11.62,91.55Q35,90.91,58.36,90.23"/><path class="cls-10" d="M11.62,89l46.74-1.15"/><path class="cls-10" d="M11.58,96.17l46.75-1.63"/><path class="cls-10" d="M11.62,93.58l46.74-1.46"/><path class="cls-10" d="M11.56,101.33q23.37-1,46.74-2"/><path class="cls-10" d="M11.57,98.75Q35,97.87,58.31,97"/><path class="cls-6" d="M15.77,43.87,98.8,47a4.14,4.14,0,0,1,4,4.14v7.69a4.14,4.14,0,0,1-4.11,4.14l-83,.66a4.14,4.14,0,0,1-4.18-4.14V48A4.14,4.14,0,0,1,15.77,43.87Z"/><path class="cls-3" d="M41.76,58.72l1.49-1.5q-.73-.84-1.47-1.65"/><path class="cls-11" d="M101.89,72.48,51.27,71.22"/><path class="cls-5" d="M132.75,49.44a3.6,3.6,0,0,1,3.52,3.35v57.45a4,4,0,0,1-3.52,3.77l-88.67,4.92c-1.86.08-4.62-.83-4.62-3.15V47.84c-.06-1.85,2.17-4,4-4C43.92,43.86,132.75,49.44,132.75,49.44Z"/><path class="cls-6" d="M45,44l87.77,5.49a3.56,3.56,0,0,1,3.44,3.34v57.46A4,4,0,0,1,132.8,114L45,118.89a3.33,3.33,0,0,1-3.44-3.48v-68A3.31,3.31,0,0,1,45,44Z"/><path class="cls-5" d="M124.87,53.76a1.44,1.44,0,0,1,1.27,1.49,1.29,1.29,0,0,1-1.44,1.12l-.08,0a1.45,1.45,0,0,1-1.27-1.5,1.27,1.27,0,0,1,1.4-1.11Z"/><path class="cls-5" d="M128.73,53.93a1.43,1.43,0,0,1,1.35,1.42,1.28,1.28,0,0,1-1.37,1.19h-.08a1.46,1.46,0,0,1-1.35-1.43,1.26,1.26,0,0,1,1.33-1.19Z"/><path class="cls-5" d="M132.55,54.28a1.44,1.44,0,0,1,1.36,1.42,1.3,1.3,0,0,1-1.38,1.2h-.07a1.43,1.43,0,0,1-1.35-1.43,1.26,1.26,0,0,1,1.33-1.19Z"/><path class="cls-5" d="M57.9,50.14l62.74,3.26a1.5,1.5,0,0,1,1.44,1.43h0a1.32,1.32,0,0,1-1.35,1.28h-.09l-62.74-3a1.56,1.56,0,0,1-1.44-1.58h0a1.37,1.37,0,0,1,1.35-1.4Z"/><path class="cls-5" d="M48.49,53.35a.68.68,0,0,1-.51-.22l-1.53-1.7a.68.68,0,0,1,0-.93l.91-.92L48,49a.68.68,0,0,1,1,0,.67.67,0,0,1,0,1l-.62.63-.46.45L49,52.21a.69.69,0,0,1,0,1A.73.73,0,0,1,48.49,53.35Z"/><path class="cls-5" d="M52.71,53.56a.67.67,0,0,1-.49-.2.69.69,0,0,1,0-1L52.6,52c.23-.23.46-.47.7-.69l-1.1-1.21a.69.69,0,0,1,0-1,.68.68,0,0,1,1,.05l1.53,1.69a.69.69,0,0,1,0,1L53.57,53l-.38.38A.65.65,0,0,1,52.71,53.56Z"/><path class="cls-12" d="M131.73,111.86l-85.57,4.4a2.12,2.12,0,0,1-2.17-2V58.28a2.14,2.14,0,0,1,2-2.21h.13l85.57,3.72a2.18,2.18,0,0,1,2.18,2.07v47.91A2.22,2.22,0,0,1,131.73,111.86Z"/><path class="cls-13" d="M52.49,67.53l76.19,1.87"/><path class="cls-13" d="M117.63,63.59l-55.39-2"/><path class="cls-14" d="M94.1,47,83.54,71.45a1.67,1.67,0,0,1-2.6.65l-24.73-20a1.87,1.87,0,0,1-.66-1.84l1.05-5.13h0a.27.27,0,0,1,.28-.26c1,0,2.62.08,4.31.14Z"/><ellipse class="cls-7" cx="91.01" cy="88.4" rx="11.84" ry="12.94"/><polyline class="cls-15" points="85.11 85.47 90.72 88.84 96.91 81.18"/><path class="cls-16" d="M47.33,106.29l33.25-1.15"/><path class="cls-16" d="M47.36,103.71l29.22-.91"/><path class="cls-16" d="M47.3,111.46c15.58-.65,27.06-1.13,42.63-1.8"/><path class="cls-16" d="M47.32,108.88l37.79-1.46"/><g class="cls-17"><path class="cls-18" d="M35.76,44.28C39,17.74,64.11,26,65.69,43.41c-.71-2.76-7.13-5.88-7.13-5.88l-1,4.82a1.77,1.77,0,0,0,.61,1.72L81.34,62.84a1.58,1.58,0,0,0,2.44-.61l11.8-27.31a4.37,4.37,0,0,0,.25-.8l.83-5s-5,7.29-6.4,8C87.57,16,37.1,6.06,35.54,44"/><path class="cls-19" d="M35.76,44.28c3.23-26.54,29.1-24.85,31-6.68-2.17-.14-6.23-.26-7.93-.31a.27.27,0,0,0-.17.48l23.48,19A1.85,1.85,0,0,0,85,56.09l11.66-27a.14.14,0,0,0-.2-.18c-1.37.48-3.32,1.12-5.17,1.78C87.78,7.38,38.25,6.07,35.54,44"/></g><path class="cls-20" d="M72.86,121.83c11.66-.21,21.17,1.35,21.76,3.57-.33,2.11-9.49,4-20.46,4.14H73c-11.69.2-21.18-1.37-21.77-3.6.17-2.07,9-3.9,19.79-4.1Z"/></g></g></svg>